%FSTAX23Y23*%
%MOIN*%
%SFA1B1*%

%IPPOS*%
%ADD40C,0.005000*%
%ADD44C,0.010000*%
%ADD82R,0.048000X0.040000*%
%ADD96O,0.078000X0.063000*%
%ADD97R,0.078000X0.063000*%
%ADD98C,0.068000*%
%ADD99R,0.068000X0.068000*%
%ADD100C,0.047370*%
%ADD101C,0.070000*%
%ADD102C,0.133980*%
%ADD103R,0.040000X0.048000*%
%LNmb1136-1*%
%LPD*%
G36*
X01285Y00725D02*
X01261Y00701D01*
X01251*
Y00749*
X01261*
X01285Y00725*
G37*
G36*
X01473Y00651D02*
X01463D01*
X01439Y00675*
X01463Y00699*
X01473*
Y00651*
G37*
G36*
X01437Y00675D02*
X01461Y00651D01*
X01423*
Y00675*
Y00699*
X01461*
X01437Y00675*
G37*
G36*
X01301Y00725D02*
Y00701D01*
X01263*
X01287Y00725*
X01263Y00749*
X01301*
Y00725*
G37*
G36*
X01285Y00775D02*
X01261Y00751D01*
X01251*
Y00799*
X01261*
X01285Y00775*
G37*
G36*
X01476Y00725D02*
Y00701D01*
X01438*
X01462Y00725*
X01438Y00749*
X01476*
Y00725*
G37*
G36*
X0146D02*
X01436Y00701D01*
X01426*
Y00749*
X01436*
X0146Y00725*
G37*
G36*
X01323Y00601D02*
X01313D01*
X01289Y00625*
X01313Y00649*
X01323*
Y00601*
G37*
G36*
X00912Y00575D02*
X00936Y00551D01*
X00898*
Y00575*
Y00599*
X00936*
X00912Y00575*
G37*
G36*
X00824Y00538D02*
X008Y00514D01*
X00776Y00538*
Y00548*
X00824*
Y00538*
G37*
G36*
Y00498D02*
X00776D01*
Y00536*
X008Y00512*
X00824Y00536*
Y00498*
G37*
G36*
X00948Y00551D02*
X00938D01*
X00914Y00575*
X00938Y00599*
X00948*
Y00551*
G37*
G36*
X01287Y00625D02*
X01311Y00601D01*
X01273*
Y00625*
Y00649*
X01311*
X01287Y00625*
G37*
G36*
X01323Y00551D02*
X01313D01*
X01289Y00575*
X01313Y00599*
X01323*
Y00551*
G37*
G36*
X01287Y00575D02*
X01311Y00551D01*
X01273*
Y00575*
Y00599*
X01311*
X01287Y00575*
G37*
G36*
X01301Y00775D02*
Y00751D01*
X01263*
X01287Y00775*
X01263Y00799*
X01301*
Y00775*
G37*
G36*
X0131Y01D02*
X01286Y00976D01*
X01276*
Y01024*
X01286*
X0131Y01*
G37*
G36*
X01476Y00925D02*
Y00901D01*
X01438*
X01462Y00925*
X01438Y00949*
X01476*
Y00925*
G37*
G36*
X0146D02*
X01436Y00901D01*
X01426*
Y00949*
X01436*
X0146Y00925*
G37*
G36*
X01326Y01D02*
Y00976D01*
X01288*
X01312Y01*
X01288Y01024*
X01326*
Y01*
G37*
G36*
X01124Y00986D02*
Y00976D01*
X01076*
Y00986*
X011Y0101*
X01124Y00986*
G37*
G36*
X01473Y00976D02*
X01463D01*
X01439Y01*
X01463Y01024*
X01473*
Y00976*
G37*
G36*
X01437Y01D02*
X01461Y00976D01*
X01423*
Y01*
Y01024*
X01461*
X01437Y01*
G37*
G36*
X01301Y009D02*
Y00876D01*
X01263*
X01287Y009*
X01263Y00924*
X01301*
Y009*
G37*
G36*
X0146Y00825D02*
X01436Y00801D01*
X01426*
Y00849*
X01436*
X0146Y00825*
G37*
G36*
X01476Y00775D02*
Y00751D01*
X01438*
X01462Y00775*
X01438Y00799*
X01476*
Y00775*
G37*
G36*
X0146D02*
X01436Y00751D01*
X01426*
Y00799*
X01436*
X0146Y00775*
G37*
G36*
X01476Y00825D02*
Y00801D01*
X01438*
X01462Y00825*
X01438Y00849*
X01476*
Y00825*
G37*
G36*
X01285Y009D02*
X01261Y00876D01*
X01251*
Y00924*
X01261*
X01285Y009*
G37*
G36*
X01476Y00875D02*
Y00851D01*
X01438*
X01462Y00875*
X01438Y00899*
X01476*
Y00875*
G37*
G36*
X0146D02*
X01436Y00851D01*
X01426*
Y00899*
X01436*
X0146Y00875*
G37*
G36*
X00948Y00501D02*
X00938D01*
X00914Y00525*
X00938Y00549*
X00948*
Y00501*
G37*
G36*
X00485Y0035D02*
X00461Y00326D01*
X00451*
Y00374*
X00461*
X00485Y0035*
G37*
G36*
X01323Y00276D02*
X01313D01*
X01289Y003*
X01313Y00324*
X01323*
Y00276*
G37*
G36*
X01287Y003D02*
X01311Y00276D01*
X01273*
Y003*
Y00324*
X01311*
X01287Y003*
G37*
G36*
X00501Y0035D02*
Y00326D01*
X00463*
X00487Y0035*
X00463Y00374*
X00501*
Y0035*
G37*
G36*
X00912Y00375D02*
X00936Y00351D01*
X00898*
Y00375*
Y00399*
X00936*
X00912Y00375*
G37*
G36*
X01326Y0035D02*
Y00326D01*
X01288*
X01312Y0035*
X01288Y00374*
X01326*
Y0035*
G37*
G36*
X0131D02*
X01286Y00326D01*
X01276*
Y00374*
X01286*
X0131Y0035*
G37*
G36*
X00951Y003D02*
Y00276D01*
X00913*
X00937Y003*
X00913Y00324*
X00951*
Y003*
G37*
G36*
X01287Y0025D02*
X01311Y00226D01*
X01273*
Y0025*
Y00274*
X01311*
X01287Y0025*
G37*
G36*
X01323Y00176D02*
X01313D01*
X01289Y002*
X01313Y00224*
X01323*
Y00176*
G37*
G36*
X01287Y002D02*
X01311Y00176D01*
X01273*
Y002*
Y00224*
X01311*
X01287Y002*
G37*
G36*
X01323Y00226D02*
X01313D01*
X01289Y0025*
X01313Y00274*
X01323*
Y00226*
G37*
G36*
X00935Y003D02*
X00911Y00276D01*
X00901*
Y00324*
X00911*
X00935Y003*
G37*
G36*
X00501D02*
Y00276D01*
X00463*
X00487Y003*
X00463Y00324*
X00501*
Y003*
G37*
G36*
X00485D02*
X00461Y00276D01*
X00451*
Y00324*
X00461*
X00485Y003*
G37*
G36*
X00948Y00351D02*
X00938D01*
X00914Y00375*
X00938Y00399*
X00948*
Y00351*
G37*
G36*
X00935Y00475D02*
X00911Y00451D01*
X00901*
Y00499*
X00911*
X00935Y00475*
G37*
G36*
X00501D02*
Y00451D01*
X00463*
X00487Y00475*
X00463Y00499*
X00501*
Y00475*
G37*
G36*
X00485D02*
X00461Y00451D01*
X00451*
Y00499*
X00461*
X00485Y00475*
G37*
G36*
X00951D02*
Y00451D01*
X00913*
X00937Y00475*
X00913Y00499*
X00951*
Y00475*
G37*
G36*
X00912Y00525D02*
X00936Y00501D01*
X00898*
Y00525*
Y00549*
X00936*
X00912Y00525*
G37*
G36*
X00498Y00501D02*
X00488D01*
X00464Y00525*
X00488Y00549*
X00498*
Y00501*
G37*
G36*
X00462Y00525D02*
X00486Y00501D01*
X00448*
Y00525*
Y00549*
X00486*
X00462Y00525*
G37*
G36*
X01326Y0045D02*
Y00426D01*
X01288*
X01312Y0045*
X01288Y00474*
X01326*
Y0045*
G37*
G36*
X00485Y00425D02*
X00461Y00401D01*
X00451*
Y00449*
X00461*
X00485Y00425*
G37*
G36*
X01326Y004D02*
Y00376D01*
X01288*
X01312Y004*
X01288Y00424*
X01326*
Y004*
G37*
G36*
X0131D02*
X01286Y00376D01*
X01276*
Y00424*
X01286*
X0131Y004*
G37*
G36*
X00501Y00425D02*
Y00401D01*
X00463*
X00487Y00425*
X00463Y00449*
X00501*
Y00425*
G37*
G36*
X0131Y0045D02*
X01286Y00426D01*
X01276*
Y00474*
X01286*
X0131Y0045*
G37*
G36*
X00951Y00425D02*
Y00401D01*
X00913*
X00937Y00425*
X00913Y00449*
X00951*
Y00425*
G37*
G36*
X00935D02*
X00911Y00401D01*
X00901*
Y00449*
X00911*
X00935Y00425*
G37*
G36*
X01149Y02288D02*
X01125Y02264D01*
X01101Y02288*
Y02298*
X01149*
Y02288*
G37*
G36*
X00999D02*
X00975Y02264D01*
X00951Y02288*
Y02298*
X00999*
Y02288*
G37*
G36*
X01099Y02263D02*
X01075Y02287D01*
X01051Y02263*
Y02301*
X01099*
Y02263*
G37*
G36*
X01399Y02298D02*
X01351D01*
Y02336*
X01375Y02312*
X01399Y02336*
Y02298*
G37*
G36*
X00373Y02426D02*
X00363D01*
X00339Y0245*
X00363Y02474*
X00373*
Y02426*
G37*
G36*
X00337Y0245D02*
X00361Y02426D01*
X00323*
Y0245*
Y02474*
X00361*
X00337Y0245*
G37*
G36*
X01399Y02338D02*
X01375Y02314D01*
X01351Y02338*
Y02348*
X01399*
Y02338*
G37*
G36*
X01049Y02263D02*
X01025Y02287D01*
X01001Y02263*
Y02301*
X01049*
Y02263*
G37*
G36*
X00351Y0175D02*
Y01726D01*
X00313*
X00337Y0175*
X00313Y01774*
X00351*
Y0175*
G37*
G36*
X00335D02*
X00311Y01726D01*
X00301*
Y01774*
X00311*
X00335Y0175*
G37*
G36*
X01476Y013D02*
Y01276D01*
X01438*
X01462Y013*
X01438Y01324*
X01476*
Y013*
G37*
G36*
X01049Y02261D02*
Y02251D01*
X01001*
Y02261*
X01025Y02285*
X01049Y02261*
G37*
G36*
X01149Y02248D02*
X01101D01*
Y02286*
X01125Y02262*
X01149Y02286*
Y02248*
G37*
G36*
X00999D02*
X00951D01*
Y02286*
X00975Y02262*
X00999Y02286*
Y02248*
G37*
G36*
X01099Y02261D02*
Y02251D01*
X01051*
Y02261*
X01075Y02285*
X01099Y02261*
G37*
G36*
X00335Y0265D02*
X00311Y02626D01*
X00301*
Y02674*
X00311*
X00335Y0265*
G37*
G36*
X00601Y0285D02*
Y02826D01*
X00563*
X00587Y0285*
X00563Y02874*
X00601*
Y0285*
G37*
G36*
X00585D02*
X00561Y02826D01*
X00551*
Y02874*
X00561*
X00585Y0285*
G37*
G36*
X00351D02*
Y02826D01*
X00313*
X00337Y0285*
X00313Y02874*
X00351*
Y0285*
G37*
G36*
X00335Y0295D02*
X00311Y02926D01*
X00301*
Y02974*
X00311*
X00335Y0295*
G37*
G36*
X00601D02*
Y02926D01*
X00563*
X00587Y0295*
X00563Y02974*
X00601*
Y0295*
G37*
G36*
X00585D02*
X00561Y02926D01*
X00551*
Y02974*
X00561*
X00585Y0295*
G37*
G36*
X00351D02*
Y02926D01*
X00313*
X00337Y0295*
X00313Y02974*
X00351*
Y0295*
G37*
G36*
X00335Y0285D02*
X00311Y02826D01*
X00301*
Y02874*
X00311*
X00335Y0285*
G37*
G36*
X00601Y0265D02*
Y02626D01*
X00563*
X00587Y0265*
X00563Y02674*
X00601*
Y0265*
G37*
G36*
X00585D02*
X00561Y02626D01*
X00551*
Y02674*
X00561*
X00585Y0265*
G37*
G36*
X00351D02*
Y02626D01*
X00313*
X00337Y0265*
X00313Y02674*
X00351*
Y0265*
G37*
G36*
X00335Y0275D02*
X00311Y02726D01*
X00301*
Y02774*
X00311*
X00335Y0275*
G37*
G36*
X00601D02*
Y02726D01*
X00563*
X00587Y0275*
X00563Y02774*
X00601*
Y0275*
G37*
G36*
X00585D02*
X00561Y02726D01*
X00551*
Y02774*
X00561*
X00585Y0275*
G37*
G36*
X00351D02*
Y02726D01*
X00313*
X00337Y0275*
X00313Y02774*
X00351*
Y0275*
G37*
G36*
X0146Y013D02*
X01436Y01276D01*
X01426*
Y01324*
X01436*
X0146Y013*
G37*
G36*
X01326Y0115D02*
Y01126D01*
X01288*
X01312Y0115*
X01288Y01174*
X01326*
Y0115*
G37*
G36*
X0131D02*
X01286Y01126D01*
X01276*
Y01174*
X01286*
X0131Y0115*
G37*
G36*
X01476Y011D02*
Y01076D01*
X01438*
X01462Y011*
X01438Y01124*
X01476*
Y011*
G37*
G36*
X01437Y0115D02*
X01461Y01126D01*
X01423*
Y0115*
Y01174*
X01461*
X01437Y0115*
G37*
G36*
X00799Y01161D02*
Y01151D01*
X00751*
Y01161*
X00775Y01185*
X00799Y01161*
G37*
G36*
X00749D02*
Y01151D01*
X00701*
Y01161*
X00725Y01185*
X00749Y01161*
G37*
G36*
X01473Y01126D02*
X01463D01*
X01439Y0115*
X01463Y01174*
X01473*
Y01126*
G37*
G36*
X0146Y011D02*
X01436Y01076D01*
X01426*
Y01124*
X01436*
X0146Y011*
G37*
G36*
X01326Y0105D02*
Y01026D01*
X01288*
X01312Y0105*
X01288Y01074*
X01326*
Y0105*
G37*
G36*
X0131D02*
X01286Y01026D01*
X01276*
Y01074*
X01286*
X0131Y0105*
G37*
G36*
X01124Y00988D02*
X011Y01012D01*
X01076Y00988*
Y01026*
X01124*
Y00988*
G37*
G36*
X01437Y0105D02*
X01461Y01026D01*
X01423*
Y0105*
Y01074*
X01461*
X01437Y0105*
G37*
G36*
X01326Y011D02*
Y01076D01*
X01288*
X01312Y011*
X01288Y01124*
X01326*
Y011*
G37*
G36*
X0131D02*
X01286Y01076D01*
X01276*
Y01124*
X01286*
X0131Y011*
G37*
G36*
X01473Y01026D02*
X01463D01*
X01439Y0105*
X01463Y01074*
X01473*
Y01026*
G37*
G36*
X00649Y01148D02*
X00601D01*
Y01186*
X00625Y01162*
X00649Y01186*
Y01148*
G37*
G36*
X01326Y0125D02*
Y01226D01*
X01288*
X01312Y0125*
X01288Y01274*
X01326*
Y0125*
G37*
G36*
X0131D02*
X01286Y01226D01*
X01276*
Y01274*
X01286*
X0131Y0125*
G37*
G36*
X01476Y012D02*
Y01176D01*
X01438*
X01462Y012*
X01438Y01224*
X01476*
Y012*
G37*
G36*
X01437Y0125D02*
X01461Y01226D01*
X01423*
Y0125*
Y01274*
X01461*
X01437Y0125*
G37*
G36*
X01326Y013D02*
Y01276D01*
X01288*
X01312Y013*
X01288Y01324*
X01326*
Y013*
G37*
G36*
X0131D02*
X01286Y01276D01*
X01276*
Y01324*
X01286*
X0131Y013*
G37*
G36*
X01473Y01226D02*
X01463D01*
X01439Y0125*
X01463Y01274*
X01473*
Y01226*
G37*
G36*
X0146Y012D02*
X01436Y01176D01*
X01426*
Y01224*
X01436*
X0146Y012*
G37*
G36*
X00799Y01163D02*
X00775Y01187D01*
X00751Y01163*
Y01201*
X00799*
Y01163*
G37*
G36*
X00749D02*
X00725Y01187D01*
X00701Y01163*
Y01201*
X00749*
Y01163*
G37*
G36*
X00699Y01148D02*
X00651D01*
Y01186*
X00675Y01162*
X00699Y01186*
Y01148*
G37*
G36*
X00649Y01188D02*
X00625Y01164D01*
X00601Y01188*
Y01198*
X00649*
Y01188*
G37*
G36*
X01326Y012D02*
Y01176D01*
X01288*
X01312Y012*
X01288Y01224*
X01326*
Y012*
G37*
G36*
X0131D02*
X01286Y01176D01*
X01276*
Y01224*
X01286*
X0131Y012*
G37*
G36*
X00699Y01188D02*
X00675Y01164D01*
X00651Y01188*
Y01198*
X00699*
Y01188*
G37*
G54D40*
X0032Y02085D02*
D01*
X00318Y02084*
X00317Y02084*
X00315Y02084*
X00314Y02084*
X00313Y02083*
X00312Y02083*
X0031Y02082*
X00309Y02082*
X00308Y02081*
X00307Y0208*
X00306Y02079*
X00305Y02078*
X00304Y02077*
X00303Y02076*
X00303Y02075*
X00302Y02073*
X00301Y02072*
X00301Y02071*
X003Y0207*
X003Y02068*
X003Y02067*
X003Y02066*
Y02064*
X003Y02063*
X003Y02061*
X003Y0206*
X00301Y02059*
X00301Y02057*
X00302Y02056*
X00303Y02055*
X00303Y02054*
X00304Y02053*
X00305Y02052*
X00306Y02051*
X00307Y0205*
X00308Y02049*
X00309Y02048*
X0031Y02047*
X00312Y02047*
X00313Y02046*
X00314Y02046*
X00315Y02046*
X00317Y02045*
X00318Y02045*
X0032Y02045*
X0125Y02085D02*
D01*
X01248Y02084*
X01247Y02084*
X01245Y02084*
X01244Y02084*
X01243Y02083*
X01241Y02083*
X0124Y02082*
X01239Y02082*
X01238Y02081*
X01237Y0208*
X01236Y02079*
X01235Y02078*
X01234Y02077*
X01233Y02076*
X01232Y02075*
X01232Y02073*
X01231Y02072*
X01231Y02071*
X0123Y0207*
X0123Y02068*
X0123Y02067*
X0123Y02066*
Y02064*
X0123Y02063*
X0123Y02061*
X0123Y0206*
X01231Y02059*
X01231Y02057*
X01232Y02056*
X01232Y02055*
X01233Y02054*
X01234Y02053*
X01235Y02052*
X01236Y02051*
X01237Y0205*
X01238Y02049*
X01239Y02048*
X0124Y02047*
X01241Y02047*
X01243Y02046*
X01244Y02046*
X01245Y02046*
X01247Y02045*
X01248Y02045*
X0125Y02045*
X01538D02*
D01*
X01539Y02045*
X01541Y02045*
X01542Y02046*
X01544Y02046*
X01545Y02046*
X01546Y02047*
X01547Y02047*
X01549Y02048*
X0155Y02049*
X01551Y0205*
X01552Y02051*
X01553Y02052*
X01554Y02053*
X01554Y02054*
X01555Y02055*
X01556Y02056*
X01556Y02057*
X01557Y02059*
X01557Y0206*
X01557Y02061*
X01558Y02063*
X01558Y02064*
Y02066*
X01558Y02067*
X01557Y02068*
X01557Y0207*
X01557Y02071*
X01556Y02072*
X01556Y02073*
X01555Y02075*
X01554Y02076*
X01554Y02077*
X01553Y02078*
X01552Y02079*
X01551Y0208*
X0155Y02081*
X01549Y02082*
X01547Y02082*
X01546Y02083*
X01545Y02083*
X01544Y02084*
X01542Y02084*
X01541Y02084*
X01539Y02085*
X01538Y02085*
X01698D02*
D01*
X01696Y02084*
X01695Y02084*
X01693Y02084*
X01692Y02084*
X01691Y02083*
X0169Y02083*
X01688Y02082*
X01687Y02082*
X01686Y02081*
X01685Y0208*
X01684Y02079*
X01683Y02078*
X01682Y02077*
X01681Y02076*
X0168Y02075*
X0168Y02073*
X01679Y02072*
X01679Y02071*
X01678Y0207*
X01678Y02068*
X01678Y02067*
X01678Y02066*
Y02064*
X01678Y02063*
X01678Y02061*
X01678Y0206*
X01679Y02059*
X01679Y02057*
X0168Y02056*
X0168Y02055*
X01681Y02054*
X01682Y02053*
X01683Y02052*
X01684Y02051*
X01685Y0205*
X01686Y02049*
X01687Y02048*
X01688Y02047*
X0169Y02047*
X01691Y02046*
X01692Y02046*
X01693Y02046*
X01695Y02045*
X01696Y02045*
X01698Y02045*
X00182D02*
D01*
X00183Y02045*
X00185Y02045*
X00186Y02046*
X00187Y02046*
X00189Y02046*
X0019Y02047*
X00191Y02047*
X00192Y02048*
X00193Y02049*
X00194Y0205*
X00195Y02051*
X00196Y02052*
X00197Y02053*
X00198Y02054*
X00199Y02055*
X00199Y02056*
X002Y02057*
X00201Y02059*
X00201Y0206*
X00201Y02061*
X00201Y02063*
X00201Y02064*
Y02066*
X00201Y02067*
X00201Y02068*
X00201Y0207*
X00201Y02071*
X002Y02072*
X00199Y02073*
X00199Y02075*
X00198Y02076*
X00197Y02077*
X00196Y02078*
X00195Y02079*
X00194Y0208*
X00193Y02081*
X00192Y02082*
X00191Y02082*
X0019Y02083*
X00189Y02083*
X00187Y02084*
X00186Y02084*
X00185Y02084*
X00183Y02085*
X00182Y02085*
X01068Y02045D02*
D01*
X01069Y02045*
X0107Y02045*
X01072Y02046*
X01073Y02046*
X01074Y02046*
X01076Y02047*
X01077Y02047*
X01078Y02048*
X01079Y02049*
X0108Y0205*
X01081Y02051*
X01082Y02052*
X01083Y02053*
X01084Y02054*
X01085Y02055*
X01085Y02056*
X01086Y02057*
X01086Y02059*
X01087Y0206*
X01087Y02061*
X01087Y02063*
X01087Y02064*
Y02066*
X01087Y02067*
X01087Y02068*
X01087Y0207*
X01086Y02071*
X01086Y02072*
X01085Y02073*
X01085Y02075*
X01084Y02076*
X01083Y02077*
X01082Y02078*
X01081Y02079*
X0108Y0208*
X01079Y02081*
X01078Y02082*
X01077Y02082*
X01076Y02083*
X01074Y02083*
X01073Y02084*
X01072Y02084*
X0107Y02084*
X01069Y02085*
X01068Y02085*
X-00349Y03049D02*
D01*
X-00354Y03049*
X-0036Y03048*
X-00365Y03047*
X-0037Y03046*
X-00376Y03044*
X-00381Y03042*
X-00386Y0304*
X-0039Y03037*
X-00395Y03034*
X-00399Y03031*
X-00403Y03027*
X-00407Y03023*
X-00411Y03019*
X-00414Y03014*
X-00417Y0301*
X-00419Y03005*
X-00422Y03*
X-00424Y02995*
X-00425Y02989*
X-00426Y02984*
X-00427Y02979*
X-00427Y02973*
X-00427Y0297*
Y-0004D02*
D01*
X-00427Y-00046*
X-00427Y-00051*
X-00426Y-00057*
X-00424Y-00062*
X-00423Y-00067*
X-00421Y-00072*
X-00418Y-00077*
X-00415Y-00082*
X-00412Y-00087*
X-00409Y-00091*
X-00405Y-00095*
X-00401Y-00099*
X-00397Y-00102*
X-00393Y-00106*
X-00388Y-00109*
X-00383Y-00111*
X-00378Y-00113*
X-00373Y-00115*
X-00368Y-00117*
X-00362Y-00118*
X-00357Y-00119*
X-00351Y-00119*
X-00349Y-00119*
X02327Y0297D02*
D01*
X02327Y02976*
X02327Y02981*
X02326Y02987*
X02324Y02992*
X02323Y02997*
X02321Y03002*
X02318Y03007*
X02315Y03012*
X02312Y03017*
X02309Y03021*
X02305Y03025*
X02301Y03029*
X02297Y03032*
X02293Y03036*
X02288Y03039*
X02283Y03041*
X02278Y03043*
X02273Y03045*
X02268Y03047*
X02262Y03048*
X02257Y03049*
X02251Y03049*
X02249Y03049*
Y-00119D02*
D01*
X02254Y-00119*
X0226Y-00118*
X02265Y-00117*
X0227Y-00116*
X02276Y-00114*
X02281Y-00112*
X02286Y-0011*
X0229Y-00107*
X02295Y-00104*
X02299Y-00101*
X02303Y-00097*
X02307Y-00093*
X02311Y-00089*
X02314Y-00084*
X02317Y-0008*
X02319Y-00075*
X02322Y-0007*
X02324Y-00065*
X02325Y-00059*
X02326Y-00054*
X02327Y-00049*
X02327Y-00043*
X02327Y-0004*
X01402Y-00198D02*
X01481Y-00119D01*
X01402Y-00198D02*
D01*
X00103D02*
X01402D01*
X00024Y-00119D02*
X00103Y-00198D01*
X00019Y-00119D02*
X00024D01*
X0148D02*
X02249D01*
X0125Y02045D02*
X01538D01*
X0125Y02085D02*
X01538D01*
X-00349Y03049D02*
X02249D01*
X-00349Y-00119D02*
X00019D01*
X-00427Y02085D02*
X00182D01*
X-00427Y02045D02*
X00182D01*
X0032D02*
X01068D01*
X0032Y02085D02*
X01068D01*
X01698Y02045D02*
X02327D01*
X01698Y02085D02*
X02327D01*
X-00427Y-0004D02*
Y02045D01*
Y02085D02*
Y0297D01*
X02327Y-0004D02*
Y02045D01*
Y02085D02*
Y0297D01*
G54D44*
X-0008Y03239D02*
Y0318D01*
Y03239D02*
X-00057Y0318D01*
X-00034Y03239D02*
X-00057Y0318D01*
X-00034Y03239D02*
Y0318D01*
X-00017Y03239D02*
Y0318D01*
Y03239D02*
X00008D01*
X00017Y03237*
X00019Y03234*
X00022Y03228*
Y03222*
X00019Y03217*
X00017Y03214*
X00008Y03211*
X-00017D02*
X00008D01*
X00017Y03208*
X00019Y03205*
X00022Y032*
Y03191*
X00019Y03185*
X00017Y03182*
X00008Y0318*
X-00017*
X00036Y03228D02*
X00041Y03231D01*
X0005Y03239*
Y0318*
X0008Y03228D02*
X00085Y03231D01*
X00094Y03239*
Y0318*
X00129Y03239D02*
X00161D01*
X00144Y03217*
X00152*
X00158Y03214*
X00161Y03211*
X00164Y03202*
Y03197*
X00161Y03188*
X00155Y03182*
X00147Y0318*
X00138*
X00129Y03182*
X00127Y03185*
X00124Y03191*
X00211Y03231D02*
X00209Y03237D01*
X002Y03239*
X00194*
X00186Y03237*
X0018Y03228*
X00177Y03214*
Y032*
X0018Y03188*
X00186Y03182*
X00194Y0318*
X00197*
X00206Y03182*
X00211Y03188*
X00214Y03197*
Y032*
X00211Y03208*
X00206Y03214*
X00197Y03217*
X00194*
X00186Y03214*
X0018Y03208*
X00177Y032*
X0027Y03225D02*
X00267Y03231D01*
X00262Y03237*
X00256Y03239*
X00245*
X00239Y03237*
X00233Y03231*
X0023Y03225*
X00227Y03217*
Y03202*
X0023Y03194*
X00233Y03188*
X00239Y03182*
X00245Y0318*
X00256*
X00262Y03182*
X00267Y03188*
X0027Y03194*
G54D82*
X01375Y02291D03*
Y02358D03*
X00725Y01141D03*
Y01208D03*
X00775Y01141D03*
Y01208D03*
X00675D03*
Y01141D03*
X00625Y01208D03*
Y01141D03*
X008Y00491D03*
Y00558D03*
X01075Y02241D03*
Y02308D03*
X01025Y02241D03*
Y02308D03*
X01125D03*
Y02241D03*
X00975D03*
Y02308D03*
X011Y00966D03*
Y01033D03*
G54D96*
X0045Y0265D03*
Y0275D03*
Y0285D03*
X-001Y025D03*
Y023D03*
Y026D03*
Y024D03*
Y022D03*
X0Y0D03*
Y002D03*
Y001D03*
Y004D03*
Y003D03*
Y012D03*
Y007D03*
Y008D03*
Y009D03*
Y01D03*
Y013D03*
Y011D03*
X019Y003D03*
Y001D03*
Y004D03*
Y005D03*
Y006D03*
Y007D03*
Y002D03*
Y0096D03*
Y0106D03*
Y0116D03*
Y0126D03*
Y0156D03*
Y0136D03*
Y0176D03*
Y0166D03*
Y0146D03*
X-002Y018D03*
Y006D03*
Y007D03*
Y008D03*
Y01D03*
Y011D03*
Y012D03*
Y013D03*
Y014D03*
Y015D03*
Y002D03*
Y0D03*
Y001D03*
Y016D03*
Y017D03*
Y005D03*
Y003D03*
Y004D03*
Y009D03*
X-003D03*
Y004D03*
Y003D03*
Y005D03*
Y017D03*
Y016D03*
Y001D03*
Y0D03*
Y002D03*
Y015D03*
Y014D03*
Y013D03*
Y012D03*
Y011D03*
Y01D03*
Y008D03*
Y007D03*
Y006D03*
X021D03*
Y007D03*
Y008D03*
Y01D03*
Y011D03*
Y012D03*
Y013D03*
Y014D03*
Y015D03*
Y002D03*
Y0D03*
Y001D03*
Y016D03*
Y017D03*
Y005D03*
Y003D03*
Y004D03*
Y009D03*
X022D03*
Y004D03*
Y003D03*
Y005D03*
Y017D03*
Y016D03*
Y001D03*
Y0D03*
Y002D03*
Y015D03*
Y014D03*
Y013D03*
Y012D03*
Y011D03*
Y01D03*
Y008D03*
Y007D03*
Y006D03*
Y018D03*
G54D97*
X0045Y0295D03*
X-001Y027D03*
X0Y005D03*
Y014D03*
X019Y0D03*
Y0086D03*
X-003Y018D03*
X021D03*
G54D98*
X01275Y01675D03*
X01375D03*
X-003Y029D03*
Y028D03*
Y023D03*
Y022D03*
X022Y028D03*
Y029D03*
X0005Y02275D03*
Y02175D03*
X00975Y0295D03*
X00875D03*
X00975Y01425D03*
X00875D03*
G54D99*
X01475Y01675D03*
G54D100*
X01338Y02875D03*
X01511D03*
X0085Y00627D03*
Y00872D03*
G54D101*
X00875Y00175D03*
X00675D03*
X00575Y02499D03*
Y02299D03*
G54D102*
X019Y019D03*
X013Y-001D03*
X0Y0195D03*
G54D103*
X01308Y00775D03*
X01241D03*
X01308Y00725D03*
X01241D03*
X01416Y00825D03*
X01483D03*
X01416Y011D03*
X01483D03*
Y0125D03*
X01416D03*
Y00875D03*
X01483D03*
Y00675D03*
X01416D03*
X01483Y0115D03*
X01416D03*
Y00775D03*
X01483D03*
Y01D03*
X01416D03*
Y00925D03*
X01483D03*
Y0105D03*
X01416D03*
Y00725D03*
X01483D03*
X01416Y012D03*
X01483D03*
X00891Y00575D03*
X00958D03*
Y00475D03*
X00891D03*
Y00525D03*
X00958D03*
Y00425D03*
X00891D03*
X00441Y00525D03*
X00508D03*
Y003D03*
X00441D03*
X00508Y0035D03*
X00441D03*
X00508Y00425D03*
X00441D03*
X00508Y00475D03*
X00441D03*
X01266Y0045D03*
X01333D03*
X01266Y004D03*
X01333D03*
X01266Y0035D03*
X01333D03*
X01241Y009D03*
X01308D03*
X01266Y013D03*
X01333D03*
X01266Y0125D03*
X01333D03*
X01266Y012D03*
X01333D03*
X01266Y0115D03*
X01333D03*
X01266Y011D03*
X01333D03*
X00291Y0175D03*
X00358D03*
X01266Y0105D03*
X01333D03*
X01266Y01D03*
X01333D03*
Y0025D03*
X01266D03*
X01333Y003D03*
X01266D03*
X01333Y002D03*
X01266D03*
X00316Y0245D03*
X00383D03*
X00541Y0265D03*
X00608D03*
X00291D03*
X00358D03*
X00608Y0275D03*
X00541D03*
X00291D03*
X00358D03*
X00608Y0285D03*
X00541D03*
X00291D03*
X00358D03*
X00608Y0295D03*
X00541D03*
X00291D03*
X00358D03*
X01333Y00625D03*
X01266D03*
X01333Y00575D03*
X01266D03*
X01416Y013D03*
X01483D03*
X00958Y00375D03*
X00891D03*
Y003D03*
X00958D03*
M02*