%FSTAX23Y23*%
%MOIN*%
%SFA1B1*%

%IPPOS*%
%ADD26R,0.040000X0.032000*%
%ADD40C,0.005000*%
%ADD44C,0.010000*%
%ADD54R,0.032000X0.040000*%
%LNmb1136-1*%
%LPD*%
G36*
X01281Y00725D02*
X01261Y00705D01*
X01251*
Y00745*
X01261*
X01281Y00725*
G37*
G36*
X01473Y00655D02*
X01463D01*
X01443Y00675*
X01463Y00695*
X01473*
Y00655*
G37*
G36*
X01433Y00675D02*
X01453Y00655D01*
X01423*
Y00675*
Y00695*
X01453*
X01433Y00675*
G37*
G36*
X01301Y00725D02*
Y00705D01*
X01271*
X01291Y00725*
X01271Y00745*
X01301*
Y00725*
G37*
G36*
X01281Y00775D02*
X01261Y00755D01*
X01251*
Y00795*
X01261*
X01281Y00775*
G37*
G36*
X01476Y00725D02*
Y00705D01*
X01446*
X01466Y00725*
X01446Y00745*
X01476*
Y00725*
G37*
G36*
X01456D02*
X01436Y00705D01*
X01426*
Y00745*
X01436*
X01456Y00725*
G37*
G36*
X01323Y00605D02*
X01313D01*
X01293Y00625*
X01313Y00645*
X01323*
Y00605*
G37*
G36*
X00908Y00575D02*
X00928Y00555D01*
X00898*
Y00575*
Y00595*
X00928*
X00908Y00575*
G37*
G36*
X0082Y00538D02*
X008Y00518D01*
X0078Y00538*
Y00548*
X0082*
Y00538*
G37*
G36*
Y00498D02*
X0078D01*
Y00528*
X008Y00508*
X0082Y00528*
Y00498*
G37*
G36*
X00948Y00555D02*
X00938D01*
X00918Y00575*
X00938Y00595*
X00948*
Y00555*
G37*
G36*
X01283Y00625D02*
X01303Y00605D01*
X01273*
Y00625*
Y00645*
X01303*
X01283Y00625*
G37*
G36*
X01323Y00555D02*
X01313D01*
X01293Y00575*
X01313Y00595*
X01323*
Y00555*
G37*
G36*
X01283Y00575D02*
X01303Y00555D01*
X01273*
Y00575*
Y00595*
X01303*
X01283Y00575*
G37*
G36*
X01301Y00775D02*
Y00755D01*
X01271*
X01291Y00775*
X01271Y00795*
X01301*
Y00775*
G37*
G36*
X0112Y00986D02*
Y00976D01*
X0108*
Y00986*
X011Y01006*
X0112Y00986*
G37*
G36*
X01476Y00925D02*
Y00905D01*
X01446*
X01466Y00925*
X01446Y00945*
X01476*
Y00925*
G37*
G36*
X01456D02*
X01436Y00905D01*
X01426*
Y00945*
X01436*
X01456Y00925*
G37*
G36*
X01306Y01D02*
X01286Y0098D01*
X01276*
Y0102*
X01286*
X01306Y01*
G37*
G36*
X01473Y0098D02*
X01463D01*
X01443Y01*
X01463Y0102*
X01473*
Y0098*
G37*
G36*
X01433Y01D02*
X01453Y0098D01*
X01423*
Y01*
Y0102*
X01453*
X01433Y01*
G37*
G36*
X01326D02*
Y0098D01*
X01296*
X01316Y01*
X01296Y0102*
X01326*
Y01*
G37*
G36*
X01301Y009D02*
Y0088D01*
X01271*
X01291Y009*
X01271Y0092*
X01301*
Y009*
G37*
G36*
X01456Y00825D02*
X01436Y00805D01*
X01426*
Y00845*
X01436*
X01456Y00825*
G37*
G36*
X01476Y00775D02*
Y00755D01*
X01446*
X01466Y00775*
X01446Y00795*
X01476*
Y00775*
G37*
G36*
X01456D02*
X01436Y00755D01*
X01426*
Y00795*
X01436*
X01456Y00775*
G37*
G36*
X01476Y00825D02*
Y00805D01*
X01446*
X01466Y00825*
X01446Y00845*
X01476*
Y00825*
G37*
G36*
X01281Y009D02*
X01261Y0088D01*
X01251*
Y0092*
X01261*
X01281Y009*
G37*
G36*
X01476Y00875D02*
Y00855D01*
X01446*
X01466Y00875*
X01446Y00895*
X01476*
Y00875*
G37*
G36*
X01456D02*
X01436Y00855D01*
X01426*
Y00895*
X01436*
X01456Y00875*
G37*
G36*
X00948Y00505D02*
X00938D01*
X00918Y00525*
X00938Y00545*
X00948*
Y00505*
G37*
G36*
X00481Y0035D02*
X00461Y0033D01*
X00451*
Y0037*
X00461*
X00481Y0035*
G37*
G36*
X01323Y0028D02*
X01313D01*
X01293Y003*
X01313Y0032*
X01323*
Y0028*
G37*
G36*
X01283Y003D02*
X01303Y0028D01*
X01273*
Y003*
Y0032*
X01303*
X01283Y003*
G37*
G36*
X00501Y0035D02*
Y0033D01*
X00471*
X00491Y0035*
X00471Y0037*
X00501*
Y0035*
G37*
G36*
X00908Y00375D02*
X00928Y00355D01*
X00898*
Y00375*
Y00395*
X00928*
X00908Y00375*
G37*
G36*
X01326Y0035D02*
Y0033D01*
X01296*
X01316Y0035*
X01296Y0037*
X01326*
Y0035*
G37*
G36*
X01306D02*
X01286Y0033D01*
X01276*
Y0037*
X01286*
X01306Y0035*
G37*
G36*
X00951Y003D02*
Y0028D01*
X00921*
X00941Y003*
X00921Y0032*
X00951*
Y003*
G37*
G36*
X01283Y0025D02*
X01303Y0023D01*
X01273*
Y0025*
Y0027*
X01303*
X01283Y0025*
G37*
G36*
X01323Y0018D02*
X01313D01*
X01293Y002*
X01313Y0022*
X01323*
Y0018*
G37*
G36*
X01283Y002D02*
X01303Y0018D01*
X01273*
Y002*
Y0022*
X01303*
X01283Y002*
G37*
G36*
X01323Y0023D02*
X01313D01*
X01293Y0025*
X01313Y0027*
X01323*
Y0023*
G37*
G36*
X00931Y003D02*
X00911Y0028D01*
X00901*
Y0032*
X00911*
X00931Y003*
G37*
G36*
X00501D02*
Y0028D01*
X00471*
X00491Y003*
X00471Y0032*
X00501*
Y003*
G37*
G36*
X00481D02*
X00461Y0028D01*
X00451*
Y0032*
X00461*
X00481Y003*
G37*
G36*
X00948Y00355D02*
X00938D01*
X00918Y00375*
X00938Y00395*
X00948*
Y00355*
G37*
G36*
X00931Y00475D02*
X00911Y00455D01*
X00901*
Y00495*
X00911*
X00931Y00475*
G37*
G36*
X00501D02*
Y00455D01*
X00471*
X00491Y00475*
X00471Y00495*
X00501*
Y00475*
G37*
G36*
X00481D02*
X00461Y00455D01*
X00451*
Y00495*
X00461*
X00481Y00475*
G37*
G36*
X00951D02*
Y00455D01*
X00921*
X00941Y00475*
X00921Y00495*
X00951*
Y00475*
G37*
G36*
X00908Y00525D02*
X00928Y00505D01*
X00898*
Y00525*
Y00545*
X00928*
X00908Y00525*
G37*
G36*
X00498Y00505D02*
X00488D01*
X00468Y00525*
X00488Y00545*
X00498*
Y00505*
G37*
G36*
X00458Y00525D02*
X00478Y00505D01*
X00448*
Y00525*
Y00545*
X00478*
X00458Y00525*
G37*
G36*
X01326Y0045D02*
Y0043D01*
X01296*
X01316Y0045*
X01296Y0047*
X01326*
Y0045*
G37*
G36*
X00481Y00425D02*
X00461Y00405D01*
X00451*
Y00445*
X00461*
X00481Y00425*
G37*
G36*
X01326Y004D02*
Y0038D01*
X01296*
X01316Y004*
X01296Y0042*
X01326*
Y004*
G37*
G36*
X01306D02*
X01286Y0038D01*
X01276*
Y0042*
X01286*
X01306Y004*
G37*
G36*
X00501Y00425D02*
Y00405D01*
X00471*
X00491Y00425*
X00471Y00445*
X00501*
Y00425*
G37*
G36*
X01306Y0045D02*
X01286Y0043D01*
X01276*
Y0047*
X01286*
X01306Y0045*
G37*
G36*
X00951Y00425D02*
Y00405D01*
X00921*
X00941Y00425*
X00921Y00445*
X00951*
Y00425*
G37*
G36*
X00931D02*
X00911Y00405D01*
X00901*
Y00445*
X00911*
X00931Y00425*
G37*
G36*
X01095Y02271D02*
X01075Y02291D01*
X01055Y02271*
Y02301*
X01095*
Y02271*
G37*
G36*
X01045D02*
X01025Y02291D01*
X01005Y02271*
Y02301*
X01045*
Y02271*
G37*
G36*
X01145Y02288D02*
X01125Y02268D01*
X01105Y02288*
Y02298*
X01145*
Y02288*
G37*
G36*
X01395Y02298D02*
X01355D01*
Y02328*
X01375Y02308*
X01395Y02328*
Y02298*
G37*
G36*
X00373Y0243D02*
X00363D01*
X00343Y0245*
X00363Y0247*
X00373*
Y0243*
G37*
G36*
X00333Y0245D02*
X00353Y0243D01*
X00323*
Y0245*
Y0247*
X00353*
X00333Y0245*
G37*
G36*
X01395Y02338D02*
X01375Y02318D01*
X01355Y02338*
Y02348*
X01395*
Y02338*
G37*
G36*
X00995Y02288D02*
X00975Y02268D01*
X00955Y02288*
Y02298*
X00995*
Y02288*
G37*
G36*
X00351Y0175D02*
Y0173D01*
X00321*
X00341Y0175*
X00321Y0177*
X00351*
Y0175*
G37*
G36*
X00331D02*
X00311Y0173D01*
X00301*
Y0177*
X00311*
X00331Y0175*
G37*
G36*
X01476Y013D02*
Y0128D01*
X01446*
X01466Y013*
X01446Y0132*
X01476*
Y013*
G37*
G36*
X01045Y02261D02*
Y02251D01*
X01005*
Y02261*
X01025Y02281*
X01045Y02261*
G37*
G36*
X01145Y02248D02*
X01105D01*
Y02278*
X01125Y02258*
X01145Y02278*
Y02248*
G37*
G36*
X00995D02*
X00955D01*
Y02278*
X00975Y02258*
X00995Y02278*
Y02248*
G37*
G36*
X01095Y02261D02*
Y02251D01*
X01055*
Y02261*
X01075Y02281*
X01095Y02261*
G37*
G36*
X00331Y0265D02*
X00311Y0263D01*
X00301*
Y0267*
X00311*
X00331Y0265*
G37*
G36*
X00601Y0285D02*
Y0283D01*
X00571*
X00591Y0285*
X00571Y0287*
X00601*
Y0285*
G37*
G36*
X00581D02*
X00561Y0283D01*
X00551*
Y0287*
X00561*
X00581Y0285*
G37*
G36*
X00351D02*
Y0283D01*
X00321*
X00341Y0285*
X00321Y0287*
X00351*
Y0285*
G37*
G36*
X00331Y0295D02*
X00311Y0293D01*
X00301*
Y0297*
X00311*
X00331Y0295*
G37*
G36*
X00601D02*
Y0293D01*
X00571*
X00591Y0295*
X00571Y0297*
X00601*
Y0295*
G37*
G36*
X00581D02*
X00561Y0293D01*
X00551*
Y0297*
X00561*
X00581Y0295*
G37*
G36*
X00351D02*
Y0293D01*
X00321*
X00341Y0295*
X00321Y0297*
X00351*
Y0295*
G37*
G36*
X00331Y0285D02*
X00311Y0283D01*
X00301*
Y0287*
X00311*
X00331Y0285*
G37*
G36*
X00601Y0265D02*
Y0263D01*
X00571*
X00591Y0265*
X00571Y0267*
X00601*
Y0265*
G37*
G36*
X00581D02*
X00561Y0263D01*
X00551*
Y0267*
X00561*
X00581Y0265*
G37*
G36*
X00351D02*
Y0263D01*
X00321*
X00341Y0265*
X00321Y0267*
X00351*
Y0265*
G37*
G36*
X00331Y0275D02*
X00311Y0273D01*
X00301*
Y0277*
X00311*
X00331Y0275*
G37*
G36*
X00601D02*
Y0273D01*
X00571*
X00591Y0275*
X00571Y0277*
X00601*
Y0275*
G37*
G36*
X00581D02*
X00561Y0273D01*
X00551*
Y0277*
X00561*
X00581Y0275*
G37*
G36*
X00351D02*
Y0273D01*
X00321*
X00341Y0275*
X00321Y0277*
X00351*
Y0275*
G37*
G36*
X01456Y013D02*
X01436Y0128D01*
X01426*
Y0132*
X01436*
X01456Y013*
G37*
G36*
X01326Y0115D02*
Y0113D01*
X01296*
X01316Y0115*
X01296Y0117*
X01326*
Y0115*
G37*
G36*
X01306D02*
X01286Y0113D01*
X01276*
Y0117*
X01286*
X01306Y0115*
G37*
G36*
X01476Y011D02*
Y0108D01*
X01446*
X01466Y011*
X01446Y0112*
X01476*
Y011*
G37*
G36*
X01433Y0115D02*
X01453Y0113D01*
X01423*
Y0115*
Y0117*
X01453*
X01433Y0115*
G37*
G36*
X00795Y01161D02*
Y01151D01*
X00755*
Y01161*
X00775Y01181*
X00795Y01161*
G37*
G36*
X00745D02*
Y01151D01*
X00705*
Y01161*
X00725Y01181*
X00745Y01161*
G37*
G36*
X01473Y0113D02*
X01463D01*
X01443Y0115*
X01463Y0117*
X01473*
Y0113*
G37*
G36*
X01456Y011D02*
X01436Y0108D01*
X01426*
Y0112*
X01436*
X01456Y011*
G37*
G36*
X01326Y0105D02*
Y0103D01*
X01296*
X01316Y0105*
X01296Y0107*
X01326*
Y0105*
G37*
G36*
X01306D02*
X01286Y0103D01*
X01276*
Y0107*
X01286*
X01306Y0105*
G37*
G36*
X0112Y00996D02*
X011Y01016D01*
X0108Y00996*
Y01026*
X0112*
Y00996*
G37*
G36*
X01433Y0105D02*
X01453Y0103D01*
X01423*
Y0105*
Y0107*
X01453*
X01433Y0105*
G37*
G36*
X01326Y011D02*
Y0108D01*
X01296*
X01316Y011*
X01296Y0112*
X01326*
Y011*
G37*
G36*
X01306D02*
X01286Y0108D01*
X01276*
Y0112*
X01286*
X01306Y011*
G37*
G36*
X01473Y0103D02*
X01463D01*
X01443Y0105*
X01463Y0107*
X01473*
Y0103*
G37*
G36*
X00645Y01148D02*
X00605D01*
Y01178*
X00625Y01158*
X00645Y01178*
Y01148*
G37*
G36*
X01326Y0125D02*
Y0123D01*
X01296*
X01316Y0125*
X01296Y0127*
X01326*
Y0125*
G37*
G36*
X01306D02*
X01286Y0123D01*
X01276*
Y0127*
X01286*
X01306Y0125*
G37*
G36*
X01476Y012D02*
Y0118D01*
X01446*
X01466Y012*
X01446Y0122*
X01476*
Y012*
G37*
G36*
X01433Y0125D02*
X01453Y0123D01*
X01423*
Y0125*
Y0127*
X01453*
X01433Y0125*
G37*
G36*
X01326Y013D02*
Y0128D01*
X01296*
X01316Y013*
X01296Y0132*
X01326*
Y013*
G37*
G36*
X01306D02*
X01286Y0128D01*
X01276*
Y0132*
X01286*
X01306Y013*
G37*
G36*
X01473Y0123D02*
X01463D01*
X01443Y0125*
X01463Y0127*
X01473*
Y0123*
G37*
G36*
X01456Y012D02*
X01436Y0118D01*
X01426*
Y0122*
X01436*
X01456Y012*
G37*
G36*
X00695Y01188D02*
X00675Y01168D01*
X00655Y01188*
Y01198*
X00695*
Y01188*
G37*
G36*
X00645D02*
X00625Y01168D01*
X00605Y01188*
Y01198*
X00645*
Y01188*
G37*
G36*
X00695Y01148D02*
X00655D01*
Y01178*
X00675Y01158*
X00695Y01178*
Y01148*
G37*
G36*
X00745Y01171D02*
X00725Y01191D01*
X00705Y01171*
Y01201*
X00745*
Y01171*
G37*
G36*
X01326Y012D02*
Y0118D01*
X01296*
X01316Y012*
X01296Y0122*
X01326*
Y012*
G37*
G36*
X01306D02*
X01286Y0118D01*
X01276*
Y0122*
X01286*
X01306Y012*
G37*
G36*
X00795Y01171D02*
X00775Y01191D01*
X00755Y01171*
Y01201*
X00795*
Y01171*
G37*
G54D26*
X01375Y02291D03*
Y02358D03*
X00725Y01141D03*
Y01208D03*
X00775Y01141D03*
Y01208D03*
X00675D03*
Y01141D03*
X00625Y01208D03*
Y01141D03*
X008Y00491D03*
Y00558D03*
X01075Y02241D03*
Y02308D03*
X01025Y02241D03*
Y02308D03*
X01125D03*
Y02241D03*
X00975D03*
Y02308D03*
X011Y00966D03*
Y01033D03*
G54D40*
X0032Y02085D02*
D01*
X00318Y02084*
X00317Y02084*
X00315Y02084*
X00314Y02084*
X00313Y02083*
X00312Y02083*
X0031Y02082*
X00309Y02082*
X00308Y02081*
X00307Y0208*
X00306Y02079*
X00305Y02078*
X00304Y02077*
X00303Y02076*
X00303Y02075*
X00302Y02073*
X00301Y02072*
X00301Y02071*
X003Y0207*
X003Y02068*
X003Y02067*
X003Y02066*
Y02064*
X003Y02063*
X003Y02061*
X003Y0206*
X00301Y02059*
X00301Y02057*
X00302Y02056*
X00303Y02055*
X00303Y02054*
X00304Y02053*
X00305Y02052*
X00306Y02051*
X00307Y0205*
X00308Y02049*
X00309Y02048*
X0031Y02047*
X00312Y02047*
X00313Y02046*
X00314Y02046*
X00315Y02046*
X00317Y02045*
X00318Y02045*
X0032Y02045*
X0125Y02085D02*
D01*
X01248Y02084*
X01247Y02084*
X01245Y02084*
X01244Y02084*
X01243Y02083*
X01241Y02083*
X0124Y02082*
X01239Y02082*
X01238Y02081*
X01237Y0208*
X01236Y02079*
X01235Y02078*
X01234Y02077*
X01233Y02076*
X01232Y02075*
X01232Y02073*
X01231Y02072*
X01231Y02071*
X0123Y0207*
X0123Y02068*
X0123Y02067*
X0123Y02066*
Y02064*
X0123Y02063*
X0123Y02061*
X0123Y0206*
X01231Y02059*
X01231Y02057*
X01232Y02056*
X01232Y02055*
X01233Y02054*
X01234Y02053*
X01235Y02052*
X01236Y02051*
X01237Y0205*
X01238Y02049*
X01239Y02048*
X0124Y02047*
X01241Y02047*
X01243Y02046*
X01244Y02046*
X01245Y02046*
X01247Y02045*
X01248Y02045*
X0125Y02045*
X01538D02*
D01*
X01539Y02045*
X01541Y02045*
X01542Y02046*
X01544Y02046*
X01545Y02046*
X01546Y02047*
X01547Y02047*
X01549Y02048*
X0155Y02049*
X01551Y0205*
X01552Y02051*
X01553Y02052*
X01554Y02053*
X01554Y02054*
X01555Y02055*
X01556Y02056*
X01556Y02057*
X01557Y02059*
X01557Y0206*
X01557Y02061*
X01558Y02063*
X01558Y02064*
Y02066*
X01558Y02067*
X01557Y02068*
X01557Y0207*
X01557Y02071*
X01556Y02072*
X01556Y02073*
X01555Y02075*
X01554Y02076*
X01554Y02077*
X01553Y02078*
X01552Y02079*
X01551Y0208*
X0155Y02081*
X01549Y02082*
X01547Y02082*
X01546Y02083*
X01545Y02083*
X01544Y02084*
X01542Y02084*
X01541Y02084*
X01539Y02085*
X01538Y02085*
X01698D02*
D01*
X01696Y02084*
X01695Y02084*
X01693Y02084*
X01692Y02084*
X01691Y02083*
X0169Y02083*
X01688Y02082*
X01687Y02082*
X01686Y02081*
X01685Y0208*
X01684Y02079*
X01683Y02078*
X01682Y02077*
X01681Y02076*
X0168Y02075*
X0168Y02073*
X01679Y02072*
X01679Y02071*
X01678Y0207*
X01678Y02068*
X01678Y02067*
X01678Y02066*
Y02064*
X01678Y02063*
X01678Y02061*
X01678Y0206*
X01679Y02059*
X01679Y02057*
X0168Y02056*
X0168Y02055*
X01681Y02054*
X01682Y02053*
X01683Y02052*
X01684Y02051*
X01685Y0205*
X01686Y02049*
X01687Y02048*
X01688Y02047*
X0169Y02047*
X01691Y02046*
X01692Y02046*
X01693Y02046*
X01695Y02045*
X01696Y02045*
X01698Y02045*
X00182D02*
D01*
X00183Y02045*
X00185Y02045*
X00186Y02046*
X00187Y02046*
X00189Y02046*
X0019Y02047*
X00191Y02047*
X00192Y02048*
X00193Y02049*
X00194Y0205*
X00195Y02051*
X00196Y02052*
X00197Y02053*
X00198Y02054*
X00199Y02055*
X00199Y02056*
X002Y02057*
X00201Y02059*
X00201Y0206*
X00201Y02061*
X00201Y02063*
X00201Y02064*
Y02066*
X00201Y02067*
X00201Y02068*
X00201Y0207*
X00201Y02071*
X002Y02072*
X00199Y02073*
X00199Y02075*
X00198Y02076*
X00197Y02077*
X00196Y02078*
X00195Y02079*
X00194Y0208*
X00193Y02081*
X00192Y02082*
X00191Y02082*
X0019Y02083*
X00189Y02083*
X00187Y02084*
X00186Y02084*
X00185Y02084*
X00183Y02085*
X00182Y02085*
X01068Y02045D02*
D01*
X01069Y02045*
X0107Y02045*
X01072Y02046*
X01073Y02046*
X01074Y02046*
X01076Y02047*
X01077Y02047*
X01078Y02048*
X01079Y02049*
X0108Y0205*
X01081Y02051*
X01082Y02052*
X01083Y02053*
X01084Y02054*
X01085Y02055*
X01085Y02056*
X01086Y02057*
X01086Y02059*
X01087Y0206*
X01087Y02061*
X01087Y02063*
X01087Y02064*
Y02066*
X01087Y02067*
X01087Y02068*
X01087Y0207*
X01086Y02071*
X01086Y02072*
X01085Y02073*
X01085Y02075*
X01084Y02076*
X01083Y02077*
X01082Y02078*
X01081Y02079*
X0108Y0208*
X01079Y02081*
X01078Y02082*
X01077Y02082*
X01076Y02083*
X01074Y02083*
X01073Y02084*
X01072Y02084*
X0107Y02084*
X01069Y02085*
X01068Y02085*
X-00349Y03049D02*
D01*
X-00354Y03049*
X-0036Y03048*
X-00365Y03047*
X-0037Y03046*
X-00376Y03044*
X-00381Y03042*
X-00386Y0304*
X-0039Y03037*
X-00395Y03034*
X-00399Y03031*
X-00403Y03027*
X-00407Y03023*
X-00411Y03019*
X-00414Y03014*
X-00417Y0301*
X-00419Y03005*
X-00422Y03*
X-00424Y02995*
X-00425Y02989*
X-00426Y02984*
X-00427Y02979*
X-00427Y02973*
X-00427Y0297*
Y-0004D02*
D01*
X-00427Y-00046*
X-00427Y-00051*
X-00426Y-00057*
X-00424Y-00062*
X-00423Y-00067*
X-00421Y-00072*
X-00418Y-00077*
X-00415Y-00082*
X-00412Y-00087*
X-00409Y-00091*
X-00405Y-00095*
X-00401Y-00099*
X-00397Y-00102*
X-00393Y-00106*
X-00388Y-00109*
X-00383Y-00111*
X-00378Y-00113*
X-00373Y-00115*
X-00368Y-00117*
X-00362Y-00118*
X-00357Y-00119*
X-00351Y-00119*
X-00349Y-00119*
X02327Y0297D02*
D01*
X02327Y02976*
X02327Y02981*
X02326Y02987*
X02324Y02992*
X02323Y02997*
X02321Y03002*
X02318Y03007*
X02315Y03012*
X02312Y03017*
X02309Y03021*
X02305Y03025*
X02301Y03029*
X02297Y03032*
X02293Y03036*
X02288Y03039*
X02283Y03041*
X02278Y03043*
X02273Y03045*
X02268Y03047*
X02262Y03048*
X02257Y03049*
X02251Y03049*
X02249Y03049*
Y-00119D02*
D01*
X02254Y-00119*
X0226Y-00118*
X02265Y-00117*
X0227Y-00116*
X02276Y-00114*
X02281Y-00112*
X02286Y-0011*
X0229Y-00107*
X02295Y-00104*
X02299Y-00101*
X02303Y-00097*
X02307Y-00093*
X02311Y-00089*
X02314Y-00084*
X02317Y-0008*
X02319Y-00075*
X02322Y-0007*
X02324Y-00065*
X02325Y-00059*
X02326Y-00054*
X02327Y-00049*
X02327Y-00043*
X02327Y-0004*
X01402Y-00198D02*
X01481Y-00119D01*
X01402Y-00198D02*
D01*
X00103D02*
X01402D01*
X00024Y-00119D02*
X00103Y-00198D01*
X00019Y-00119D02*
X00024D01*
X0148D02*
X02249D01*
X0125Y02045D02*
X01538D01*
X0125Y02085D02*
X01538D01*
X-00349Y03049D02*
X02249D01*
X-00349Y-00119D02*
X00019D01*
X-00427Y02085D02*
X00182D01*
X-00427Y02045D02*
X00182D01*
X0032D02*
X01068D01*
X0032Y02085D02*
X01068D01*
X01698Y02045D02*
X02327D01*
X01698Y02085D02*
X02327D01*
X-00427Y-0004D02*
Y02045D01*
Y02085D02*
Y0297D01*
X02327Y-0004D02*
Y02045D01*
Y02085D02*
Y0297D01*
G54D44*
X-0008Y03239D02*
Y0318D01*
Y03239D02*
X-00057Y0318D01*
X-00034Y03239D02*
X-00057Y0318D01*
X-00034Y03239D02*
Y0318D01*
X-00017Y03239D02*
Y0318D01*
Y03239D02*
X00008D01*
X00017Y03237*
X00019Y03234*
X00022Y03228*
Y03222*
X00019Y03217*
X00017Y03214*
X00008Y03211*
X-00017D02*
X00008D01*
X00017Y03208*
X00019Y03205*
X00022Y032*
Y03191*
X00019Y03185*
X00017Y03182*
X00008Y0318*
X-00017*
X00036Y03228D02*
X00041Y03231D01*
X0005Y03239*
Y0318*
X0008Y03228D02*
X00085Y03231D01*
X00094Y03239*
Y0318*
X00129Y03239D02*
X00161D01*
X00144Y03217*
X00152*
X00158Y03214*
X00161Y03211*
X00164Y03202*
Y03197*
X00161Y03188*
X00155Y03182*
X00147Y0318*
X00138*
X00129Y03182*
X00127Y03185*
X00124Y03191*
X00211Y03231D02*
X00209Y03237D01*
X002Y03239*
X00194*
X00186Y03237*
X0018Y03228*
X00177Y03214*
Y032*
X0018Y03188*
X00186Y03182*
X00194Y0318*
X00197*
X00206Y03182*
X00211Y03188*
X00214Y03197*
Y032*
X00211Y03208*
X00206Y03214*
X00197Y03217*
X00194*
X00186Y03214*
X0018Y03208*
X00177Y032*
X0027Y03225D02*
X00267Y03231D01*
X00262Y03237*
X00256Y03239*
X00245*
X00239Y03237*
X00233Y03231*
X0023Y03225*
X00227Y03217*
Y03202*
X0023Y03194*
X00233Y03188*
X00239Y03182*
X00245Y0318*
X00256*
X00262Y03182*
X00267Y03188*
X0027Y03194*
G54D54*
X01308Y00775D03*
X01241D03*
X01308Y00725D03*
X01241D03*
X01416Y00825D03*
X01483D03*
X01416Y011D03*
X01483D03*
Y0125D03*
X01416D03*
Y00875D03*
X01483D03*
Y00675D03*
X01416D03*
X01483Y0115D03*
X01416D03*
Y00775D03*
X01483D03*
Y01D03*
X01416D03*
Y00925D03*
X01483D03*
Y0105D03*
X01416D03*
Y00725D03*
X01483D03*
X01416Y012D03*
X01483D03*
X00891Y00575D03*
X00958D03*
Y00475D03*
X00891D03*
Y00525D03*
X00958D03*
Y00425D03*
X00891D03*
X00441Y00525D03*
X00508D03*
Y003D03*
X00441D03*
X00508Y0035D03*
X00441D03*
X00508Y00425D03*
X00441D03*
X00508Y00475D03*
X00441D03*
X01266Y0045D03*
X01333D03*
X01266Y004D03*
X01333D03*
X01266Y0035D03*
X01333D03*
X01241Y009D03*
X01308D03*
X01266Y013D03*
X01333D03*
X01266Y0125D03*
X01333D03*
X01266Y012D03*
X01333D03*
X01266Y0115D03*
X01333D03*
X01266Y011D03*
X01333D03*
X00291Y0175D03*
X00358D03*
X01266Y0105D03*
X01333D03*
X01266Y01D03*
X01333D03*
Y0025D03*
X01266D03*
X01333Y003D03*
X01266D03*
X01333Y002D03*
X01266D03*
X00316Y0245D03*
X00383D03*
X00541Y0265D03*
X00608D03*
X00291D03*
X00358D03*
X00608Y0275D03*
X00541D03*
X00291D03*
X00358D03*
X00608Y0285D03*
X00541D03*
X00291D03*
X00358D03*
X00608Y0295D03*
X00541D03*
X00291D03*
X00358D03*
X01333Y00625D03*
X01266D03*
X01333Y00575D03*
X01266D03*
X01416Y013D03*
X01483D03*
X00958Y00375D03*
X00891D03*
Y003D03*
X00958D03*
M02*