%FSTAX23Y23*%
%MOIN*%
%SFA1B1*%

%IPPOS*%
%ADD40C,0.005000*%
%ADD41C,0.008000*%
%ADD44C,0.010000*%
%ADD58C,0.006000*%
%ADD104C,0.006670*%
%ADD105C,0.002000*%
%ADD106C,0.004000*%
%ADD107C,0.005330*%
%LNmb1136-1*%
%LPD*%
G54D40*
X0032Y02085D02*
D01*
X00318Y02084*
X00317Y02084*
X00315Y02084*
X00314Y02084*
X00313Y02083*
X00312Y02083*
X0031Y02082*
X00309Y02082*
X00308Y02081*
X00307Y0208*
X00306Y02079*
X00305Y02078*
X00304Y02077*
X00303Y02076*
X00303Y02075*
X00302Y02073*
X00301Y02072*
X00301Y02071*
X003Y0207*
X003Y02068*
X003Y02067*
X003Y02066*
Y02064*
X003Y02063*
X003Y02061*
X003Y0206*
X00301Y02059*
X00301Y02057*
X00302Y02056*
X00303Y02055*
X00303Y02054*
X00304Y02053*
X00305Y02052*
X00306Y02051*
X00307Y0205*
X00308Y02049*
X00309Y02048*
X0031Y02047*
X00312Y02047*
X00313Y02046*
X00314Y02046*
X00315Y02046*
X00317Y02045*
X00318Y02045*
X0032Y02045*
X0125Y02085D02*
D01*
X01248Y02084*
X01247Y02084*
X01245Y02084*
X01244Y02084*
X01243Y02083*
X01241Y02083*
X0124Y02082*
X01239Y02082*
X01238Y02081*
X01237Y0208*
X01236Y02079*
X01235Y02078*
X01234Y02077*
X01233Y02076*
X01232Y02075*
X01232Y02073*
X01231Y02072*
X01231Y02071*
X0123Y0207*
X0123Y02068*
X0123Y02067*
X0123Y02066*
Y02064*
X0123Y02063*
X0123Y02061*
X0123Y0206*
X01231Y02059*
X01231Y02057*
X01232Y02056*
X01232Y02055*
X01233Y02054*
X01234Y02053*
X01235Y02052*
X01236Y02051*
X01237Y0205*
X01238Y02049*
X01239Y02048*
X0124Y02047*
X01241Y02047*
X01243Y02046*
X01244Y02046*
X01245Y02046*
X01247Y02045*
X01248Y02045*
X0125Y02045*
X01538D02*
D01*
X01539Y02045*
X01541Y02045*
X01542Y02046*
X01544Y02046*
X01545Y02046*
X01546Y02047*
X01547Y02047*
X01549Y02048*
X0155Y02049*
X01551Y0205*
X01552Y02051*
X01553Y02052*
X01554Y02053*
X01554Y02054*
X01555Y02055*
X01556Y02056*
X01556Y02057*
X01557Y02059*
X01557Y0206*
X01557Y02061*
X01558Y02063*
X01558Y02064*
Y02066*
X01558Y02067*
X01557Y02068*
X01557Y0207*
X01557Y02071*
X01556Y02072*
X01556Y02073*
X01555Y02075*
X01554Y02076*
X01554Y02077*
X01553Y02078*
X01552Y02079*
X01551Y0208*
X0155Y02081*
X01549Y02082*
X01547Y02082*
X01546Y02083*
X01545Y02083*
X01544Y02084*
X01542Y02084*
X01541Y02084*
X01539Y02085*
X01538Y02085*
X01698D02*
D01*
X01696Y02084*
X01695Y02084*
X01693Y02084*
X01692Y02084*
X01691Y02083*
X0169Y02083*
X01688Y02082*
X01687Y02082*
X01686Y02081*
X01685Y0208*
X01684Y02079*
X01683Y02078*
X01682Y02077*
X01681Y02076*
X0168Y02075*
X0168Y02073*
X01679Y02072*
X01679Y02071*
X01678Y0207*
X01678Y02068*
X01678Y02067*
X01678Y02066*
Y02064*
X01678Y02063*
X01678Y02061*
X01678Y0206*
X01679Y02059*
X01679Y02057*
X0168Y02056*
X0168Y02055*
X01681Y02054*
X01682Y02053*
X01683Y02052*
X01684Y02051*
X01685Y0205*
X01686Y02049*
X01687Y02048*
X01688Y02047*
X0169Y02047*
X01691Y02046*
X01692Y02046*
X01693Y02046*
X01695Y02045*
X01696Y02045*
X01698Y02045*
X00182D02*
D01*
X00183Y02045*
X00185Y02045*
X00186Y02046*
X00187Y02046*
X00189Y02046*
X0019Y02047*
X00191Y02047*
X00192Y02048*
X00193Y02049*
X00194Y0205*
X00195Y02051*
X00196Y02052*
X00197Y02053*
X00198Y02054*
X00199Y02055*
X00199Y02056*
X002Y02057*
X00201Y02059*
X00201Y0206*
X00201Y02061*
X00201Y02063*
X00201Y02064*
Y02066*
X00201Y02067*
X00201Y02068*
X00201Y0207*
X00201Y02071*
X002Y02072*
X00199Y02073*
X00199Y02075*
X00198Y02076*
X00197Y02077*
X00196Y02078*
X00195Y02079*
X00194Y0208*
X00193Y02081*
X00192Y02082*
X00191Y02082*
X0019Y02083*
X00189Y02083*
X00187Y02084*
X00186Y02084*
X00185Y02084*
X00183Y02085*
X00182Y02085*
X01068Y02045D02*
D01*
X01069Y02045*
X0107Y02045*
X01072Y02046*
X01073Y02046*
X01074Y02046*
X01076Y02047*
X01077Y02047*
X01078Y02048*
X01079Y02049*
X0108Y0205*
X01081Y02051*
X01082Y02052*
X01083Y02053*
X01084Y02054*
X01085Y02055*
X01085Y02056*
X01086Y02057*
X01086Y02059*
X01087Y0206*
X01087Y02061*
X01087Y02063*
X01087Y02064*
Y02066*
X01087Y02067*
X01087Y02068*
X01087Y0207*
X01086Y02071*
X01086Y02072*
X01085Y02073*
X01085Y02075*
X01084Y02076*
X01083Y02077*
X01082Y02078*
X01081Y02079*
X0108Y0208*
X01079Y02081*
X01078Y02082*
X01077Y02082*
X01076Y02083*
X01074Y02083*
X01073Y02084*
X01072Y02084*
X0107Y02084*
X01069Y02085*
X01068Y02085*
X-00349Y03049D02*
D01*
X-00354Y03049*
X-0036Y03048*
X-00365Y03047*
X-0037Y03046*
X-00376Y03044*
X-00381Y03042*
X-00386Y0304*
X-0039Y03037*
X-00395Y03034*
X-00399Y03031*
X-00403Y03027*
X-00407Y03023*
X-00411Y03019*
X-00414Y03014*
X-00417Y0301*
X-00419Y03005*
X-00422Y03*
X-00424Y02995*
X-00425Y02989*
X-00426Y02984*
X-00427Y02979*
X-00427Y02973*
X-00427Y0297*
Y-0004D02*
D01*
X-00427Y-00046*
X-00427Y-00051*
X-00426Y-00057*
X-00424Y-00062*
X-00423Y-00067*
X-00421Y-00072*
X-00418Y-00077*
X-00415Y-00082*
X-00412Y-00087*
X-00409Y-00091*
X-00405Y-00095*
X-00401Y-00099*
X-00397Y-00102*
X-00393Y-00106*
X-00388Y-00109*
X-00383Y-00111*
X-00378Y-00113*
X-00373Y-00115*
X-00368Y-00117*
X-00362Y-00118*
X-00357Y-00119*
X-00351Y-00119*
X-00349Y-00119*
X02327Y0297D02*
D01*
X02327Y02976*
X02327Y02981*
X02326Y02987*
X02324Y02992*
X02323Y02997*
X02321Y03002*
X02318Y03007*
X02315Y03012*
X02312Y03017*
X02309Y03021*
X02305Y03025*
X02301Y03029*
X02297Y03032*
X02293Y03036*
X02288Y03039*
X02283Y03041*
X02278Y03043*
X02273Y03045*
X02268Y03047*
X02262Y03048*
X02257Y03049*
X02251Y03049*
X02249Y03049*
Y-00119D02*
D01*
X02254Y-00119*
X0226Y-00118*
X02265Y-00117*
X0227Y-00116*
X02276Y-00114*
X02281Y-00112*
X02286Y-0011*
X0229Y-00107*
X02295Y-00104*
X02299Y-00101*
X02303Y-00097*
X02307Y-00093*
X02311Y-00089*
X02314Y-00084*
X02317Y-0008*
X02319Y-00075*
X02322Y-0007*
X02324Y-00065*
X02325Y-00059*
X02326Y-00054*
X02327Y-00049*
X02327Y-00043*
X02327Y-0004*
X01402Y-00198D02*
X01481Y-00119D01*
X01402Y-00198D02*
D01*
X00103D02*
X01402D01*
X00024Y-00119D02*
X00103Y-00198D01*
X00019Y-00119D02*
X00024D01*
X0148D02*
X02249D01*
X0125Y02045D02*
X01538D01*
X0125Y02085D02*
X01538D01*
X-00349Y03049D02*
X02249D01*
X-00349Y-00119D02*
X00019D01*
X-00427Y02085D02*
X00182D01*
X-00427Y02045D02*
X00182D01*
X0032D02*
X01068D01*
X0032Y02085D02*
X01068D01*
X01698Y02045D02*
X02327D01*
X01698Y02085D02*
X02327D01*
X-00427Y-0004D02*
Y02045D01*
Y02085D02*
Y0297D01*
X02327Y-0004D02*
Y02045D01*
Y02085D02*
Y0297D01*
X0043Y0263D02*
Y0267D01*
X0047*
Y0263*
X0043*
Y0273D02*
Y0277D01*
X0047*
Y0273*
X0043*
Y0283D02*
Y0287D01*
X0047*
Y0283*
X0043*
Y0293D02*
Y0297D01*
X0047*
Y0293*
X0043*
X-0012Y0248D02*
Y0252D01*
X-0008*
Y0248*
X-0012*
Y0228D02*
Y0232D01*
X-0008*
Y0228*
X-0012*
Y0258D02*
Y0262D01*
X-0008*
Y0258*
X-0012*
Y0268D02*
Y0272D01*
X-0008*
Y0268*
X-0012*
Y0238D02*
Y0242D01*
X-0008*
Y0238*
X-0012*
Y0218D02*
Y0222D01*
X-0008*
Y0218*
X-0012*
X-0002Y-0002D02*
Y0002D01*
X0002*
Y-0002*
X-0002*
Y0018D02*
Y0022D01*
X0002*
Y0018*
X-0002*
Y0008D02*
Y0012D01*
X0002*
Y0008*
X-0002*
Y0038D02*
Y0042D01*
X0002*
Y0038*
X-0002*
Y0048D02*
Y0052D01*
X0002*
Y0048*
X-0002*
Y0028D02*
Y0032D01*
X0002*
Y0028*
X-0002*
Y0118D02*
Y0122D01*
X0002*
Y0118*
X-0002*
Y0138D02*
Y0142D01*
X0002*
Y0138*
X-0002*
Y0068D02*
Y0072D01*
X0002*
Y0068*
X-0002*
Y0078D02*
Y0082D01*
X0002*
Y0078*
X-0002*
Y0088D02*
Y0092D01*
X0002*
Y0088*
X-0002*
Y0098D02*
Y0102D01*
X0002*
Y0098*
X-0002*
Y0128D02*
Y0132D01*
X0002*
Y0128*
X-0002*
Y0108D02*
Y0112D01*
X0002*
Y0108*
X-0002*
X0188Y0028D02*
Y0032D01*
X0192*
Y0028*
X0188*
Y0008D02*
Y0012D01*
X0192*
Y0008*
X0188*
Y0038D02*
Y0042D01*
X0192*
Y0038*
X0188*
Y0048D02*
Y0052D01*
X0192*
Y0048*
X0188*
Y0058D02*
Y0062D01*
X0192*
Y0058*
X0188*
Y0068D02*
Y0072D01*
X0192*
Y0068*
X0188*
Y-0002D02*
Y0002D01*
X0192*
Y-0002*
X0188*
Y0018D02*
Y0022D01*
X0192*
Y0018*
X0188*
Y0084D02*
Y0088D01*
X0192*
Y0084*
X0188*
Y0094D02*
Y0098D01*
X0192*
Y0094*
X0188*
Y0104D02*
Y0108D01*
X0192*
Y0104*
X0188*
Y0114D02*
Y0118D01*
X0192*
Y0114*
X0188*
Y0124D02*
Y0128D01*
X0192*
Y0124*
X0188*
Y0154D02*
Y0158D01*
X0192*
Y0154*
X0188*
Y0134D02*
Y0138D01*
X0192*
Y0134*
X0188*
Y0174D02*
Y0178D01*
X0192*
Y0174*
X0188*
Y0164D02*
Y0168D01*
X0192*
Y0164*
X0188*
Y0144D02*
Y0148D01*
X0192*
Y0144*
X0188*
X-0022Y0178D02*
Y0182D01*
X-0018*
Y0178*
X-0022*
Y0058D02*
Y0062D01*
X-0018*
Y0058*
X-0022*
Y0068D02*
Y0072D01*
X-0018*
Y0068*
X-0022*
Y0078D02*
Y0082D01*
X-0018*
Y0078*
X-0022*
Y0098D02*
Y0102D01*
X-0018*
Y0098*
X-0022*
Y0108D02*
Y0112D01*
X-0018*
Y0108*
X-0022*
Y0118D02*
Y0122D01*
X-0018*
Y0118*
X-0022*
Y0128D02*
Y0132D01*
X-0018*
Y0128*
X-0022*
Y0138D02*
Y0142D01*
X-0018*
Y0138*
X-0022*
Y0148D02*
Y0152D01*
X-0018*
Y0148*
X-0022*
Y0018D02*
Y0022D01*
X-0018*
Y0018*
X-0022*
Y-0002D02*
Y0002D01*
X-0018*
Y-0002*
X-0022*
Y0008D02*
Y0012D01*
X-0018*
Y0008*
X-0022*
Y0158D02*
Y0162D01*
X-0018*
Y0158*
X-0022*
Y0168D02*
Y0172D01*
X-0018*
Y0168*
X-0022*
Y0048D02*
Y0052D01*
X-0018*
Y0048*
X-0022*
Y0028D02*
Y0032D01*
X-0018*
Y0028*
X-0022*
Y0038D02*
Y0042D01*
X-0018*
Y0038*
X-0022*
Y0088D02*
Y0092D01*
X-0018*
Y0088*
X-0022*
X-0032D02*
Y0092D01*
X-0028*
Y0088*
X-0032*
Y0038D02*
Y0042D01*
X-0028*
Y0038*
X-0032*
Y0028D02*
Y0032D01*
X-0028*
Y0028*
X-0032*
Y0048D02*
Y0052D01*
X-0028*
Y0048*
X-0032*
Y0178D02*
Y0182D01*
X-0028*
Y0178*
X-0032*
Y0168D02*
Y0172D01*
X-0028*
Y0168*
X-0032*
Y0158D02*
Y0162D01*
X-0028*
Y0158*
X-0032*
Y0008D02*
Y0012D01*
X-0028*
Y0008*
X-0032*
Y-0002D02*
Y0002D01*
X-0028*
Y-0002*
X-0032*
Y0018D02*
Y0022D01*
X-0028*
Y0018*
X-0032*
Y0148D02*
Y0152D01*
X-0028*
Y0148*
X-0032*
Y0138D02*
Y0142D01*
X-0028*
Y0138*
X-0032*
Y0128D02*
Y0132D01*
X-0028*
Y0128*
X-0032*
Y0118D02*
Y0122D01*
X-0028*
Y0118*
X-0032*
Y0108D02*
Y0112D01*
X-0028*
Y0108*
X-0032*
Y0098D02*
Y0102D01*
X-0028*
Y0098*
X-0032*
Y0078D02*
Y0082D01*
X-0028*
Y0078*
X-0032*
Y0068D02*
Y0072D01*
X-0028*
Y0068*
X-0032*
Y0058D02*
Y0062D01*
X-0028*
Y0058*
X-0032*
X0208D02*
Y0062D01*
X0212*
Y0058*
X0208*
Y0068D02*
Y0072D01*
X0212*
Y0068*
X0208*
Y0078D02*
Y0082D01*
X0212*
Y0078*
X0208*
Y0098D02*
Y0102D01*
X0212*
Y0098*
X0208*
Y0108D02*
Y0112D01*
X0212*
Y0108*
X0208*
Y0118D02*
Y0122D01*
X0212*
Y0118*
X0208*
Y0128D02*
Y0132D01*
X0212*
Y0128*
X0208*
Y0138D02*
Y0142D01*
X0212*
Y0138*
X0208*
Y0148D02*
Y0152D01*
X0212*
Y0148*
X0208*
Y0018D02*
Y0022D01*
X0212*
Y0018*
X0208*
Y-0002D02*
Y0002D01*
X0212*
Y-0002*
X0208*
Y0008D02*
Y0012D01*
X0212*
Y0008*
X0208*
Y0158D02*
Y0162D01*
X0212*
Y0158*
X0208*
Y0168D02*
Y0172D01*
X0212*
Y0168*
X0208*
Y0178D02*
Y0182D01*
X0212*
Y0178*
X0208*
Y0048D02*
Y0052D01*
X0212*
Y0048*
X0208*
Y0028D02*
Y0032D01*
X0212*
Y0028*
X0208*
Y0038D02*
Y0042D01*
X0212*
Y0038*
X0208*
Y0088D02*
Y0092D01*
X0212*
Y0088*
X0208*
X0218D02*
Y0092D01*
X0222*
Y0088*
X0218*
Y0038D02*
Y0042D01*
X0222*
Y0038*
X0218*
Y0028D02*
Y0032D01*
X0222*
Y0028*
X0218*
Y0048D02*
Y0052D01*
X0222*
Y0048*
X0218*
Y0168D02*
Y0172D01*
X0222*
Y0168*
X0218*
Y0158D02*
Y0162D01*
X0222*
Y0158*
X0218*
Y0008D02*
Y0012D01*
X0222*
Y0008*
X0218*
Y-0002D02*
Y0002D01*
X0222*
Y-0002*
X0218*
Y0018D02*
Y0022D01*
X0222*
Y0018*
X0218*
Y0148D02*
Y0152D01*
X0222*
Y0148*
X0218*
Y0138D02*
Y0142D01*
X0222*
Y0138*
X0218*
Y0128D02*
Y0132D01*
X0222*
Y0128*
X0218*
Y0118D02*
Y0122D01*
X0222*
Y0118*
X0218*
Y0108D02*
Y0112D01*
X0222*
Y0108*
X0218*
Y0098D02*
Y0102D01*
X0222*
Y0098*
X0218*
Y0078D02*
Y0082D01*
X0222*
Y0078*
X0218*
Y0068D02*
Y0072D01*
X0222*
Y0068*
X0218*
Y0058D02*
Y0062D01*
X0222*
Y0058*
X0218*
Y0178D02*
Y0182D01*
X0222*
Y0178*
X0218*
X01255Y01655D02*
Y01695D01*
X01295*
Y01655*
X01255*
X01355D02*
Y01695D01*
X01395*
Y01655*
X01355*
X01455D02*
Y01695D01*
X01495*
Y01655*
X01455*
X00875Y00155D02*
X00855Y00195D01*
X00895*
X00875Y00155*
X00675D02*
X00655Y00195D01*
X00695*
X00675Y00155*
X-0032Y0288D02*
Y0292D01*
X-0028*
Y0288*
X-0032*
Y0278D02*
Y0282D01*
X-0028*
Y0278*
X-0032*
Y0228D02*
Y0232D01*
X-0028*
Y0228*
X-0032*
Y0218D02*
Y0222D01*
X-0028*
Y0218*
X-0032*
X0218Y0278D02*
Y0282D01*
X0222*
Y0278*
X0218*
Y0288D02*
Y0292D01*
X0222*
Y0288*
X0218*
X0003Y02255D02*
Y02295D01*
X0007*
Y02255*
X0003*
Y02155D02*
Y02195D01*
X0007*
Y02155*
X0003*
X00955Y0293D02*
Y0297D01*
X00995*
Y0293*
X00955*
X00855D02*
Y0297D01*
X00895*
Y0293*
X00855*
X00955Y01405D02*
Y01445D01*
X00995*
Y01405*
X00955*
X00855D02*
Y01445D01*
X00895*
Y01405*
X00855*
X00575Y02479D02*
X00555Y02519D01*
X00595*
X00575Y02479*
Y02279D02*
X00555Y02319D01*
X00595*
X00575Y02279*
X019Y0188D02*
X0191Y0189D01*
X0192*
X0191Y019*
X0192Y0191*
X0191*
X019Y0192*
X0189Y0191*
X0188*
X0189Y019*
X0188Y0189*
X0189*
X019Y0188*
X013Y-0012D02*
X0131Y-0011D01*
X0132*
X0131Y-001*
X0132Y-0009*
X0131*
X013Y-0008*
X0129Y-0009*
X0128*
X0129Y-001*
X0128Y-0011*
X0129*
X013Y-0012*
X0Y0193D02*
X0001Y0194D01*
X0002*
X0001Y0195*
X0002Y0196*
X0001*
X0Y0197*
X-0001Y0196*
X-0002*
X-0001Y0195*
X-0002Y0194*
X-0001*
X0Y0193*
X0176Y00285D02*
X0177Y00305D01*
X0176Y00325*
X0178Y00315*
X018Y00325*
X0179Y00305*
X018Y00285*
X0178Y00295*
X0176Y00285*
X0171Y0045D02*
X0172Y0047D01*
X0171Y0049*
X0173Y0048*
X0175Y0049*
X0174Y0047*
X0175Y0045*
X0173Y0046*
X0171Y0045*
X00975Y0084D02*
X00985Y0086D01*
X00975Y0088*
X00995Y0087*
X01015Y0088*
X01005Y0086*
X01015Y0084*
X00995Y0085*
X00975Y0084*
Y0088D02*
X00985Y009D01*
X00975Y0092*
X00995Y0091*
X01015Y0092*
X01005Y009*
X01015Y0088*
X00995Y0089*
X00975Y0088*
X0135Y0058D02*
X0136Y006D01*
X0135Y0062*
X0137Y0061*
X0139Y0062*
X0138Y006*
X0139Y0058*
X0137Y0059*
X0135Y0058*
X0147Y00555D02*
X0148Y00575D01*
X0147Y00595*
X0149Y00585*
X0151Y00595*
X015Y00575*
X0151Y00555*
X0149Y00565*
X0147Y00555*
X01625Y00525D02*
X01635Y00545D01*
X01625Y00565*
X01645Y00555*
X01665Y00565*
X01655Y00545*
X01665Y00525*
X01645Y00535*
X01625Y00525*
X0147Y0061D02*
X0148Y0063D01*
X0147Y0065*
X0149Y0064*
X0151Y0065*
X015Y0063*
X0151Y0061*
X0149Y0062*
X0147Y0061*
X0144Y0035D02*
X0145Y0037D01*
X0144Y0039*
X0146Y0038*
X0148Y0039*
X0147Y0037*
X0148Y0035*
X0146Y0036*
X0144Y0035*
X00405Y-0001D02*
X00415Y0001D01*
X00405Y0003*
X00425Y0002*
X00445Y0003*
X00435Y0001*
X00445Y-0001*
X00425Y0*
X00405Y-0001*
X00315D02*
X00325Y0001D01*
X00315Y0003*
X00335Y0002*
X00355Y0003*
X00345Y0001*
X00355Y-0001*
X00335Y0*
X00315Y-0001*
X00505Y0108D02*
X00515Y011D01*
X00505Y0112*
X00525Y0111*
X00545Y0112*
X00535Y011*
X00545Y0108*
X00525Y0109*
X00505Y0108*
X01025Y0173D02*
X01035Y0175D01*
X01025Y0177*
X01045Y0176*
X01065Y0177*
X01055Y0175*
X01065Y0173*
X01045Y0174*
X01025Y0173*
X0155Y0212D02*
X0156Y0214D01*
X0155Y0216*
X0157Y0215*
X0159Y0216*
X0158Y0214*
X0159Y0212*
X0157Y0213*
X0155Y0212*
X0216Y02095D02*
X0217Y02115D01*
X0216Y02135*
X0218Y02125*
X022Y02135*
X0219Y02115*
X022Y02095*
X0218Y02105*
X0216Y02095*
X0123Y0219D02*
X0124Y0221D01*
X0123Y0223*
X0125Y0222*
X0127Y0223*
X0126Y0221*
X0127Y0219*
X0125Y022*
X0123Y0219*
X0184Y0234D02*
X0185Y0236D01*
X0184Y0238*
X0186Y0237*
X0188Y0238*
X0187Y0236*
X0188Y0234*
X0186Y0235*
X0184Y0234*
X0082Y0235D02*
X0083Y0237D01*
X0082Y0239*
X0084Y0238*
X0086Y0239*
X0085Y0237*
X0086Y0235*
X0084Y0236*
X0082Y0235*
X0156Y02494D02*
X0157Y02514D01*
X0156Y02534*
X0158Y02524*
X016Y02534*
X0159Y02514*
X016Y02494*
X0158Y02504*
X0156Y02494*
X0158Y023D02*
X0159Y0232D01*
X0158Y0234*
X016Y0233*
X0162Y0234*
X0161Y0232*
X0162Y023*
X016Y0231*
X0158Y023*
Y0234D02*
X0159Y0236D01*
X0158Y0238*
X016Y0237*
X0162Y0238*
X0161Y0236*
X0162Y0234*
X016Y0235*
X0158Y0234*
X0148Y01535D02*
X0149Y01555D01*
X0148Y01575*
X015Y01565*
X0152Y01575*
X0151Y01555*
X0152Y01535*
X015Y01545*
X0148Y01535*
X0153D02*
X0154Y01555D01*
X0153Y01575*
X0155Y01565*
X0157Y01575*
X0156Y01555*
X0157Y01535*
X0155Y01545*
X0153Y01535*
X0137Y0146D02*
X0138Y0148D01*
X0137Y015*
X0139Y0149*
X0141Y015*
X014Y0148*
X0141Y0146*
X0139Y0147*
X0137Y0146*
Y015D02*
X0138Y0152D01*
X0137Y0154*
X0139Y0153*
X0141Y0154*
X014Y0152*
X0141Y015*
X0139Y0151*
X0137Y015*
X01345Y0146D02*
X01355Y0148D01*
X01345Y015*
X01365Y0149*
X01385Y015*
X01375Y0148*
X01385Y0146*
X01365Y0147*
X01345Y0146*
Y015D02*
X01355Y0152D01*
X01345Y0154*
X01365Y0153*
X01385Y0154*
X01375Y0152*
X01385Y015*
X01365Y0151*
X01345Y015*
X01015Y0164D02*
X01025Y0166D01*
X01015Y0168*
X01035Y0167*
X01055Y0168*
X01045Y0166*
X01055Y0164*
X01035Y0165*
X01015Y0164*
Y0152D02*
X01025Y0154D01*
X01015Y0156*
X01035Y0155*
X01055Y0156*
X01045Y0154*
X01055Y0152*
X01035Y0153*
X01015Y0152*
X00955Y01565D02*
X00965Y01585D01*
X00955Y01605*
X00975Y01595*
X00995Y01605*
X00985Y01585*
X00995Y01565*
X00975Y01575*
X00955Y01565*
X009Y0152D02*
X0091Y0154D01*
X009Y0156*
X0092Y0155*
X0094Y0156*
X0093Y0154*
X0094Y0152*
X0092Y0153*
X009Y0152*
X00495Y01535D02*
X00505Y01555D01*
X00495Y01575*
X00515Y01565*
X00535Y01575*
X00525Y01555*
X00535Y01535*
X00515Y01545*
X00495Y01535*
X009Y01665D02*
X0091Y01685D01*
X009Y01705*
X0092Y01695*
X0094Y01705*
X0093Y01685*
X0094Y01665*
X0092Y01675*
X009Y01665*
X004Y0023D02*
X0041Y0025D01*
X004Y0027*
X0042Y0026*
X0044Y0027*
X0043Y0025*
X0044Y0023*
X0042Y0024*
X004Y0023*
X0034Y0049D02*
X0035Y0051D01*
X0034Y0053*
X0036Y0052*
X0038Y0053*
X0037Y0051*
X0038Y0049*
X0036Y005*
X0034Y0049*
X0024Y0054D02*
X0025Y0056D01*
X0024Y0058*
X0026Y0057*
X0028Y0058*
X0027Y0056*
X0028Y0054*
X0026Y0055*
X0024Y0054*
X0035Y0093D02*
X0036Y0095D01*
X0035Y0097*
X0037Y0096*
X0039Y0097*
X0038Y0095*
X0039Y0093*
X0037Y0094*
X0035Y0093*
X0052Y00955D02*
Y00945D01*
X0054*
Y00955*
X0055*
Y00975*
X0054*
Y00985*
X0052*
Y00975*
X0051*
Y00955*
X0052*
X01585Y0045D02*
X01595Y0047D01*
X01585Y0049*
X01605Y0048*
X01625Y0049*
X01615Y0047*
X01625Y0045*
X01605Y0046*
X01585Y0045*
X0171Y0058D02*
X0172Y006D01*
X0171Y0062*
X0173Y0061*
X0175Y0062*
X0174Y006*
X0175Y0058*
X0173Y0059*
X0171Y0058*
X0197Y00735D02*
X0198Y00755D01*
X0197Y00775*
X0199Y00765*
X0201Y00775*
X02Y00755*
X0201Y00735*
X0199Y00745*
X0197Y00735*
X01505Y00775D02*
X01515Y00795D01*
X01505Y00815*
X01525Y00805*
X01545Y00815*
X01535Y00795*
X01545Y00775*
X01525Y00785*
X01505Y00775*
X01605Y00785D02*
X01615Y00805D01*
X01605Y00825*
X01625Y00815*
X01645Y00825*
X01635Y00805*
X01645Y00785*
X01625Y00795*
X01605Y00785*
X01785Y0115D02*
X01795Y0117D01*
X01785Y0119*
X01805Y0118*
X01825Y0119*
X01815Y0117*
X01825Y0115*
X01805Y0116*
X01785Y0115*
X0176Y01125D02*
X0177Y01145D01*
X0176Y01165*
X0178Y01155*
X018Y01165*
X0179Y01145*
X018Y01125*
X0178Y01135*
X0176Y01125*
X01745Y01005D02*
X01755Y01025D01*
X01745Y01045*
X01765Y01035*
X01785Y01045*
X01775Y01025*
X01785Y01005*
X01765Y01015*
X01745Y01005*
X01715Y0094D02*
X01725Y0096D01*
X01715Y0098*
X01735Y0097*
X01755Y0098*
X01745Y0096*
X01755Y0094*
X01735Y0095*
X01715Y0094*
X01685Y0118D02*
X01695Y012D01*
X01685Y0122*
X01705Y0121*
X01725Y0122*
X01715Y012*
X01725Y0118*
X01705Y0119*
X01685Y0118*
X01525Y0127D02*
X01535Y0129D01*
X01525Y0131*
X01545Y013*
X01565Y0131*
X01555Y0129*
X01565Y0127*
X01545Y0128*
X01525Y0127*
X0121Y0217D02*
Y0216D01*
X0123*
Y0217*
X0124*
Y0219*
X0123*
Y022*
X0121*
Y0219*
X012*
Y0217*
X0121*
X01065Y01725D02*
X01075Y01745D01*
X01065Y01765*
X01085Y01755*
X01105Y01765*
X01095Y01745*
X01105Y01725*
X01085Y01735*
X01065Y01725*
X01165Y01745D02*
X01175Y01765D01*
X01165Y01785*
X01185Y01775*
X01205Y01785*
X01195Y01765*
X01205Y01745*
X01185Y01755*
X01165Y01745*
X0109D02*
X011Y01765D01*
X0109Y01785*
X0111Y01775*
X0113Y01785*
X0112Y01765*
X0113Y01745*
X0111Y01755*
X0109Y01745*
X01145Y00465D02*
X01155Y00485D01*
X01145Y00505*
X01165Y00495*
X01185Y00505*
X01175Y00485*
X01185Y00465*
X01165Y00475*
X01145Y00465*
X01095Y0214D02*
X01105Y0216D01*
X01095Y0218*
X01115Y0217*
X01135Y0218*
X01125Y0216*
X01135Y0214*
X01115Y0215*
X01095Y0214*
X01005D02*
X01015Y0216D01*
X01005Y0218*
X01025Y0217*
X01045Y0218*
X01035Y0216*
X01045Y0214*
X01025Y0215*
X01005Y0214*
X01516Y02191D02*
X01526Y02211D01*
X01516Y02231*
X01536Y02221*
X01556Y02231*
X01546Y02211*
X01556Y02191*
X01536Y02201*
X01516Y02191*
X01602Y02267D02*
Y02257D01*
X01622*
Y02267*
X01632*
Y02287*
X01622*
Y02297*
X01602*
Y02287*
X01592*
Y02267*
X01602*
X01745Y0223D02*
X01755Y0225D01*
X01745Y0227*
X01765Y0226*
X01785Y0227*
X01775Y0225*
X01785Y0223*
X01765Y0224*
X01745Y0223*
X0059Y0164D02*
Y0163D01*
X0061*
Y0164*
X0062*
Y0166*
X0061*
Y0167*
X0059*
Y0166*
X0058*
Y0164*
X0059*
X0144Y01445D02*
X0145Y01465D01*
X0144Y01485*
X0146Y01475*
X0148Y01485*
X0147Y01465*
X0148Y01445*
X0146Y01455*
X0144Y01445*
X01445Y0151D02*
X01455Y0153D01*
X01445Y0155*
X01465Y0154*
X01485Y0155*
X01475Y0153*
X01485Y0151*
X01465Y0152*
X01445Y0151*
X00615Y01415D02*
Y01405D01*
X00635*
Y01415*
X00645*
Y01435*
X00635*
Y01445*
X00615*
Y01435*
X00605*
Y01415*
X00615*
X01495Y0133D02*
X01505Y0135D01*
X01495Y0137*
X01515Y0136*
X01535Y0137*
X01525Y0135*
X01535Y0133*
X01515Y0134*
X01495Y0133*
X01355Y0128D02*
X01365Y013D01*
X01355Y0132*
X01375Y0131*
X01395Y0132*
X01385Y013*
X01395Y0128*
X01375Y0129*
X01355Y0128*
X012Y0225D02*
Y0224D01*
X0122*
Y0225*
X0123*
Y0227*
X0122*
Y0228*
X012*
Y0227*
X0119*
Y0225*
X012*
X01255Y01655D02*
X01265Y01675D01*
X01255Y01695*
X01275Y01685*
X01295Y01695*
X01285Y01675*
X01295Y01655*
X01275Y01665*
X01255Y01655*
X0105Y0267D02*
X0106Y0269D01*
X0105Y0271*
X0107Y027*
X0109Y0271*
X0108Y0269*
X0109Y0267*
X0107Y0268*
X0105Y0267*
X01502Y0223D02*
X01512Y0225D01*
X01502Y0227*
X01522Y0226*
X01542Y0227*
X01532Y0225*
X01542Y0223*
X01522Y0224*
X01502Y0223*
X0123Y0224D02*
X0124Y0226D01*
X0123Y0228*
X0125Y0227*
X0127Y0228*
X0126Y0226*
X0127Y0224*
X0125Y0225*
X0123Y0224*
X0036Y01D02*
Y0099D01*
X0038*
Y01*
X0039*
Y0102*
X0038*
Y0103*
X0036*
Y0102*
X0035*
Y01*
X0036*
X0194Y0244D02*
Y0243D01*
X0196*
Y0244*
X0197*
Y0246*
X0196*
Y0247*
X0194*
Y0246*
X0193*
Y0244*
X0194*
X00045Y0016D02*
X00055Y0018D01*
X00045Y002*
X00065Y0019*
X00085Y002*
X00075Y0018*
X00085Y0016*
X00065Y0017*
X00045Y0016*
X00105Y0023D02*
X00115Y0025D01*
X00105Y0027*
X00125Y0026*
X00145Y0027*
X00135Y0025*
X00145Y0023*
X00125Y0024*
X00105Y0023*
X0174Y01305D02*
X0175Y01325D01*
X0174Y01345*
X0176Y01335*
X0178Y01345*
X0177Y01325*
X0178Y01305*
X0176Y01315*
X0174Y01305*
X0177Y01295D02*
X0178Y01315D01*
X0177Y01335*
X0179Y01325*
X0181Y01335*
X018Y01315*
X0181Y01295*
X0179Y01305*
X0177Y01295*
X0089Y01255D02*
X009Y01275D01*
X0089Y01295*
X0091Y01285*
X0093Y01295*
X0092Y01275*
X0093Y01255*
X0091Y01265*
X0089Y01255*
X00915Y0124D02*
X00925Y0126D01*
X00915Y0128*
X00935Y0127*
X00955Y0128*
X00945Y0126*
X00955Y0124*
X00935Y0125*
X00915Y0124*
X01605Y0116D02*
X01615Y0118D01*
X01605Y012*
X01625Y0119*
X01645Y012*
X01635Y0118*
X01645Y0116*
X01625Y0117*
X01605Y0116*
X0115Y01075D02*
X0116Y01095D01*
X0115Y01115*
X0117Y01105*
X0119Y01115*
X0118Y01095*
X0119Y01075*
X0117Y01085*
X0115Y01075*
X01175Y0105D02*
X01185Y0107D01*
X01175Y0109*
X01195Y0108*
X01215Y0109*
X01205Y0107*
X01215Y0105*
X01195Y0106*
X01175Y0105*
X01205Y0104D02*
X01215Y0106D01*
X01205Y0108*
X01225Y0107*
X01245Y0108*
X01235Y0106*
X01245Y0104*
X01225Y0105*
X01205Y0104*
X0112Y01015D02*
X0113Y01035D01*
X0112Y01055*
X0114Y01045*
X0116Y01055*
X0115Y01035*
X0116Y01015*
X0114Y01025*
X0112Y01015*
X01045Y00905D02*
X01055Y00925D01*
X01045Y00945*
X01065Y00935*
X01085Y00945*
X01075Y00925*
X01085Y00905*
X01065Y00915*
X01045Y00905*
X0095Y0076D02*
X0096Y0078D01*
X0095Y008*
X0097Y0079*
X0099Y008*
X0098Y0078*
X0099Y0076*
X0097Y0077*
X0095Y0076*
Y0073D02*
X0096Y0075D01*
X0095Y0077*
X0097Y0076*
X0099Y0077*
X0098Y0075*
X0099Y0073*
X0097Y0074*
X0095Y0073*
Y007D02*
X0096Y0072D01*
X0095Y0074*
X0097Y0073*
X0099Y0074*
X0098Y0072*
X0099Y007*
X0097Y0071*
X0095Y007*
Y0067D02*
X0096Y0069D01*
X0095Y0071*
X0097Y007*
X0099Y0071*
X0098Y0069*
X0099Y0067*
X0097Y0068*
X0095Y0067*
X00795Y00665D02*
X00805Y00685D01*
X00795Y00705*
X00815Y00695*
X00835Y00705*
X00825Y00685*
X00835Y00665*
X00815Y00675*
X00795Y00665*
X0087Y0064D02*
X0088Y0066D01*
X0087Y0068*
X0089Y0067*
X0091Y0068*
X009Y0066*
X0091Y0064*
X0089Y0065*
X0087Y0064*
X0053Y0058D02*
X0054Y006D01*
X0053Y0062*
X0055Y0061*
X0057Y0062*
X0056Y006*
X0057Y0058*
X0055Y0059*
X0053Y0058*
X01505Y0103D02*
X01515Y0105D01*
X01505Y0107*
X01525Y0106*
X01545Y0107*
X01535Y0105*
X01545Y0103*
X01525Y0104*
X01505Y0103*
X01785Y00695D02*
X01795Y00715D01*
X01785Y00735*
X01805Y00725*
X01825Y00735*
X01815Y00715*
X01825Y00695*
X01805Y00705*
X01785Y00695*
X0129Y00805D02*
X013Y00825D01*
X0129Y00845*
X0131Y00835*
X0133Y00845*
X0132Y00825*
X0133Y00805*
X0131Y00815*
X0129Y00805*
X00585Y0278D02*
X00595Y028D01*
X00585Y0282*
X00605Y0281*
X00625Y0282*
X00615Y028*
X00625Y0278*
X00605Y0279*
X00585Y0278*
X0061Y02782D02*
X0062Y02802D01*
X0061Y02822*
X0063Y02812*
X0065Y02822*
X0064Y02802*
X0065Y02782*
X0063Y02792*
X0061Y02782*
X0087Y02675D02*
X0088Y02695D01*
X0087Y02715*
X0089Y02705*
X0091Y02715*
X009Y02695*
X0091Y02675*
X0089Y02685*
X0087Y02675*
X00522Y00632D02*
X00532Y00652D01*
X00522Y00672*
X00542Y00662*
X00562Y00672*
X00552Y00652*
X00562Y00632*
X00542Y00642*
X00522Y00632*
X00605Y01045D02*
X00615Y01065D01*
X00605Y01085*
X00625Y01075*
X00645Y01085*
X00635Y01065*
X00645Y01045*
X00625Y01055*
X00605Y01045*
X00755Y01235D02*
X00765Y01255D01*
X00755Y01275*
X00775Y01265*
X00795Y01275*
X00785Y01255*
X00795Y01235*
X00775Y01245*
X00755Y01235*
X0127Y01792D02*
X0128Y01812D01*
X0127Y01832*
X0129Y01822*
X0131Y01832*
X013Y01812*
X0131Y01792*
X0129Y01802*
X0127Y01792*
X00902Y01945D02*
X00912Y01965D01*
X00902Y01985*
X00922Y01975*
X00942Y01985*
X00932Y01965*
X00942Y01945*
X00922Y01955*
X00902Y01945*
X00585Y01967D02*
X00595Y01987D01*
X00585Y02007*
X00605Y01997*
X00625Y02007*
X00615Y01987*
X00625Y01967*
X00605Y01977*
X00585Y01967*
X0078Y02782D02*
X0079Y02802D01*
X0078Y02822*
X008Y02812*
X0082Y02822*
X0081Y02802*
X0082Y02782*
X008Y02792*
X0078Y02782*
X01247Y02527D02*
X01257Y02547D01*
X01247Y02567*
X01267Y02557*
X01287Y02567*
X01277Y02547*
X01287Y02527*
X01267Y02537*
X01247Y02527*
X01442Y02365D02*
X01452Y02385D01*
X01442Y02405*
X01462Y02395*
X01482Y02405*
X01472Y02385*
X01482Y02365*
X01462Y02375*
X01442Y02365*
X01585Y02625D02*
Y02615D01*
X01605*
Y02625*
X01615*
Y02645*
X01605*
Y02655*
X01585*
Y02645*
X01575*
Y02625*
X01585*
X0159Y02484D02*
Y02474D01*
X0161*
Y02484*
X0162*
Y02504*
X0161*
Y02514*
X0159*
Y02504*
X0158*
Y02484*
X0159*
X01755Y02625D02*
X01765Y02645D01*
X01755Y02665*
X01775Y02655*
X01795Y02665*
X01785Y02645*
X01795Y02625*
X01775Y02635*
X01755Y02625*
X01535Y0248D02*
X01545Y025D01*
X01535Y0252*
X01555Y0251*
X01575Y0252*
X01565Y025*
X01575Y0248*
X01555Y0249*
X01535Y0248*
X01405Y0293D02*
X01415Y0295D01*
X01405Y0297*
X01425Y0296*
X01445Y0297*
X01435Y0295*
X01445Y0293*
X01425Y0294*
X01405Y0293*
X01305Y02805D02*
X01315Y02825D01*
X01305Y02845*
X01325Y02835*
X01345Y02845*
X01335Y02825*
X01345Y02805*
X01325Y02815*
X01305Y02805*
Y02755D02*
X01315Y02775D01*
X01305Y02795*
X01325Y02785*
X01345Y02795*
X01335Y02775*
X01345Y02755*
X01325Y02765*
X01305Y02755*
X0133Y0268D02*
X0134Y027D01*
X0133Y0272*
X0135Y0271*
X0137Y0272*
X0136Y027*
X0137Y0268*
X0135Y0269*
X0133Y0268*
X0113Y02755D02*
X0114Y02775D01*
X0113Y02795*
X0115Y02785*
X0117Y02795*
X0116Y02775*
X0117Y02755*
X0115Y02765*
X0113Y02755*
Y02955D02*
X0114Y02975D01*
X0113Y02995*
X0115Y02985*
X0117Y02995*
X0116Y02975*
X0117Y02955*
X0115Y02965*
X0113Y02955*
X0168Y02755D02*
X0169Y02775D01*
X0168Y02795*
X017Y02785*
X0172Y02795*
X0171Y02775*
X0172Y02755*
X017Y02765*
X0168Y02755*
Y02955D02*
X0169Y02975D01*
X0168Y02995*
X017Y02985*
X0172Y02995*
X0171Y02975*
X0172Y02955*
X017Y02965*
X0168Y02955*
X00865Y0216D02*
X00875Y0218D01*
X00865Y022*
X00885Y0219*
X00905Y022*
X00895Y0218*
X00905Y0216*
X00885Y0217*
X00865Y0216*
X00885Y0219D02*
X00895Y0221D01*
X00885Y0223*
X00905Y0222*
X00925Y0223*
X00915Y0221*
X00925Y0219*
X00905Y022*
X00885Y0219*
X00912Y02212D02*
X00922Y02232D01*
X00912Y02252*
X00932Y02242*
X00952Y02252*
X00942Y02232*
X00952Y02212*
X00932Y02222*
X00912Y02212*
X01045Y0236D02*
X01055Y0238D01*
X01045Y024*
X01065Y0239*
X01085Y024*
X01075Y0238*
X01085Y0236*
X01065Y0237*
X01045Y0236*
X0013Y02355D02*
X0014Y02375D01*
X0013Y02395*
X0015Y02385*
X0017Y02395*
X0016Y02375*
X0017Y02355*
X0015Y02365*
X0013Y02355*
Y0228D02*
X0014Y023D01*
X0013Y0232*
X0015Y0231*
X0017Y0232*
X0016Y023*
X0017Y0228*
X0015Y0229*
X0013Y0228*
X00715Y0241D02*
X00725Y0243D01*
X00715Y0245*
X00735Y0244*
X00755Y0245*
X00745Y0243*
X00755Y0241*
X00735Y0242*
X00715Y0241*
X0048Y02405D02*
X0049Y02425D01*
X0048Y02445*
X005Y02435*
X0052Y02445*
X0051Y02425*
X0052Y02405*
X005Y02415*
X0048Y02405*
X0129Y0093D02*
X013Y0095D01*
X0129Y0097*
X0131Y0096*
X0133Y0097*
X0132Y0095*
X0133Y0093*
X0131Y0094*
X0129Y0093*
X0078Y-0002D02*
X0079Y0D01*
X0078Y0002*
X008Y0001*
X0082Y0002*
X0081Y0*
X0082Y-0002*
X008Y-0001*
X0078Y-0002*
X0073D02*
X0074Y0D01*
X0073Y0002*
X0075Y0001*
X0077Y0002*
X0076Y0*
X0077Y-0002*
X0075Y-0001*
X0073Y-0002*
X00905Y02825D02*
X00915Y02845D01*
X00905Y02865*
X00925Y02855*
X00945Y02865*
X00935Y02845*
X00945Y02825*
X00925Y02835*
X00905Y02825*
X01945Y01065D02*
X01955Y01085D01*
X01945Y01105*
X01965Y01095*
X01985Y01105*
X01975Y01085*
X01985Y01065*
X01965Y01075*
X01945Y01065*
Y011D02*
X01955Y0112D01*
X01945Y0114*
X01965Y0113*
X01985Y0114*
X01975Y0112*
X01985Y011*
X01965Y0111*
X01945Y011*
X0028Y02475D02*
X0029Y02495D01*
X0028Y02515*
X003Y02505*
X0032Y02515*
X0031Y02495*
X0032Y02475*
X003Y02485*
X0028Y02475*
X0079Y0259D02*
X008Y0261D01*
X0079Y0263*
X0081Y0262*
X0083Y0263*
X0082Y0261*
X0083Y0259*
X0081Y026*
X0079Y0259*
X01255Y02285D02*
Y02275D01*
X01275*
Y02285*
X01285*
Y02305*
X01275*
Y02315*
X01255*
Y02305*
X01245*
Y02285*
X01255*
X011Y0269D02*
Y0268D01*
X0112*
Y0269*
X0113*
Y0271*
X0112*
Y0272*
X011*
Y0271*
X0109*
Y0269*
X011*
X01172Y02537D02*
Y02527D01*
X01192*
Y02537*
X01202*
Y02557*
X01192*
Y02567*
X01172*
Y02557*
X01162*
Y02537*
X01172*
X00215Y0233D02*
X00225Y0235D01*
X00215Y0237*
X00235Y0236*
X00255Y0237*
X00245Y0235*
X00255Y0233*
X00235Y0234*
X00215Y0233*
X002Y0238D02*
X0021Y024D01*
X002Y0242*
X0022Y0241*
X0024Y0242*
X0023Y024*
X0024Y0238*
X0022Y0239*
X002Y0238*
Y02455D02*
X0021Y02475D01*
X002Y02495*
X0022Y02485*
X0024Y02495*
X0023Y02475*
X0024Y02455*
X0022Y02465*
X002Y02455*
Y02605D02*
X0021Y02625D01*
X002Y02645*
X0022Y02635*
X0024Y02645*
X0023Y02625*
X0024Y02605*
X0022Y02615*
X002Y02605*
X0031Y02465D02*
X0032Y02485D01*
X0031Y02505*
X0033Y02495*
X0035Y02505*
X0034Y02485*
X0035Y02465*
X0033Y02475*
X0031Y02465*
X00805Y0242D02*
X00815Y0244D01*
X00805Y0246*
X00825Y0245*
X00845Y0246*
X00835Y0244*
X00845Y0242*
X00825Y0243*
X00805Y0242*
X0088Y02526D02*
X0089Y02546D01*
X0088Y02566*
X009Y02556*
X0092Y02566*
X0091Y02546*
X0092Y02526*
X009Y02536*
X0088Y02526*
X009Y0255D02*
X0091Y0257D01*
X009Y0259*
X0092Y0258*
X0094Y0259*
X0093Y0257*
X0094Y0255*
X0092Y0256*
X009Y0255*
X00655Y00395D02*
X00665Y00415D01*
X00655Y00435*
X00675Y00425*
X00695Y00435*
X00685Y00415*
X00695Y00395*
X00675Y00405*
X00655Y00395*
X00993Y0198D02*
X01003Y02D01*
X00993Y0202*
X01013Y0201*
X01033Y0202*
X01023Y02*
X01033Y0198*
X01013Y0199*
X00993Y0198*
X01355Y0238D02*
X01365Y024D01*
X01355Y0242*
X01375Y0241*
X01395Y0242*
X01385Y024*
X01395Y0238*
X01375Y0239*
X01355Y0238*
X0098Y0029D02*
Y0028D01*
X01*
Y0029*
X0101*
Y0031*
X01*
Y0032*
X0098*
Y0031*
X0097*
Y0029*
X0098*
X01175Y0088D02*
X01185Y009D01*
X01175Y0092*
X01195Y0091*
X01215Y0092*
X01205Y009*
X01215Y0088*
X01195Y0089*
X01175Y0088*
X00702Y0108D02*
X00712Y011D01*
X00702Y0112*
X00722Y0111*
X00742Y0112*
X00732Y011*
X00742Y0108*
X00722Y0109*
X00702Y0108*
X0098Y02727D02*
X0099Y02747D01*
X0098Y02767*
X01Y02757*
X0102Y02767*
X0101Y02747*
X0102Y02727*
X01Y02737*
X0098Y02727*
X01215Y02355D02*
X01225Y02375D01*
X01215Y02395*
X01235Y02385*
X01255Y02395*
X01245Y02375*
X01255Y02355*
X01235Y02365*
X01215Y02355*
X00655Y01083D02*
X00665Y01103D01*
X00655Y01123*
X00675Y01113*
X00695Y01123*
X00685Y01103*
X00695Y01083*
X00675Y01093*
X00655Y01083*
X0121Y0043D02*
X0122Y0045D01*
X0121Y0047*
X0123Y0046*
X0125Y0047*
X0124Y0045*
X0125Y0043*
X0123Y0044*
X0121Y0043*
X0135Y0023D02*
X0136Y0025D01*
X0135Y0027*
X0137Y0026*
X0139Y0027*
X0138Y0025*
X0139Y0023*
X0137Y0024*
X0135Y0023*
X0143Y0094D02*
X0144Y0096D01*
X0143Y0098*
X0145Y0097*
X0147Y0098*
X0146Y0096*
X0147Y0094*
X0145Y0095*
X0143Y0094*
X0097Y00315D02*
X0098Y00335D01*
X0097Y00355*
X0099Y00345*
X0101Y00355*
X01Y00335*
X0101Y00315*
X0099Y00325*
X0097Y00315*
X01665Y0258D02*
X01675Y026D01*
X01665Y0262*
X01685Y0261*
X01705Y0262*
X01695Y026*
X01705Y0258*
X01685Y0259*
X01665Y0258*
X01645Y0255D02*
X01655Y0257D01*
X01645Y0259*
X01665Y0258*
X01685Y0259*
X01675Y0257*
X01685Y0255*
X01665Y0256*
X01645Y0255*
X01315Y0253D02*
X01325Y0255D01*
X01315Y0257*
X01335Y0256*
X01355Y0257*
X01345Y0255*
X01355Y0253*
X01335Y0254*
X01315Y0253*
X0124Y0261D02*
X0125Y0263D01*
X0124Y0265*
X0126Y0264*
X0128Y0265*
X0127Y0263*
X0128Y0261*
X0126Y0262*
X0124Y0261*
X01905Y0248D02*
X01915Y025D01*
X01905Y0252*
X01925Y0251*
X01945Y0252*
X01935Y025*
X01945Y0248*
X01925Y0249*
X01905Y0248*
X01805Y02355D02*
Y02345D01*
X01825*
Y02355*
X01835*
Y02375*
X01825*
Y02385*
X01805*
Y02375*
X01795*
Y02355*
X01805*
X00155Y0103D02*
X00165Y0105D01*
X00155Y0107*
X00175Y0106*
X00195Y0107*
X00185Y0105*
X00195Y0103*
X00175Y0104*
X00155Y0103*
X01505Y00905D02*
X01515Y00925D01*
X01505Y00945*
X01525Y00935*
X01545Y00945*
X01535Y00925*
X01545Y00905*
X01525Y00915*
X01505Y00905*
X01555Y0068D02*
X01565Y007D01*
X01555Y0072*
X01575Y0071*
X01595Y0072*
X01585Y007*
X01595Y0068*
X01575Y0069*
X01555Y0068*
X01505D02*
X01515Y007D01*
X01505Y0072*
X01525Y0071*
X01545Y0072*
X01535Y007*
X01545Y0068*
X01525Y0069*
X01505Y0068*
X0163Y00905D02*
X0164Y00925D01*
X0163Y00945*
X0165Y00935*
X0167Y00945*
X0166Y00925*
X0167Y00905*
X0165Y00915*
X0163Y00905*
X01655Y0088D02*
X01665Y009D01*
X01655Y0092*
X01675Y0091*
X01695Y0092*
X01685Y009*
X01695Y0088*
X01675Y0089*
X01655Y0088*
X0163Y0063D02*
X0164Y0065D01*
X0163Y0067*
X0165Y0066*
X0167Y0067*
X0166Y0065*
X0167Y0063*
X0165Y0064*
X0163Y0063*
X014Y0061D02*
X0141Y0063D01*
X014Y0065*
X0142Y0064*
X0144Y0065*
X0143Y0063*
X0144Y0061*
X0142Y0062*
X014Y0061*
X01505Y00805D02*
X01515Y00825D01*
X01505Y00845*
X01525Y00835*
X01545Y00845*
X01535Y00825*
X01545Y00805*
X01525Y00815*
X01505Y00805*
Y00879D02*
X01515Y00899D01*
X01505Y00919*
X01525Y00909*
X01545Y00919*
X01535Y00899*
X01545Y00879*
X01525Y00889*
X01505Y00879*
X00675Y00625D02*
Y00615D01*
X00695*
Y00625*
X00705*
Y00645*
X00695*
Y00655*
X00675*
Y00645*
X00665*
Y00625*
X00675*
X0097Y0059D02*
X0098Y0061D01*
X0097Y0063*
X0099Y0062*
X0101Y0063*
X01Y0061*
X0101Y0059*
X0099Y006*
X0097Y0059*
X0023Y02555D02*
X0024Y02575D01*
X0023Y02595*
X0025Y02585*
X0027Y02595*
X0026Y02575*
X0027Y02555*
X0025Y02565*
X0023Y02555*
X0015Y02205D02*
X0016Y02225D01*
X0015Y02245*
X0017Y02235*
X0019Y02245*
X0018Y02225*
X0019Y02205*
X0017Y02215*
X0015Y02205*
X00165Y0218D02*
X00175Y022D01*
X00165Y0222*
X00185Y0221*
X00205Y0222*
X00195Y022*
X00205Y0218*
X00185Y0219*
X00165Y0218*
X0019Y02165D02*
X002Y02185D01*
X0019Y02205*
X0021Y02195*
X0023Y02205*
X0022Y02185*
X0023Y02165*
X0021Y02175*
X0019Y02165*
X01163Y02351D02*
X01173Y02371D01*
X01163Y02391*
X01183Y02381*
X01203Y02391*
X01193Y02371*
X01203Y02351*
X01183Y02361*
X01163Y02351*
X00305Y0188D02*
X00315Y019D01*
X00305Y0192*
X00325Y0191*
X00345Y0192*
X00335Y019*
X00345Y0188*
X00325Y0189*
X00305Y0188*
X0013Y0068D02*
X0014Y007D01*
X0013Y0072*
X0015Y0071*
X0017Y0072*
X0016Y007*
X0017Y0068*
X0015Y0069*
X0013Y0068*
X00155Y0093D02*
X00165Y0095D01*
X00155Y0097*
X00175Y0096*
X00195Y0097*
X00185Y0095*
X00195Y0093*
X00175Y0094*
X00155Y0093*
X0018Y0113D02*
X0019Y0115D01*
X0018Y0117*
X002Y0116*
X0022Y0117*
X0021Y0115*
X0022Y0113*
X002Y0114*
X0018Y0113*
X00205Y01155D02*
X00215Y01175D01*
X00205Y01195*
X00225Y01185*
X00245Y01195*
X00235Y01175*
X00245Y01155*
X00225Y01165*
X00205Y01155*
X00255Y0168D02*
X00265Y017D01*
X00255Y0172*
X00275Y0171*
X00295Y0172*
X00285Y017*
X00295Y0168*
X00275Y0169*
X00255Y0168*
Y0093D02*
X00265Y0095D01*
X00255Y0097*
X00275Y0096*
X00295Y0097*
X00285Y0095*
X00295Y0093*
X00275Y0094*
X00255Y0093*
X0023Y0058D02*
X0024Y006D01*
X0023Y0062*
X0025Y0061*
X0027Y0062*
X0026Y006*
X0027Y0058*
X0025Y0059*
X0023Y0058*
X0038Y00505D02*
X0039Y00525D01*
X0038Y00545*
X004Y00535*
X0042Y00545*
X0041Y00525*
X0042Y00505*
X004Y00515*
X0038Y00505*
X01515Y02515D02*
Y02505D01*
X01535*
Y02515*
X01545*
Y02535*
X01535*
Y02545*
X01515*
Y02535*
X01505*
Y02515*
X01515*
X01305Y0013D02*
X01315Y0015D01*
X01305Y0017*
X01325Y0016*
X01345Y0017*
X01335Y0015*
X01345Y0013*
X01325Y0014*
X01305Y0013*
X0108Y0028D02*
X0109Y003D01*
X0108Y0032*
X011Y0031*
X0112Y0032*
X0111Y003*
X0112Y0028*
X011Y0029*
X0108Y0028*
Y00355D02*
X0109Y00375D01*
X0108Y00395*
X011Y00385*
X0112Y00395*
X0111Y00375*
X0112Y00355*
X011Y00365*
X0108Y00355*
X0109Y0024D02*
Y0023D01*
X0111*
Y0024*
X0112*
Y0026*
X0111*
Y0027*
X0109*
Y0026*
X0108*
Y0024*
X0109*
X0108Y00155D02*
X0109Y00175D01*
X0108Y00195*
X011Y00185*
X0112Y00195*
X0111Y00175*
X0112Y00155*
X011Y00165*
X0108Y00155*
X01105Y0013D02*
X01115Y0015D01*
X01105Y0017*
X01125Y0016*
X01145Y0017*
X01135Y0015*
X01145Y0013*
X01125Y0014*
X01105Y0013*
X0108Y00405D02*
X0109Y00425D01*
X0108Y00445*
X011Y00435*
X0112Y00445*
X0111Y00425*
X0112Y00405*
X011Y00415*
X0108Y00405*
X0111Y00435D02*
X0112Y00455D01*
X0111Y00475*
X0113Y00465*
X0115Y00475*
X0114Y00455*
X0115Y00435*
X0113Y00445*
X0111Y00435*
X0167Y0103D02*
X0168Y0105D01*
X0167Y0107*
X0169Y0106*
X0171Y0107*
X017Y0105*
X0171Y0103*
X0169Y0104*
X0167Y0103*
X00565Y0119D02*
Y0118D01*
X00585*
Y0119*
X00595*
Y0121*
X00585*
Y0122*
X00565*
Y0121*
X00555*
Y0119*
X00565*
X0013Y02755D02*
X0014Y02775D01*
X0013Y02795*
X0015Y02785*
X0017Y02795*
X0016Y02775*
X0017Y02755*
X0015Y02765*
X0013Y02755*
X00325Y0097D02*
Y0096D01*
X00345*
Y0097*
X00355*
Y0099*
X00345*
Y01*
X00325*
Y0099*
X00315*
Y0097*
X00325*
X01605Y01005D02*
X01615Y01025D01*
X01605Y01045*
X01625Y01035*
X01645Y01045*
X01635Y01025*
X01645Y01005*
X01625Y01015*
X01605Y01005*
X0158Y00805D02*
X0159Y00825D01*
X0158Y00845*
X016Y00835*
X0162Y00845*
X0161Y00825*
X0162Y00805*
X016Y00815*
X0158Y00805*
X0167Y00555D02*
X0168Y00575D01*
X0167Y00595*
X0169Y00585*
X0171Y00595*
X017Y00575*
X0171Y00555*
X0169Y00565*
X0167Y00555*
X01695Y0033D02*
X01705Y0035D01*
X01695Y0037*
X01715Y0036*
X01735Y0037*
X01725Y0035*
X01735Y0033*
X01715Y0034*
X01695Y0033*
X0156Y00465D02*
X0157Y00485D01*
X0156Y00505*
X0158Y00495*
X016Y00505*
X0159Y00485*
X016Y00465*
X0158Y00475*
X0156Y00465*
X01535Y0045D02*
X01545Y0047D01*
X01535Y0049*
X01555Y0048*
X01575Y0049*
X01565Y0047*
X01575Y0045*
X01555Y0046*
X01535Y0045*
X0098Y00785D02*
X0099Y00805D01*
X0098Y00825*
X01Y00815*
X0102Y00825*
X0101Y00805*
X0102Y00785*
X01Y00795*
X0098Y00785*
X0135Y0043D02*
X0136Y0045D01*
X0135Y0047*
X0137Y0046*
X0139Y0047*
X0138Y0045*
X0139Y0043*
X0137Y0044*
X0135Y0043*
X0117Y00605D02*
X0118Y00625D01*
X0117Y00645*
X0119Y00635*
X0121Y00645*
X012Y00625*
X0121Y00605*
X0119Y00615*
X0117Y00605*
X012Y00625D02*
X0121Y00645D01*
X012Y00665*
X0122Y00655*
X0124Y00665*
X0123Y00645*
X0124Y00625*
X0122Y00635*
X012Y00625*
X-0042Y-0002D02*
X-0041Y0D01*
X-0042Y0002*
X-004Y0001*
X-0038Y0002*
X-0039Y0*
X-0038Y-0002*
X-004Y-0001*
X-0042Y-0002*
Y0018D02*
X-0041Y002D01*
X-0042Y0022*
X-004Y0021*
X-0038Y0022*
X-0039Y002*
X-0038Y0018*
X-004Y0019*
X-0042Y0018*
Y0038D02*
X-0041Y004D01*
X-0042Y0042*
X-004Y0041*
X-0038Y0042*
X-0039Y004*
X-0038Y0038*
X-004Y0039*
X-0042Y0038*
Y0058D02*
X-0041Y006D01*
X-0042Y0062*
X-004Y0061*
X-0038Y0062*
X-0039Y006*
X-0038Y0058*
X-004Y0059*
X-0042Y0058*
Y0078D02*
X-0041Y008D01*
X-0042Y0082*
X-004Y0081*
X-0038Y0082*
X-0039Y008*
X-0038Y0078*
X-004Y0079*
X-0042Y0078*
Y0098D02*
X-0041Y01D01*
X-0042Y0102*
X-004Y0101*
X-0038Y0102*
X-0039Y01*
X-0038Y0098*
X-004Y0099*
X-0042Y0098*
Y0118D02*
X-0041Y012D01*
X-0042Y0122*
X-004Y0121*
X-0038Y0122*
X-0039Y012*
X-0038Y0118*
X-004Y0119*
X-0042Y0118*
Y0138D02*
X-0041Y014D01*
X-0042Y0142*
X-004Y0141*
X-0038Y0142*
X-0039Y014*
X-0038Y0138*
X-004Y0139*
X-0042Y0138*
Y0158D02*
X-0041Y016D01*
X-0042Y0162*
X-004Y0161*
X-0038Y0162*
X-0039Y016*
X-0038Y0158*
X-004Y0159*
X-0042Y0158*
Y0178D02*
X-0041Y018D01*
X-0042Y0182*
X-004Y0181*
X-0038Y0182*
X-0039Y018*
X-0038Y0178*
X-004Y0179*
X-0042Y0178*
Y0198D02*
X-0041Y02D01*
X-0042Y0202*
X-004Y0201*
X-0038Y0202*
X-0039Y02*
X-0038Y0198*
X-004Y0199*
X-0042Y0198*
X-0022D02*
X-0021Y02D01*
X-0022Y0202*
X-002Y0201*
X-0018Y0202*
X-0019Y02*
X-0018Y0198*
X-002Y0199*
X-0022Y0198*
X0008D02*
X0009Y02D01*
X0008Y0202*
X001Y0201*
X0012Y0202*
X0011Y02*
X0012Y0198*
X001Y0199*
X0008Y0198*
Y0178D02*
X0009Y018D01*
X0008Y0182*
X001Y0181*
X0012Y0182*
X0011Y018*
X0012Y0178*
X001Y0179*
X0008Y0178*
Y-0012D02*
X0009Y-001D01*
X0008Y-0008*
X001Y-0009*
X0012Y-0008*
X0011Y-001*
X0012Y-0012*
X001Y-0011*
X0008Y-0012*
X-0042Y0218D02*
X-0041Y022D01*
X-0042Y0222*
X-004Y0221*
X-0038Y0222*
X-0039Y022*
X-0038Y0218*
X-004Y0219*
X-0042Y0218*
Y0238D02*
X-0041Y024D01*
X-0042Y0242*
X-004Y0241*
X-0038Y0242*
X-0039Y024*
X-0038Y0238*
X-004Y0239*
X-0042Y0238*
Y0258D02*
X-0041Y026D01*
X-0042Y0262*
X-004Y0261*
X-0038Y0262*
X-0039Y026*
X-0038Y0258*
X-004Y0259*
X-0042Y0258*
Y0278D02*
X-0041Y028D01*
X-0042Y0282*
X-004Y0281*
X-0038Y0282*
X-0039Y028*
X-0038Y0278*
X-004Y0279*
X-0042Y0278*
X-0032Y0298D02*
X-0031Y03D01*
X-0032Y0302*
X-003Y0301*
X-0028Y0302*
X-0029Y03*
X-0028Y0298*
X-003Y0299*
X-0032Y0298*
X-0012D02*
X-0011Y03D01*
X-0012Y0302*
X-001Y0301*
X-0008Y0302*
X-0009Y03*
X-0008Y0298*
X-001Y0299*
X-0012Y0298*
X0008D02*
X0009Y03D01*
X0008Y0302*
X001Y0301*
X0012Y0302*
X0011Y03*
X0012Y0298*
X001Y0299*
X0008Y0298*
X0028D02*
X0029Y03D01*
X0028Y0302*
X003Y0301*
X0032Y0302*
X0031Y03*
X0032Y0298*
X003Y0299*
X0028Y0298*
X0048D02*
X0049Y03D01*
X0048Y0302*
X005Y0301*
X0052Y0302*
X0051Y03*
X0052Y0298*
X005Y0299*
X0048Y0298*
X0068D02*
X0069Y03D01*
X0068Y0302*
X007Y0301*
X0072Y0302*
X0071Y03*
X0072Y0298*
X007Y0299*
X0068Y0298*
X0088D02*
X0089Y03D01*
X0088Y0302*
X009Y0301*
X0092Y0302*
X0091Y03*
X0092Y0298*
X009Y0299*
X0088Y0298*
X0108D02*
X0109Y03D01*
X0108Y0302*
X011Y0301*
X0112Y0302*
X0111Y03*
X0112Y0298*
X011Y0299*
X0108Y0298*
X0178D02*
X0179Y03D01*
X0178Y0302*
X018Y0301*
X0182Y0302*
X0181Y03*
X0182Y0298*
X018Y0299*
X0178Y0298*
X0198D02*
X0199Y03D01*
X0198Y0302*
X02Y0301*
X0202Y0302*
X0201Y03*
X0202Y0298*
X02Y0299*
X0198Y0298*
X0218D02*
X0219Y03D01*
X0218Y0302*
X022Y0301*
X0222Y0302*
X0221Y03*
X0222Y0298*
X022Y0299*
X0218Y0298*
X0228Y0288D02*
X0229Y029D01*
X0228Y0292*
X023Y0291*
X0232Y0292*
X0231Y029*
X0232Y0288*
X023Y0289*
X0228Y0288*
Y0268D02*
X0229Y027D01*
X0228Y0272*
X023Y0271*
X0232Y0272*
X0231Y027*
X0232Y0268*
X023Y0269*
X0228Y0268*
Y0248D02*
X0229Y025D01*
X0228Y0252*
X023Y0251*
X0232Y0252*
X0231Y025*
X0232Y0248*
X023Y0249*
X0228Y0248*
Y0228D02*
X0229Y023D01*
X0228Y0232*
X023Y0231*
X0232Y0232*
X0231Y023*
X0232Y0228*
X023Y0229*
X0228Y0228*
X0218Y0218D02*
X0219Y022D01*
X0218Y0222*
X022Y0221*
X0222Y0222*
X0221Y022*
X0222Y0218*
X022Y0219*
X0218Y0218*
X0228Y0198D02*
X0229Y02D01*
X0228Y0202*
X023Y0201*
X0232Y0202*
X0231Y02*
X0232Y0198*
X023Y0199*
X0228Y0198*
Y0178D02*
X0229Y018D01*
X0228Y0182*
X023Y0181*
X0232Y0182*
X0231Y018*
X0232Y0178*
X023Y0179*
X0228Y0178*
Y0158D02*
X0229Y016D01*
X0228Y0162*
X023Y0161*
X0232Y0162*
X0231Y016*
X0232Y0158*
X023Y0159*
X0228Y0158*
Y0138D02*
X0229Y014D01*
X0228Y0142*
X023Y0141*
X0232Y0142*
X0231Y014*
X0232Y0138*
X023Y0139*
X0228Y0138*
Y0118D02*
X0229Y012D01*
X0228Y0122*
X023Y0121*
X0232Y0122*
X0231Y012*
X0232Y0118*
X023Y0119*
X0228Y0118*
Y0098D02*
X0229Y01D01*
X0228Y0102*
X023Y0101*
X0232Y0102*
X0231Y01*
X0232Y0098*
X023Y0099*
X0228Y0098*
Y0078D02*
X0229Y008D01*
X0228Y0082*
X023Y0081*
X0232Y0082*
X0231Y008*
X0232Y0078*
X023Y0079*
X0228Y0078*
Y0058D02*
X0229Y006D01*
X0228Y0062*
X023Y0061*
X0232Y0062*
X0231Y006*
X0232Y0058*
X023Y0059*
X0228Y0058*
Y0038D02*
X0229Y004D01*
X0228Y0042*
X023Y0041*
X0232Y0042*
X0231Y004*
X0232Y0038*
X023Y0039*
X0228Y0038*
Y0018D02*
X0229Y002D01*
X0228Y0022*
X023Y0021*
X0232Y0022*
X0231Y002*
X0232Y0018*
X023Y0019*
X0228Y0018*
Y-0002D02*
X0229Y0D01*
X0228Y0002*
X023Y0001*
X0232Y0002*
X0231Y0*
X0232Y-0002*
X023Y-0001*
X0228Y-0002*
X-0012Y0278D02*
X-0011Y028D01*
X-0012Y0282*
X-001Y0281*
X-0008Y0282*
X-0009Y028*
X-0008Y0278*
X-001Y0279*
X-0012Y0278*
X-0022Y0258D02*
X-0021Y026D01*
X-0022Y0262*
X-002Y0261*
X-0018Y0262*
X-0019Y026*
X-0018Y0258*
X-002Y0259*
X-0022Y0258*
Y0238D02*
X-0021Y024D01*
X-0022Y0242*
X-002Y0241*
X-0018Y0242*
X-0019Y024*
X-0018Y0238*
X-002Y0239*
X-0022Y0238*
Y0218D02*
X-0021Y022D01*
X-0022Y0222*
X-002Y0221*
X-0018Y0222*
X-0019Y022*
X-0018Y0218*
X-002Y0219*
X-0022Y0218*
X0208Y0248D02*
X0209Y025D01*
X0208Y0252*
X021Y0251*
X0212Y0252*
X0211Y025*
X0212Y0248*
X021Y0249*
X0208Y0248*
Y0268D02*
X0209Y027D01*
X0208Y0272*
X021Y0271*
X0212Y0272*
X0211Y027*
X0212Y0268*
X021Y0269*
X0208Y0268*
Y0198D02*
X0209Y02D01*
X0208Y0202*
X021Y0201*
X0212Y0202*
X0211Y02*
X0212Y0198*
X021Y0199*
X0208Y0198*
Y0188D02*
X0209Y019D01*
X0208Y0192*
X021Y0191*
X0212Y0192*
X0211Y019*
X0212Y0188*
X021Y0189*
X0208Y0188*
X0188Y0198D02*
X0189Y02D01*
X0188Y0202*
X019Y0201*
X0192Y0202*
X0191Y02*
X0192Y0198*
X019Y0199*
X0188Y0198*
X0168D02*
X0169Y02D01*
X0168Y0202*
X017Y0201*
X0172Y0202*
X0171Y02*
X0172Y0198*
X017Y0199*
X0168Y0198*
Y0188D02*
X0169Y019D01*
X0168Y0192*
X017Y0191*
X0172Y0192*
X0171Y019*
X0172Y0188*
X017Y0189*
X0168Y0188*
X-0012Y0178D02*
X-0011Y018D01*
X-0012Y0182*
X-001Y0181*
X-0008Y0182*
X-0009Y018*
X-0008Y0178*
X-001Y0179*
X-0012Y0178*
X0148Y-0002D02*
X0149Y0D01*
X0148Y0002*
X015Y0001*
X0152Y0002*
X0151Y0*
X0152Y-0002*
X015Y-0001*
X0148Y-0002*
X0128D02*
X0129Y0D01*
X0128Y0002*
X013Y0001*
X0132Y0002*
X0131Y0*
X0132Y-0002*
X013Y-0001*
X0128Y-0002*
X0118Y0008D02*
X0119Y001D01*
X0118Y0012*
X012Y0011*
X0122Y0012*
X0121Y001*
X0122Y0008*
X012Y0009*
X0118Y0008*
X0138D02*
X0139Y001D01*
X0138Y0012*
X014Y0011*
X0142Y0012*
X0141Y001*
X0142Y0008*
X014Y0009*
X0138Y0008*
X0108Y-0012D02*
X0109Y-001D01*
X0108Y-0008*
X011Y-0009*
X0112Y-0008*
X0111Y-001*
X0112Y-0012*
X011Y-0011*
X0108Y-0012*
X0025Y-0018D02*
X0026Y-0016D01*
X0025Y-0014*
X0027Y-0015*
X0029Y-0014*
X0028Y-0016*
X0029Y-0018*
X0027Y-0017*
X0025Y-0018*
X0044D02*
X0045Y-0016D01*
X0044Y-0014*
X0046Y-0015*
X0048Y-0014*
X0047Y-0016*
X0048Y-0018*
X0046Y-0017*
X0044Y-0018*
X0062D02*
X0063Y-0016D01*
X0062Y-0014*
X0064Y-0015*
X0066Y-0014*
X0065Y-0016*
X0066Y-0018*
X0064Y-0017*
X0062Y-0018*
X0086D02*
X0087Y-0016D01*
X0086Y-0014*
X0088Y-0015*
X009Y-0014*
X0089Y-0016*
X009Y-0018*
X0088Y-0017*
X0086Y-0018*
X012D02*
X0121Y-0016D01*
X012Y-0014*
X0122Y-0015*
X0124Y-0014*
X0123Y-0016*
X0124Y-0018*
X0122Y-0017*
X012Y-0018*
X0137D02*
X0138Y-0016D01*
X0137Y-0014*
X0139Y-0015*
X0141Y-0014*
X014Y-0016*
X0141Y-0018*
X0139Y-0017*
X0137Y-0018*
X02Y-001D02*
X0201Y-0008D01*
X02Y-0006*
X0202Y-0007*
X0204Y-0006*
X0203Y-0008*
X0204Y-001*
X0202Y-0009*
X02Y-001*
X0171Y-0009D02*
X0172Y-0007D01*
X0171Y-0005*
X0173Y-0006*
X0175Y-0005*
X0174Y-0007*
X0175Y-0009*
X0173Y-0008*
X0171Y-0009*
X-0013Y-001D02*
X-0012Y-0008D01*
X-0013Y-0006*
X-0011Y-0007*
X-0009Y-0006*
X-001Y-0008*
X-0009Y-001*
X-0011Y-0009*
X-0013Y-001*
X0102Y0247D02*
X0103Y0249D01*
X0102Y0251*
X0104Y025*
X0106Y0251*
X0105Y0249*
X0106Y0247*
X0104Y0248*
X0102Y0247*
X0089D02*
X009Y0249D01*
X0089Y0251*
X0091Y025*
X0093Y0251*
X0092Y0249*
X0093Y0247*
X0091Y0248*
X0089Y0247*
X009Y0237D02*
X0091Y0239D01*
X009Y0241*
X0092Y024*
X0094Y0241*
X0093Y0239*
X0094Y0237*
X0092Y0238*
X009Y0237*
X0012Y0148D02*
X0013Y015D01*
X0012Y0152*
X0014Y0151*
X0016Y0152*
X0015Y015*
X0016Y0148*
X0014Y0149*
X0012Y0148*
X0043Y0094D02*
X0044Y0096D01*
X0043Y0098*
X0045Y0097*
X0047Y0098*
X0046Y0096*
X0047Y0094*
X0045Y0095*
X0043Y0094*
Y0107D02*
X0044Y0109D01*
X0043Y0111*
X0045Y011*
X0047Y0111*
X0046Y0109*
X0047Y0107*
X0045Y0108*
X0043Y0107*
X0027Y0117D02*
X0028Y0119D01*
X0027Y0121*
X0029Y012*
X0031Y0121*
X003Y0119*
X0031Y0117*
X0029Y0118*
X0027Y0117*
Y0104D02*
X0028Y0106D01*
X0027Y0108*
X0029Y0107*
X0031Y0108*
X003Y0106*
X0031Y0104*
X0029Y0105*
X0027Y0104*
X0028Y0073D02*
X0029Y0075D01*
X0028Y0077*
X003Y0076*
X0032Y0077*
X0031Y0075*
X0032Y0073*
X003Y0074*
X0028Y0073*
X0052D02*
X0053Y0075D01*
X0052Y0077*
X0054Y0076*
X0056Y0077*
X0055Y0075*
X0056Y0073*
X0054Y0074*
X0052Y0073*
X0019Y0075D02*
X002Y0077D01*
X0019Y0079*
X0021Y0078*
X0023Y0079*
X0022Y0077*
X0023Y0075*
X0021Y0076*
X0019Y0075*
X0028Y0061D02*
X0029Y0063D01*
X0028Y0065*
X003Y0064*
X0032Y0065*
X0031Y0063*
X0032Y0061*
X003Y0062*
X0028Y0061*
X0036Y0058D02*
X0037Y006D01*
X0036Y0062*
X0038Y0061*
X004Y0062*
X0039Y006*
X004Y0058*
X0038Y0059*
X0036Y0058*
X0069Y0086D02*
X007Y0088D01*
X0069Y009*
X0071Y0089*
X0073Y009*
X0072Y0088*
X0073Y0086*
X0071Y0087*
X0069Y0086*
Y0079D02*
X007Y0081D01*
X0069Y0083*
X0071Y0082*
X0073Y0083*
X0072Y0081*
X0073Y0079*
X0071Y008*
X0069Y0079*
X0083D02*
X0084Y0081D01*
X0083Y0083*
X0085Y0082*
X0087Y0083*
X0086Y0081*
X0087Y0079*
X0085Y008*
X0083Y0079*
X0078Y0086D02*
X0079Y0088D01*
X0078Y009*
X008Y0089*
X0082Y009*
X0081Y0088*
X0082Y0086*
X008Y0087*
X0078Y0086*
Y0079D02*
X0079Y0081D01*
X0078Y0083*
X008Y0082*
X0082Y0083*
X0081Y0081*
X0082Y0079*
X008Y008*
X0078Y0079*
X0072Y0061D02*
X0073Y0063D01*
X0072Y0065*
X0074Y0064*
X0076Y0065*
X0075Y0063*
X0076Y0061*
X0074Y0062*
X0072Y0061*
X004Y0013D02*
X0041Y0015D01*
X004Y0017*
X0042Y0016*
X0044Y0017*
X0043Y0015*
X0044Y0013*
X0042Y0014*
X004Y0013*
X0061Y0002D02*
X0062Y0004D01*
X0061Y0006*
X0063Y0005*
X0065Y0006*
X0064Y0004*
X0065Y0002*
X0063Y0003*
X0061Y0002*
X0064Y0228D02*
X0065Y023D01*
X0064Y0232*
X0066Y0231*
X0068Y0232*
X0067Y023*
X0068Y0228*
X0066Y0229*
X0064Y0228*
Y0241D02*
X0065Y0243D01*
X0064Y0245*
X0066Y0244*
X0068Y0245*
X0067Y0243*
X0068Y0241*
X0066Y0242*
X0064Y0241*
X006Y0224D02*
X0061Y0226D01*
X006Y0228*
X0062Y0227*
X0064Y0228*
X0063Y0226*
X0064Y0224*
X0062Y0225*
X006Y0224*
X0051Y0232D02*
X0052Y0234D01*
X0051Y0236*
X0053Y0235*
X0055Y0236*
X0054Y0234*
X0055Y0232*
X0053Y0233*
X0051Y0232*
X0057Y0242D02*
X0058Y0244D01*
X0057Y0246*
X0059Y0245*
X0061Y0246*
X006Y0244*
X0061Y0242*
X0059Y0243*
X0057Y0242*
X0016Y0211D02*
X0017Y0213D01*
X0016Y0215*
X0018Y0214*
X002Y0215*
X0019Y0213*
X002Y0211*
X0018Y0212*
X0016Y0211*
X0032D02*
X0033Y0213D01*
X0032Y0215*
X0034Y0214*
X0036Y0215*
X0035Y0213*
X0036Y0211*
X0034Y0212*
X0032Y0211*
X-00065Y02105D02*
X-00055Y02125D01*
X-00065Y02145*
X-00045Y02135*
X-00025Y02145*
X-00035Y02125*
X-00025Y02105*
X-00045Y02115*
X-00065Y02105*
X0089Y021D02*
X009Y0212D01*
X0089Y0214*
X0091Y0213*
X0093Y0214*
X0092Y0212*
X0093Y021*
X0091Y0211*
X0089Y021*
X0148D02*
X0149Y0212D01*
X0148Y0214*
X015Y0213*
X0152Y0214*
X0151Y0212*
X0152Y021*
X015Y0211*
X0148Y021*
X0143Y0219D02*
X0144Y0221D01*
X0143Y0223*
X0145Y0222*
X0147Y0223*
X0146Y0221*
X0147Y0219*
X0145Y022*
X0143Y0219*
X0122Y0199D02*
X0123Y0201D01*
X0122Y0203*
X0124Y0202*
X0126Y0203*
X0125Y0201*
X0126Y0199*
X0124Y02*
X0122Y0199*
X0137D02*
X0138Y0201D01*
X0137Y0203*
X0139Y0202*
X0141Y0203*
X014Y0201*
X0141Y0199*
X0139Y02*
X0137Y0199*
X0154D02*
X0155Y0201D01*
X0154Y0203*
X0156Y0202*
X0158Y0203*
X0157Y0201*
X0158Y0199*
X0156Y02*
X0154Y0199*
X0172Y0232D02*
X0173Y0234D01*
X0172Y0236*
X0174Y0235*
X0176Y0236*
X0175Y0234*
X0176Y0232*
X0174Y0233*
X0172Y0232*
X0183Y0263D02*
X0184Y0265D01*
X0183Y0267*
X0185Y0266*
X0187Y0267*
X0186Y0265*
X0187Y0263*
X0185Y0264*
X0183Y0263*
X0126Y0265D02*
X0127Y0267D01*
X0126Y0269*
X0128Y0268*
X013Y0269*
X0129Y0267*
X013Y0265*
X0128Y0266*
X0126Y0265*
X0152Y0274D02*
X0153Y0276D01*
X0152Y0278*
X0154Y0277*
X0156Y0278*
X0155Y0276*
X0156Y0274*
X0154Y0275*
X0152Y0274*
X0113Y0279D02*
X0114Y0281D01*
X0113Y0283*
X0115Y0282*
X0117Y0283*
X0116Y0281*
X0117Y0279*
X0115Y028*
X0113Y0279*
X0102Y029D02*
X0103Y0292D01*
X0102Y0294*
X0104Y0293*
X0106Y0294*
X0105Y0292*
X0106Y029*
X0104Y0291*
X0102Y029*
X0181Y0248D02*
X0182Y025D01*
X0181Y0252*
X0183Y0251*
X0185Y0252*
X0184Y025*
X0185Y0248*
X0183Y0249*
X0181Y0248*
X0176Y0241D02*
X0177Y0243D01*
X0176Y0245*
X0178Y0244*
X018Y0245*
X0179Y0243*
X018Y0241*
X0178Y0242*
X0176Y0241*
X0167Y0249D02*
X0168Y0251D01*
X0167Y0253*
X0169Y0252*
X0171Y0253*
X017Y0251*
X0171Y0249*
X0169Y025*
X0167Y0249*
X0017Y0264D02*
X0018Y0266D01*
X0017Y0268*
X0019Y0267*
X0021Y0268*
X002Y0266*
X0021Y0264*
X0019Y0265*
X0017Y0264*
X0016Y0257D02*
X0017Y0259D01*
X0016Y0261*
X0018Y026*
X002Y0261*
X0019Y0259*
X002Y0257*
X0018Y0258*
X0016Y0257*
X0001Y0233D02*
X0002Y0235D01*
X0001Y0237*
X0003Y0236*
X0005Y0237*
X0004Y0235*
X0005Y0233*
X0003Y0234*
X0001Y0233*
X0024Y0186D02*
X0025Y0188D01*
X0024Y019*
X0026Y0189*
X0028Y019*
X0027Y0188*
X0028Y0186*
X0026Y0187*
X0024Y0186*
X0029Y0199D02*
X003Y0201D01*
X0029Y0203*
X0031Y0202*
X0033Y0203*
X0032Y0201*
X0033Y0199*
X0031Y02*
X0029Y0199*
X0167Y0163D02*
X0168Y0165D01*
X0167Y0167*
X0169Y0166*
X0171Y0167*
X017Y0165*
X0171Y0163*
X0169Y0164*
X0167Y0163*
X0162Y0141D02*
X0163Y0143D01*
X0162Y0145*
X0164Y0144*
X0166Y0145*
X0165Y0143*
X0166Y0141*
X0164Y0142*
X0162Y0141*
X0154Y0136D02*
X0155Y0138D01*
X0154Y014*
X0156Y0139*
X0158Y014*
X0157Y0138*
X0158Y0136*
X0156Y0137*
X0154Y0136*
X0123Y0142D02*
X0124Y0144D01*
X0123Y0146*
X0125Y0145*
X0127Y0146*
X0126Y0144*
X0127Y0142*
X0125Y0143*
X0123Y0142*
X0078Y0144D02*
X0079Y0146D01*
X0078Y0148*
X008Y0147*
X0082Y0148*
X0081Y0146*
X0082Y0144*
X008Y0145*
X0078Y0144*
X0198Y0033D02*
X0199Y0035D01*
X0198Y0037*
X02Y0036*
X0202Y0037*
X0201Y0035*
X0202Y0033*
X02Y0034*
X0198Y0033*
X0162D02*
X0163Y0035D01*
X0162Y0037*
X0164Y0036*
X0166Y0037*
X0165Y0035*
X0166Y0033*
X0164Y0034*
X0162Y0033*
X01525Y00155D02*
X01535Y00175D01*
X01525Y00195*
X01545Y00185*
X01565Y00195*
X01555Y00175*
X01565Y00155*
X01545Y00165*
X01525Y00155*
X016Y0016D02*
X0161Y0018D01*
X016Y002*
X0162Y0019*
X0164Y002*
X0163Y0018*
X0164Y0016*
X0162Y0017*
X016Y0016*
X0182Y0011D02*
X0183Y0013D01*
X0182Y0015*
X0184Y0014*
X0186Y0015*
X0185Y0013*
X0186Y0011*
X0184Y0012*
X0182Y0011*
X0094Y0004D02*
X0095Y0006D01*
X0094Y0008*
X0096Y0007*
X0098Y0008*
X0097Y0006*
X0098Y0004*
X0096Y0005*
X0094Y0004*
Y002D02*
X0095Y0022D01*
X0094Y0024*
X0096Y0023*
X0098Y0024*
X0097Y0022*
X0098Y002*
X0096Y0021*
X0094Y002*
X0073Y001D02*
X0074Y0012D01*
X0073Y0014*
X0075Y0013*
X0077Y0014*
X0076Y0012*
X0077Y001*
X0075Y0011*
X0073Y001*
X0079D02*
X008Y0012D01*
X0079Y0014*
X0081Y0013*
X0083Y0014*
X0082Y0012*
X0083Y001*
X0081Y0011*
X0079Y001*
X0078Y0024D02*
X0079Y0026D01*
X0078Y0028*
X008Y0027*
X0082Y0028*
X0081Y0026*
X0082Y0024*
X008Y0025*
X0078Y0024*
X006Y0013D02*
X0061Y0015D01*
X006Y0017*
X0062Y0016*
X0064Y0017*
X0063Y0015*
X0064Y0013*
X0062Y0014*
X006Y0013*
X0017Y0008D02*
X0018Y001D01*
X0017Y0012*
X0019Y0011*
X0021Y0012*
X002Y001*
X0021Y0008*
X0019Y0009*
X0017Y0008*
Y0029D02*
X0018Y0031D01*
X0017Y0033*
X0019Y0032*
X0021Y0033*
X002Y0031*
X0021Y0029*
X0019Y003*
X0017Y0029*
X0032Y0013D02*
X0033Y0015D01*
X0032Y0017*
X0034Y0016*
X0036Y0017*
X0035Y0015*
X0036Y0013*
X0034Y0014*
X0032Y0013*
Y0025D02*
X0033Y0027D01*
X0032Y0029*
X0034Y0028*
X0036Y0029*
X0035Y0027*
X0036Y0025*
X0034Y0026*
X0032Y0025*
X0005Y0056D02*
X0006Y0058D01*
X0005Y006*
X0007Y0059*
X0009Y006*
X0008Y0058*
X0009Y0056*
X0007Y0057*
X0005Y0056*
X-0011Y0051D02*
X-001Y0053D01*
X-0011Y0055*
X-0009Y0054*
X-0007Y0055*
X-0008Y0053*
X-0007Y0051*
X-0009Y0052*
X-0011Y0051*
X001Y0079D02*
X0011Y0081D01*
X001Y0083*
X0012Y0082*
X0014Y0083*
X0013Y0081*
X0014Y0079*
X0012Y008*
X001Y0079*
X0084Y0121D02*
X0085Y0123D01*
X0084Y0125*
X0086Y0124*
X0088Y0125*
X0087Y0123*
X0088Y0121*
X0086Y0122*
X0084Y0121*
X008Y0116D02*
X0081Y0118D01*
X008Y012*
X0082Y0119*
X0084Y012*
X0083Y0118*
X0084Y0116*
X0082Y0117*
X008Y0116*
X0059Y0108D02*
X006Y011D01*
X0059Y0112*
X0061Y0111*
X0063Y0112*
X0062Y011*
X0063Y0108*
X0061Y0109*
X0059Y0108*
X0108Y0019D02*
X0109Y0021D01*
X0108Y0023*
X011Y0022*
X0112Y0023*
X0111Y0021*
X0112Y0019*
X011Y002*
X0108Y0019*
X-0015Y0059D02*
X-0014Y0061D01*
X-0015Y0063*
X-0013Y0062*
X-0011Y0063*
X-0012Y0061*
X-0011Y0059*
X-0013Y006*
X-0015Y0059*
X0172Y0149D02*
X0173Y0151D01*
X0172Y0153*
X0174Y0152*
X0176Y0153*
X0175Y0151*
X0176Y0149*
X0174Y015*
X0172Y0149*
X0171Y0083D02*
X0172Y0085D01*
X0171Y0087*
X0173Y0086*
X0175Y0087*
X0174Y0085*
X0175Y0083*
X0173Y0084*
X0171Y0083*
X0181Y0102D02*
X0182Y0104D01*
X0181Y0106*
X0183Y0105*
X0185Y0106*
X0184Y0104*
X0185Y0102*
X0183Y0103*
X0181Y0102*
X0199Y0104D02*
X02Y0106D01*
X0199Y0108*
X0201Y0107*
X0203Y0108*
X0202Y0106*
X0203Y0104*
X0201Y0105*
X0199Y0104*
X018Y0052D02*
X0181Y0054D01*
X018Y0056*
X0182Y0055*
X0184Y0056*
X0183Y0054*
X0184Y0052*
X0182Y0053*
X018Y0052*
X0199Y0096D02*
X02Y0098D01*
X0199Y01*
X0201Y0099*
X0203Y01*
X0202Y0098*
X0203Y0096*
X0201Y0097*
X0199Y0096*
X01355Y00305D02*
X01365Y00325D01*
X01355Y00345*
X01375Y00335*
X01395Y00345*
X01385Y00325*
X01395Y00305*
X01375Y00315*
X01355Y00305*
X0135Y0027D02*
X0136Y0029D01*
X0135Y0031*
X0137Y003*
X0139Y0031*
X0138Y0029*
X0139Y0027*
X0137Y0028*
X0135Y0027*
X0145Y0018D02*
X0146Y002D01*
X0145Y0022*
X0147Y0021*
X0149Y0022*
X0148Y002*
X0149Y0018*
X0147Y0019*
X0145Y0018*
X0136Y0016D02*
X0137Y0018D01*
X0136Y002*
X0138Y0019*
X014Y002*
X0139Y0018*
X014Y0016*
X0138Y0017*
X0136Y0016*
X0115Y0015D02*
X0116Y0017D01*
X0115Y0019*
X0117Y0018*
X0119Y0019*
X0118Y0017*
X0119Y0015*
X0117Y0016*
X0115Y0015*
X0149Y0044D02*
X015Y0046D01*
X0149Y0048*
X0151Y0047*
X0153Y0048*
X0152Y0046*
X0153Y0044*
X0151Y0045*
X0149Y0044*
X0164Y0039D02*
X0165Y0041D01*
X0164Y0043*
X0166Y0042*
X0168Y0043*
X0167Y0041*
X0168Y0039*
X0166Y004*
X0164Y0039*
X0153Y0063D02*
X0154Y0065D01*
X0153Y0067*
X0155Y0066*
X0157Y0067*
X0156Y0065*
X0157Y0063*
X0155Y0064*
X0153Y0063*
X0163Y0006D02*
X0164Y0008D01*
X0163Y001*
X0165Y0009*
X0167Y001*
X0166Y0008*
X0167Y0006*
X0165Y0007*
X0163Y0006*
X0178D02*
X0179Y0008D01*
X0178Y001*
X018Y0009*
X0182Y001*
X0181Y0008*
X0182Y0006*
X018Y0007*
X0178Y0006*
X0093Y0216D02*
X0094Y0218D01*
X0093Y022*
X0095Y0219*
X0097Y022*
X0096Y0218*
X0097Y0216*
X0095Y0217*
X0093Y0216*
X-0002Y0242D02*
X-0001Y0244D01*
X-0002Y0246*
X0Y0245*
X0002Y0246*
X0001Y0244*
X0002Y0242*
X0Y0243*
X-0002Y0242*
X-00185Y02225D02*
X-00175Y02245D01*
X-00185Y02265*
X-00165Y02255*
X-00145Y02265*
X-00155Y02245*
X-00145Y02225*
X-00165Y02235*
X-00185Y02225*
X00215Y02125D02*
X00225Y02145D01*
X00215Y02165*
X00235Y02155*
X00255Y02165*
X00245Y02145*
X00255Y02125*
X00235Y02135*
X00215Y02125*
X0028Y0212D02*
X0029Y0214D01*
X0028Y0216*
X003Y0215*
X0032Y0216*
X0031Y0214*
X0032Y0212*
X003Y0213*
X0028Y0212*
X01025Y0234D02*
X01035Y0236D01*
X01025Y0238*
X01045Y0237*
X01065Y0238*
X01055Y0236*
X01065Y0234*
X01045Y0235*
X01025Y0234*
X01Y02355D02*
X0101Y02375D01*
X01Y02395*
X0102Y02385*
X0104Y02395*
X0103Y02375*
X0104Y02355*
X0102Y02365*
X01Y02355*
X00265Y02165D02*
X00275Y02185D01*
X00265Y02205*
X00285Y02195*
X00305Y02205*
X00295Y02185*
X00305Y02165*
X00285Y02175*
X00265Y02165*
X00245Y02125D02*
X00255Y02145D01*
X00245Y02165*
X00265Y02155*
X00285Y02165*
X00275Y02145*
X00285Y02125*
X00265Y02135*
X00245Y02125*
X-0006Y0225D02*
X-0005Y0227D01*
X-0006Y0229*
X-0004Y0228*
X-0002Y0229*
X-0003Y0227*
X-0002Y0225*
X-0004Y0226*
X-0006Y0225*
X0023Y-00005D02*
X0024Y00015D01*
X0023Y00035*
X0025Y00025*
X0027Y00035*
X0026Y00015*
X0027Y-00005*
X0025Y00005*
X0023Y-00005*
X00205Y0002D02*
X00215Y0004D01*
X00205Y0006*
X00225Y0005*
X00245Y0006*
X00235Y0004*
X00245Y0002*
X00225Y0003*
X00205Y0002*
X0123Y0133D02*
X0124Y0135D01*
X0123Y0137*
X0125Y0136*
X0127Y0137*
X0126Y0135*
X0127Y0133*
X0125Y0134*
X0123Y0133*
X01135Y00765D02*
X01145Y00785D01*
X01135Y00805*
X01155Y00795*
X01175Y00805*
X01165Y00785*
X01175Y00765*
X01155Y00775*
X01135Y00765*
X0136Y00645D02*
X0137Y00665D01*
X0136Y00685*
X0138Y00675*
X014Y00685*
X0139Y00665*
X014Y00645*
X0138Y00655*
X0136Y00645*
X01335Y0066D02*
X01345Y0068D01*
X01335Y007*
X01355Y0069*
X01375Y007*
X01365Y0068*
X01375Y0066*
X01355Y0067*
X01335Y0066*
X00515Y01415D02*
Y01405D01*
X00535*
Y01415*
X00545*
Y01435*
X00535*
Y01445*
X00515*
Y01435*
X00505*
Y01415*
X00515*
X004Y01705D02*
Y01695D01*
X0042*
Y01705*
X0043*
Y01725*
X0042*
Y01735*
X004*
Y01725*
X0039*
Y01705*
X004*
X00335Y0179D02*
X00345Y0181D01*
X00335Y0183*
X00355Y0182*
X00375Y0183*
X00365Y0181*
X00375Y0179*
X00355Y018*
X00335Y0179*
X00285Y0097D02*
Y0096D01*
X00305*
Y0097*
X00315*
Y0099*
X00305*
Y01*
X00285*
Y0099*
X00275*
Y0097*
X00285*
X004Y01675D02*
Y01665D01*
X0042*
Y01675*
X0043*
Y01695*
X0042*
Y01705*
X004*
Y01695*
X0039*
Y01675*
X004*
X00155Y01305D02*
X00165Y01325D01*
X00155Y01345*
X00175Y01335*
X00195Y01345*
X00185Y01325*
X00195Y01305*
X00175Y01315*
X00155Y01305*
X00515Y01365D02*
Y01355D01*
X00535*
Y01365*
X00545*
Y01385*
X00535*
Y01395*
X00515*
Y01385*
X00505*
Y01365*
X00515*
X00615Y0128D02*
Y0127D01*
X00635*
Y0128*
X00645*
Y013*
X00635*
Y0131*
X00615*
Y013*
X00605*
Y0128*
X00615*
X0028Y0127D02*
X0029Y0129D01*
X0028Y0131*
X003Y013*
X0032Y0131*
X0031Y0129*
X0032Y0127*
X003Y0128*
X0028Y0127*
X00385D02*
X00395Y0129D01*
X00385Y0131*
X00405Y013*
X00425Y0131*
X00415Y0129*
X00425Y0127*
X00405Y0128*
X00385Y0127*
X01175Y01615D02*
X01185Y01635D01*
X01175Y01655*
X01195Y01645*
X01215Y01655*
X01205Y01635*
X01215Y01615*
X01195Y01625*
X01175Y01615*
Y01555D02*
X01185Y01575D01*
X01175Y01595*
X01195Y01585*
X01215Y01595*
X01205Y01575*
X01215Y01555*
X01195Y01565*
X01175Y01555*
X0131Y01615D02*
X0132Y01635D01*
X0131Y01655*
X0133Y01645*
X0135Y01655*
X0134Y01635*
X0135Y01615*
X0133Y01625*
X0131Y01615*
X01285Y0156D02*
X01295Y0158D01*
X01285Y016*
X01305Y0159*
X01325Y016*
X01315Y0158*
X01325Y0156*
X01305Y0157*
X01285Y0156*
X01035Y01575D02*
X01045Y01595D01*
X01035Y01615*
X01055Y01605*
X01075Y01615*
X01065Y01595*
X01075Y01575*
X01055Y01585*
X01035Y01575*
X00155Y0043D02*
X00165Y0045D01*
X00155Y0047*
X00175Y0046*
X00195Y0047*
X00185Y0045*
X00195Y0043*
X00175Y0044*
X00155Y0043*
X0027D02*
X0028Y0045D01*
X0027Y0047*
X0029Y0046*
X0031Y0047*
X003Y0045*
X0031Y0043*
X0029Y0044*
X0027Y0043*
X00515Y00135D02*
X00525Y00155D01*
X00515Y00175*
X00535Y00165*
X00555Y00175*
X00545Y00155*
X00555Y00135*
X00535Y00145*
X00515Y00135*
X0017Y00245D02*
X0018Y00265D01*
X0017Y00285*
X0019Y00275*
X0021Y00285*
X002Y00265*
X0021Y00245*
X0019Y00255*
X0017Y00245*
X01327Y00718D02*
X01337Y00738D01*
X01327Y00758*
X01347Y00748*
X01367Y00758*
X01357Y00738*
X01367Y00718*
X01347Y00728*
X01327Y00718*
X0038Y0158D02*
X0039Y016D01*
X0038Y0162*
X004Y0161*
X0042Y0162*
X0041Y016*
X0042Y0158*
X004Y0159*
X0038Y0158*
Y01505D02*
X0039Y01525D01*
X0038Y01545*
X004Y01535*
X0042Y01545*
X0041Y01525*
X0042Y01505*
X004Y01515*
X0038Y01505*
X0032Y01395D02*
X0033Y01415D01*
X0032Y01435*
X0034Y01425*
X0036Y01435*
X0035Y01415*
X0036Y01395*
X0034Y01405*
X0032Y01395*
X00265Y01785D02*
X00275Y01805D01*
X00265Y01825*
X00285Y01815*
X00305Y01825*
X00295Y01805*
X00305Y01785*
X00285Y01795*
X00265Y01785*
X0057Y003D02*
X0058Y0032D01*
X0057Y0034*
X0059Y0033*
X0061Y0034*
X006Y0032*
X0061Y003*
X0059Y0031*
X0057Y003*
X0083Y00405D02*
X0084Y00425D01*
X0083Y00445*
X0085Y00435*
X0087Y00445*
X0086Y00425*
X0087Y00405*
X0085Y00415*
X0083Y00405*
X00705Y00395D02*
X00715Y00415D01*
X00705Y00435*
X00725Y00425*
X00745Y00435*
X00735Y00415*
X00745Y00395*
X00725Y00405*
X00705Y00395*
X00755Y00415D02*
X00765Y00435D01*
X00755Y00455*
X00775Y00445*
X00795Y00455*
X00785Y00435*
X00795Y00415*
X00775Y00425*
X00755Y00415*
X0078Y00401D02*
X0079Y00421D01*
X0078Y00441*
X008Y00431*
X0082Y00441*
X0081Y00421*
X0082Y00401*
X008Y00411*
X0078Y00401*
X00105Y00405D02*
X00115Y00425D01*
X00105Y00445*
X00125Y00435*
X00145Y00445*
X00135Y00425*
X00145Y00405*
X00125Y00415*
X00105Y00405*
X00819Y00431D02*
X00829Y00451D01*
X00819Y00471*
X00839Y00461*
X00859Y00471*
X00849Y00451*
X00859Y00431*
X00839Y00441*
X00819Y00431*
X0237Y00259D02*
Y0022D01*
Y00259D02*
X02396Y0022D01*
Y00259D02*
Y0022D01*
X02417Y00246D02*
X02413Y00244D01*
X02409Y0024*
X02407Y00235*
Y00231*
X02409Y00225*
X02413Y00221*
X02417Y0022*
X02422*
X02426Y00221*
X0243Y00225*
X02432Y00231*
Y00235*
X0243Y0024*
X02426Y00244*
X02422Y00246*
X02417*
X02446Y00259D02*
Y00227D01*
X02448Y00221*
X02452Y0022*
X02456*
X02441Y00246D02*
X02454D01*
X02462Y00235D02*
X02485D01*
Y00239*
X02483Y00242*
X02481Y00244*
X02477Y00246*
X02471*
X02467Y00244*
X02464Y0024*
X02462Y00235*
Y00231*
X02464Y00225*
X02467Y00221*
X02471Y0022*
X02477*
X02481Y00221*
X02485Y00225*
X02514Y0024D02*
X02512Y00244D01*
X02506Y00246*
X02501*
X02495Y00244*
X02493Y0024*
X02495Y00237*
X02499Y00235*
X02508Y00233*
X02512Y00231*
X02514Y00227*
Y00225*
X02512Y00221*
X02506Y0022*
X02501*
X02495Y00221*
X02493Y00225*
X02524Y00246D02*
X02522Y00244D01*
X02524Y00242*
X02526Y00244*
X02524Y00246*
Y00223D02*
X02522Y00221D01*
X02524Y0022*
X02526Y00221*
X02524Y00223*
X0253Y02374D02*
X02538Y0239D01*
X0253Y02406*
X02546Y02398*
X02562Y02406*
X02554Y0239*
X02562Y02374*
X02546Y02382*
X0253Y02374*
X02829Y02409D02*
X0285D01*
X02839Y02394*
X02844*
X02848Y02392*
X0285Y0239*
X02852Y02385*
Y02381*
X0285Y02375*
X02846Y02371*
X0284Y0237*
X02835*
X02829Y02371*
X02827Y02373*
X02825Y02377*
X02886Y02396D02*
X02884Y0239D01*
X0288Y02387*
X02874Y02385*
X02872*
X02867Y02387*
X02863Y0239*
X02861Y02396*
Y02398*
X02863Y02404*
X02867Y02408*
X02872Y02409*
X02874*
X0288Y02408*
X02884Y02404*
X02886Y02396*
Y02387*
X02884Y02377*
X0288Y02371*
X02874Y0237*
X0287*
X02865Y02371*
X02863Y02375*
X02921Y02396D02*
X02919Y0239D01*
X02915Y02387*
X0291Y02385*
X02908*
X02902Y02387*
X02898Y0239*
X02896Y02396*
Y02398*
X02898Y02404*
X02902Y02408*
X02908Y02409*
X0291*
X02915Y02408*
X02919Y02404*
X02921Y02396*
Y02387*
X02919Y02377*
X02915Y02371*
X0291Y0237*
X02906*
X029Y02371*
X02898Y02375*
X03214Y02409D02*
X03208Y02408D01*
X03206Y02404*
Y024*
X03208Y02396*
X03212Y02394*
X0322Y02392*
X03226Y0239*
X03229Y02387*
X03231Y02383*
Y02377*
X03229Y02373*
X03227Y02371*
X03222Y0237*
X03214*
X03208Y02371*
X03206Y02373*
X03205Y02377*
Y02383*
X03206Y02387*
X0321Y0239*
X03216Y02392*
X03224Y02394*
X03227Y02396*
X03229Y024*
Y02404*
X03227Y02408*
X03222Y02409*
X03214*
X0324Y02396D02*
Y0237D01*
Y02389D02*
X03246Y02394D01*
X0325Y02396*
X03255*
X03259Y02394*
X03261Y02389*
Y0237*
Y02389D02*
X03267Y02394D01*
X03271Y02396*
X03276*
X0328Y02394*
X03282Y02389*
Y0237*
X03298Y02409D02*
X033Y02408D01*
X03302Y02409*
X033Y02411*
X03298Y02409*
X033Y02396D02*
Y0237D01*
X03309Y02409D02*
Y0237D01*
X03362Y02417D02*
X03359Y02413D01*
X03355Y02408*
X03351Y024*
X03349Y0239*
Y02383*
X03351Y02373*
X03355Y02366*
X03359Y0236*
X03362Y02356*
X03359Y02413D02*
X03355Y02406D01*
X03353Y024*
X03351Y0239*
Y02383*
X03353Y02373*
X03355Y02368*
X03359Y0236*
X03382Y02409D02*
X03376Y02408D01*
X03372Y02402*
X0337Y02392*
Y02387*
X03372Y02377*
X03376Y02371*
X03382Y0237*
X03385*
X03391Y02371*
X03395Y02377*
X03397Y02387*
Y02392*
X03395Y02402*
X03391Y02408*
X03385Y02409*
X03382*
X03408Y02373D02*
X03406Y02371D01*
X03408Y0237*
X0341Y02371*
X03408Y02373*
X0342Y024D02*
Y02402D01*
X03422Y02406*
X03424Y02408*
X03428Y02409*
X03435*
X03439Y02408*
X03441Y02406*
X03443Y02402*
Y02398*
X03441Y02394*
X03437Y02389*
X03418Y0237*
X03445*
X03465Y02409D02*
X0346Y02408D01*
X03456Y02402*
X03454Y02392*
Y02387*
X03456Y02377*
X0346Y02371*
X03465Y0237*
X03469*
X03475Y02371*
X03479Y02377*
X03481Y02387*
Y02392*
X03479Y02402*
X03475Y02408*
X03469Y02409*
X03465*
X03493D02*
X03514D01*
X03503Y02394*
X03509*
X03512Y02392*
X03514Y0239*
X03516Y02385*
Y02381*
X03514Y02375*
X0351Y02371*
X03505Y0237*
X03499*
X03493Y02371*
X03491Y02373*
X03489Y02377*
X03527Y024D02*
Y02402D01*
X03529Y02406*
X03531Y02408*
X03535Y02409*
X03542*
X03546Y02408*
X03548Y02406*
X0355Y02402*
Y02398*
X03548Y02394*
X03544Y02389*
X03525Y0237*
X03552*
X03561Y02396D02*
Y0237D01*
Y02389D02*
X03566Y02394D01*
X0357Y02396*
X03576*
X0358Y02394*
X03582Y02389*
Y0237*
Y02389D02*
X03587Y02394D01*
X03591Y02396*
X03597*
X03601Y02394*
X03603Y02389*
Y0237*
X03615Y02396D02*
Y0237D01*
Y02389D02*
X03621Y02394D01*
X03625Y02396*
X0363*
X03634Y02394*
X03636Y02389*
Y0237*
Y02389D02*
X03642Y02394D01*
X03646Y02396*
X03651*
X03655Y02394*
X03657Y02389*
Y0237*
X0367Y02417D02*
X03673Y02413D01*
X03677Y02408*
X03681Y024*
X03683Y0239*
Y02383*
X03681Y02373*
X03677Y02366*
X03673Y0236*
X0367Y02356*
X03673Y02413D02*
X03677Y02406D01*
X03679Y024*
X03681Y0239*
Y02383*
X03679Y02373*
X03677Y02368*
X03673Y0236*
X03867Y02389D02*
X03884D01*
X0389Y0239*
X03892Y02392*
X03894Y02396*
Y02402*
X03892Y02406*
X0389Y02408*
X03884Y02409*
X03867*
Y0237*
X03916Y02409D02*
Y0237D01*
X03903Y02409D02*
X03929D01*
X03934D02*
Y0237D01*
X03961Y02409D02*
Y0237D01*
X03934Y0239D02*
X03961D01*
X04122Y02409D02*
Y0237D01*
Y02409D02*
X0414D01*
X04145Y02408*
X04147Y02406*
X04149Y02402*
Y02398*
X04147Y02394*
X04145Y02392*
X0414Y0239*
X04122*
X04136D02*
X04149Y0237D01*
X04168Y02396D02*
X04164Y02394D01*
X0416Y0239*
X04158Y02385*
Y02381*
X0416Y02375*
X04164Y02371*
X04168Y0237*
X04173*
X04177Y02371*
X04181Y02375*
X04183Y02381*
Y02385*
X04181Y0239*
X04177Y02394*
X04173Y02396*
X04168*
X04191D02*
Y02377D01*
X04193Y02371*
X04197Y0237*
X04203*
X04207Y02371*
X04212Y02377*
Y02396D02*
Y0237D01*
X04223Y02396D02*
Y0237D01*
Y02389D02*
X04229Y02394D01*
X04232Y02396*
X04238*
X04242Y02394*
X04244Y02389*
Y0237*
X04277Y02409D02*
Y0237D01*
Y0239D02*
X04273Y02394D01*
X0427Y02396*
X04264*
X0426Y02394*
X04256Y0239*
X04254Y02385*
Y02381*
X04256Y02375*
X0426Y02371*
X04264Y0237*
X0427*
X04273Y02371*
X04277Y02375*
X02538Y02302D02*
Y02294D01*
X02554*
Y02302*
X02562*
Y02318*
X02554*
Y02326*
X02538*
Y02318*
X0253*
Y02302*
X02538*
X02827Y0232D02*
Y02322D01*
X02829Y02326*
X02831Y02328*
X02835Y02329*
X02842*
X02846Y02328*
X02848Y02326*
X0285Y02322*
Y02318*
X02848Y02314*
X02844Y02309*
X02825Y0229*
X02852*
X02884Y02324D02*
X02882Y02328D01*
X02876Y02329*
X02872*
X02867Y02328*
X02863Y02322*
X02861Y02312*
Y02303*
X02863Y02295*
X02867Y02291*
X02872Y0229*
X02874*
X0288Y02291*
X02884Y02295*
X02886Y02301*
Y02303*
X02884Y02309*
X0288Y02312*
X02874Y02314*
X02872*
X02867Y02312*
X02863Y02309*
X02861Y02303*
X03205Y02322D02*
X03208Y02324D01*
X03214Y02329*
Y0229*
X03238Y02329D02*
X03259D01*
X03247Y02314*
X03253*
X03257Y02312*
X03259Y0231*
X03261Y02305*
Y02301*
X03259Y02295*
X03255Y02291*
X03249Y0229*
X03243*
X03238Y02291*
X03236Y02293*
X03234Y02297*
X0327Y02316D02*
Y0229D01*
Y02309D02*
X03275Y02314D01*
X03279Y02316*
X03285*
X03289Y02314*
X0329Y02309*
Y0229*
Y02309D02*
X03296Y02314D01*
X033Y02316*
X03306*
X0331Y02314*
X03311Y02309*
Y0229*
X03328Y02329D02*
X0333Y02328D01*
X03332Y02329*
X0333Y02331*
X03328Y02329*
X0333Y02316D02*
Y0229D01*
X03339Y02329D02*
Y0229D01*
X03392Y02337D02*
X03388Y02333D01*
X03384Y02328*
X0338Y0232*
X03378Y0231*
Y02303*
X0338Y02293*
X03384Y02286*
X03388Y0228*
X03392Y02276*
X03388Y02333D02*
X03384Y02326D01*
X03382Y0232*
X0338Y0231*
Y02303*
X03382Y02293*
X03384Y02288*
X03388Y0228*
X03411Y02329D02*
X03405Y02328D01*
X03401Y02322*
X03399Y02312*
Y02307*
X03401Y02297*
X03405Y02291*
X03411Y0229*
X03415*
X0342Y02291*
X03424Y02297*
X03426Y02307*
Y02312*
X03424Y02322*
X0342Y02328*
X03415Y02329*
X03411*
X03437Y02293D02*
X03435Y02291D01*
X03437Y0229*
X03439Y02291*
X03437Y02293*
X03451Y02329D02*
X03472D01*
X03461Y02314*
X03467*
X0347Y02312*
X03472Y0231*
X03474Y02305*
Y02301*
X03472Y02295*
X03469Y02291*
X03463Y0229*
X03457*
X03451Y02291*
X03449Y02293*
X03448Y02297*
X03487Y02329D02*
X03508D01*
X03497Y02314*
X03502*
X03506Y02312*
X03508Y0231*
X0351Y02305*
Y02301*
X03508Y02295*
X03504Y02291*
X03498Y0229*
X03493*
X03487Y02291*
X03485Y02293*
X03483Y02297*
X0353Y02329D02*
X03525Y02328D01*
X03521Y02322*
X03519Y02312*
Y02307*
X03521Y02297*
X03525Y02291*
X0353Y0229*
X03534*
X0354Y02291*
X03544Y02297*
X03545Y02307*
Y02312*
X03544Y02322*
X0354Y02328*
X03534Y02329*
X0353*
X03556Y0232D02*
Y02322D01*
X03558Y02326*
X0356Y02328*
X03564Y02329*
X03572*
X03575Y02328*
X03577Y02326*
X03579Y02322*
Y02318*
X03577Y02314*
X03573Y02309*
X03554Y0229*
X03581*
X0359Y02316D02*
Y0229D01*
Y02309D02*
X03596Y02314D01*
X036Y02316*
X03605*
X03609Y02314*
X03611Y02309*
Y0229*
Y02309D02*
X03617Y02314D01*
X03621Y02316*
X03626*
X0363Y02314*
X03632Y02309*
Y0229*
X03644Y02316D02*
Y0229D01*
Y02309D02*
X0365Y02314D01*
X03654Y02316*
X0366*
X03664Y02314*
X03665Y02309*
Y0229*
Y02309D02*
X03671Y02314D01*
X03675Y02316*
X03681*
X03684Y02314*
X03686Y02309*
Y0229*
X03699Y02337D02*
X03703Y02333D01*
X03707Y02328*
X0371Y0232*
X03712Y0231*
Y02303*
X0371Y02293*
X03707Y02286*
X03703Y0228*
X03699Y02276*
X03703Y02333D02*
X03707Y02326D01*
X03708Y0232*
X0371Y0231*
Y02303*
X03708Y02293*
X03707Y02288*
X03703Y0228*
X03867Y02309D02*
X03884D01*
X0389Y0231*
X03892Y02312*
X03894Y02316*
Y02322*
X03892Y02326*
X0389Y02328*
X03884Y02329*
X03867*
Y0229*
X03916Y02329D02*
Y0229D01*
X03903Y02329D02*
X03929D01*
X03934D02*
Y0229D01*
X03961Y02329D02*
Y0229D01*
X03934Y0231D02*
X03961D01*
X04122Y02329D02*
Y0229D01*
Y02329D02*
X0414D01*
X04145Y02328*
X04147Y02326*
X04149Y02322*
Y02318*
X04147Y02314*
X04145Y02312*
X0414Y0231*
X04122*
X04136D02*
X04149Y0229D01*
X04168Y02316D02*
X04164Y02314D01*
X0416Y0231*
X04158Y02305*
Y02301*
X0416Y02295*
X04164Y02291*
X04168Y0229*
X04173*
X04177Y02291*
X04181Y02295*
X04183Y02301*
Y02305*
X04181Y0231*
X04177Y02314*
X04173Y02316*
X04168*
X04191D02*
Y02297D01*
X04193Y02291*
X04197Y0229*
X04203*
X04207Y02291*
X04212Y02297*
Y02316D02*
Y0229D01*
X04223Y02316D02*
Y0229D01*
Y02309D02*
X04229Y02314D01*
X04232Y02316*
X04238*
X04242Y02314*
X04244Y02309*
Y0229*
X04277Y02329D02*
Y0229D01*
Y0231D02*
X04273Y02314D01*
X0427Y02316*
X04264*
X0426Y02314*
X04256Y0231*
X04254Y02305*
Y02301*
X04256Y02295*
X0426Y02291*
X04264Y0229*
X0427*
X04273Y02291*
X04277Y02295*
X02546Y02214D02*
X0253Y02246D01*
X02562*
X02546Y02214*
X02844Y02249D02*
X02825Y02223D01*
X02854*
X02844Y02249D02*
Y0221D01*
X03206Y0224D02*
Y02242D01*
X03208Y02246*
X0321Y02248*
X03214Y02249*
X03222*
X03226Y02248*
X03227Y02246*
X03229Y02242*
Y02238*
X03227Y02234*
X03224Y02229*
X03205Y0221*
X03231*
X0325Y02249D02*
X03244Y02248D01*
X03242Y02244*
Y0224*
X03244Y02236*
X03248Y02234*
X03255Y02232*
X03261Y0223*
X03265Y02227*
X03267Y02223*
Y02217*
X03265Y02213*
X03263Y02211*
X03257Y0221*
X0325*
X03244Y02211*
X03242Y02213*
X0324Y02217*
Y02223*
X03242Y02227*
X03246Y0223*
X03252Y02232*
X03259Y02234*
X03263Y02236*
X03265Y0224*
Y02244*
X03263Y02248*
X03257Y02249*
X0325*
X03276Y02236D02*
Y0221D01*
Y02229D02*
X03282Y02234D01*
X03285Y02236*
X03291*
X03295Y02234*
X03297Y02229*
Y0221*
Y02229D02*
X03302Y02234D01*
X03306Y02236*
X03312*
X03316Y02234*
X03318Y02229*
Y0221*
X03334Y02249D02*
X03336Y02248D01*
X03338Y02249*
X03336Y02251*
X03334Y02249*
X03336Y02236D02*
Y0221D01*
X03345Y02249D02*
Y0221D01*
X03398Y02257D02*
X03394Y02253D01*
X0339Y02248*
X03387Y0224*
X03385Y0223*
Y02223*
X03387Y02213*
X0339Y02206*
X03394Y022*
X03398Y02196*
X03394Y02253D02*
X0339Y02246D01*
X03389Y0224*
X03387Y0223*
Y02223*
X03389Y02213*
X0339Y02208*
X03394Y022*
X03417Y02249D02*
X03411Y02248D01*
X03408Y02242*
X03406Y02232*
Y02227*
X03408Y02217*
X03411Y02211*
X03417Y0221*
X03421*
X03427Y02211*
X0343Y02217*
X03432Y02227*
Y02232*
X0343Y02242*
X03427Y02248*
X03421Y02249*
X03417*
X03443Y02213D02*
X03441Y02211D01*
X03443Y0221*
X03445Y02211*
X03443Y02213*
X03481Y02249D02*
X03461Y0221D01*
X03454Y02249D02*
X03481D01*
X03489Y02242D02*
X03493Y02244D01*
X03499Y02249*
Y0221*
X03519Y02242D02*
X03523Y02244D01*
X03528Y02249*
Y0221*
X0355Y0224D02*
Y02242D01*
X03552Y02246*
X03554Y02248*
X03558Y02249*
X03565*
X03569Y02248*
X03571Y02246*
X03573Y02242*
Y02238*
X03571Y02234*
X03567Y02229*
X03548Y0221*
X03575*
X03584Y02236D02*
Y0221D01*
Y02229D02*
X03589Y02234D01*
X03593Y02236*
X03599*
X03603Y02234*
X03605Y02229*
Y0221*
Y02229D02*
X0361Y02234D01*
X03614Y02236*
X0362*
X03624Y02234*
X03626Y02229*
Y0221*
X03638Y02236D02*
Y0221D01*
Y02229D02*
X03644Y02234D01*
X03648Y02236*
X03653*
X03657Y02234*
X03659Y02229*
Y0221*
Y02229D02*
X03665Y02234D01*
X03669Y02236*
X03674*
X03678Y02234*
X0368Y02229*
Y0221*
X03693Y02257D02*
X03696Y02253D01*
X037Y02248*
X03704Y0224*
X03706Y0223*
Y02223*
X03704Y02213*
X037Y02206*
X03696Y022*
X03693Y02196*
X03696Y02253D02*
X037Y02246D01*
X03702Y0224*
X03704Y0223*
Y02223*
X03702Y02213*
X037Y02208*
X03696Y022*
X03867Y02229D02*
X03884D01*
X0389Y0223*
X03892Y02232*
X03894Y02236*
Y02242*
X03892Y02246*
X0389Y02248*
X03884Y02249*
X03867*
Y0221*
X03916Y02249D02*
Y0221D01*
X03903Y02249D02*
X03929D01*
X03934D02*
Y0221D01*
X03961Y02249D02*
Y0221D01*
X03934Y0223D02*
X03961D01*
X04122Y02249D02*
Y0221D01*
Y02249D02*
X0414D01*
X04145Y02248*
X04147Y02246*
X04149Y02242*
Y02238*
X04147Y02234*
X04145Y02232*
X0414Y0223*
X04122*
X04136D02*
X04149Y0221D01*
X04168Y02236D02*
X04164Y02234D01*
X0416Y0223*
X04158Y02225*
Y02221*
X0416Y02215*
X04164Y02211*
X04168Y0221*
X04173*
X04177Y02211*
X04181Y02215*
X04183Y02221*
Y02225*
X04181Y0223*
X04177Y02234*
X04173Y02236*
X04168*
X04191D02*
Y02217D01*
X04193Y02211*
X04197Y0221*
X04203*
X04207Y02211*
X04212Y02217*
Y02236D02*
Y0221D01*
X04223Y02236D02*
Y0221D01*
Y02229D02*
X04229Y02234D01*
X04232Y02236*
X04238*
X04242Y02234*
X04244Y02229*
Y0221*
X04277Y02249D02*
Y0221D01*
Y0223D02*
X04273Y02234D01*
X0427Y02236*
X04264*
X0426Y02234*
X04256Y0223*
X04254Y02225*
Y02221*
X04256Y02215*
X0426Y02211*
X04264Y0221*
X0427*
X04273Y02211*
X04277Y02215*
X02844Y02169D02*
X02825Y02143D01*
X02854*
X02844Y02169D02*
Y0213D01*
X03208Y02169D02*
X03229D01*
X03218Y02154*
X03224*
X03227Y02152*
X03229Y0215*
X03231Y02145*
Y02141*
X03229Y02135*
X03226Y02131*
X0322Y0213*
X03214*
X03208Y02131*
X03206Y02133*
X03205Y02137*
X03265Y02156D02*
X03263Y0215D01*
X03259Y02147*
X03254Y02145*
X03252*
X03246Y02147*
X03242Y0215*
X0324Y02156*
Y02158*
X03242Y02164*
X03246Y02168*
X03252Y02169*
X03254*
X03259Y02168*
X03263Y02164*
X03265Y02156*
Y02147*
X03263Y02137*
X03259Y02131*
X03254Y0213*
X0325*
X03244Y02131*
X03242Y02135*
X03278Y02133D02*
X03276Y02131D01*
X03278Y0213*
X0328Y02131*
X03278Y02133*
X03292Y02169D02*
X03313D01*
X03302Y02154*
X03307*
X03311Y02152*
X03313Y0215*
X03315Y02145*
Y02141*
X03313Y02135*
X03309Y02131*
X03304Y0213*
X03298*
X03292Y02131*
X0329Y02133*
X03288Y02137*
X03351Y02169D02*
X03332Y0213D01*
X03324Y02169D02*
X03351D01*
X0336Y02156D02*
Y0213D01*
Y02149D02*
X03365Y02154D01*
X03369Y02156*
X03375*
X03379Y02154*
X03381Y02149*
Y0213*
Y02149D02*
X03386Y02154D01*
X0339Y02156*
X03396*
X034Y02154*
X03402Y02149*
Y0213*
X03418Y02169D02*
X0342Y02168D01*
X03422Y02169*
X0342Y02171*
X03418Y02169*
X0342Y02156D02*
Y0213D01*
X03429Y02169D02*
Y0213D01*
X03482Y02177D02*
X03478Y02173D01*
X03474Y02168*
X0347Y0216*
X03469Y0215*
Y02143*
X0347Y02133*
X03474Y02126*
X03478Y0212*
X03482Y02116*
X03478Y02173D02*
X03474Y02166D01*
X03472Y0216*
X0347Y0215*
Y02143*
X03472Y02133*
X03474Y02128*
X03478Y0212*
X03489Y02162D02*
X03493Y02164D01*
X03499Y02169*
Y0213*
X03519Y02156D02*
Y0213D01*
Y02149D02*
X03525Y02154D01*
X03528Y02156*
X03534*
X03538Y02154*
X0354Y02149*
Y0213*
Y02149D02*
X03545Y02154D01*
X03549Y02156*
X03555*
X03559Y02154*
X03561Y02149*
Y0213*
X03573Y02156D02*
Y0213D01*
Y02149D02*
X03579Y02154D01*
X03583Y02156*
X03589*
X03592Y02154*
X03594Y02149*
Y0213*
Y02149D02*
X036Y02154D01*
X03604Y02156*
X03609*
X03613Y02154*
X03615Y02149*
Y0213*
X03628Y02177D02*
X03632Y02173D01*
X03635Y02168*
X03639Y0216*
X03641Y0215*
Y02143*
X03639Y02133*
X03635Y02126*
X03632Y0212*
X03628Y02116*
X03632Y02173D02*
X03635Y02166D01*
X03637Y0216*
X03639Y0215*
Y02143*
X03637Y02133*
X03635Y02128*
X03632Y0212*
X03867Y02169D02*
Y0213D01*
Y02169D02*
X03894Y0213D01*
Y02169D02*
Y0213D01*
X03905Y02149D02*
X03922D01*
X03928Y0215*
X0393Y02152*
X03931Y02156*
Y02162*
X0393Y02166*
X03928Y02168*
X03922Y02169*
X03905*
Y0213*
X03954Y02169D02*
Y0213D01*
X0394Y02169D02*
X03967D01*
X03972D02*
Y0213D01*
X03998Y02169D02*
Y0213D01*
X03972Y0215D02*
X03998D01*
X04122Y02169D02*
Y0213D01*
Y02169D02*
X0414D01*
X04145Y02168*
X04147Y02166*
X04149Y02162*
Y02158*
X04147Y02154*
X04145Y02152*
X0414Y0215*
X04122*
X04136D02*
X04149Y0213D01*
X04168Y02156D02*
X04164Y02154D01*
X0416Y0215*
X04158Y02145*
Y02141*
X0416Y02135*
X04164Y02131*
X04168Y0213*
X04173*
X04177Y02131*
X04181Y02135*
X04183Y02141*
Y02145*
X04181Y0215*
X04177Y02154*
X04173Y02156*
X04168*
X04191D02*
Y02137D01*
X04193Y02131*
X04197Y0213*
X04203*
X04207Y02131*
X04212Y02137*
Y02156D02*
Y0213D01*
X04223Y02156D02*
Y0213D01*
Y02149D02*
X04229Y02154D01*
X04232Y02156*
X04238*
X04242Y02154*
X04244Y02149*
Y0213*
X04277Y02169D02*
Y0213D01*
Y0215D02*
X04273Y02154D01*
X0427Y02156*
X04264*
X0426Y02154*
X04256Y0215*
X04254Y02145*
Y02141*
X04256Y02135*
X0426Y02131*
X04264Y0213*
X0427*
X04273Y02131*
X04277Y02135*
X0253Y02054D02*
Y02086D01*
X02562*
Y02054*
X0253*
X02825Y02082D02*
X02829Y02084D01*
X02835Y02089*
Y0205*
X02858Y02089D02*
X02879D01*
X02868Y02074*
X02874*
X02877Y02072*
X02879Y0207*
X02881Y02065*
Y02061*
X02879Y02055*
X02876Y02051*
X0287Y0205*
X02864*
X02858Y02051*
X02856Y02053*
X02855Y02057*
X02894Y02089D02*
X02915D01*
X02903Y02074*
X02909*
X02913Y02072*
X02915Y0207*
X02917Y02065*
Y02061*
X02915Y02055*
X02911Y02051*
X02905Y0205*
X029*
X02894Y02051*
X02892Y02053*
X0289Y02057*
X03224Y02089D02*
X03205Y02063D01*
X03233*
X03224Y02089D02*
Y0205D01*
X03252Y02089D02*
X03246Y02088D01*
X03242Y02082*
X0324Y02072*
Y02067*
X03242Y02057*
X03246Y02051*
X03252Y0205*
X03255*
X03261Y02051*
X03265Y02057*
X03267Y02067*
Y02072*
X03265Y02082*
X03261Y02088*
X03255Y02089*
X03252*
X03276Y02076D02*
Y0205D01*
Y02069D02*
X03282Y02074D01*
X03285Y02076*
X03291*
X03295Y02074*
X03297Y02069*
Y0205*
Y02069D02*
X03302Y02074D01*
X03306Y02076*
X03312*
X03316Y02074*
X03318Y02069*
Y0205*
X03334Y02089D02*
X03336Y02088D01*
X03338Y02089*
X03336Y02091*
X03334Y02089*
X03336Y02076D02*
Y0205D01*
X03345Y02089D02*
Y0205D01*
X03398Y02097D02*
X03394Y02093D01*
X0339Y02088*
X03387Y0208*
X03385Y0207*
Y02063*
X03387Y02053*
X0339Y02046*
X03394Y0204*
X03398Y02036*
X03394Y02093D02*
X0339Y02086D01*
X03389Y0208*
X03387Y0207*
Y02063*
X03389Y02053*
X0339Y02048*
X03394Y0204*
X03406Y02082D02*
X0341Y02084D01*
X03415Y02089*
Y0205*
X03437Y02053D02*
X03435Y02051D01*
X03437Y0205*
X03439Y02051*
X03437Y02053*
X03459Y02089D02*
X03453Y02088D01*
X03449Y02082*
X03448Y02072*
Y02067*
X03449Y02057*
X03453Y02051*
X03459Y0205*
X03463*
X03469Y02051*
X03472Y02057*
X03474Y02067*
Y02072*
X03472Y02082*
X03469Y02088*
X03463Y02089*
X03459*
X03483Y02082D02*
X03487Y02084D01*
X03493Y02089*
Y0205*
X03535Y02084D02*
X03533Y02088D01*
X03528Y02089*
X03524*
X03518Y02088*
X03514Y02082*
X03513Y02072*
Y02063*
X03514Y02055*
X03518Y02051*
X03524Y0205*
X03526*
X03532Y02051*
X03535Y02055*
X03537Y02061*
Y02063*
X03535Y02069*
X03532Y02072*
X03526Y02074*
X03524*
X03518Y02072*
X03514Y02069*
X03513Y02063*
X03546Y02076D02*
Y0205D01*
Y02069D02*
X03552Y02074D01*
X03556Y02076*
X03561*
X03565Y02074*
X03567Y02069*
Y0205*
Y02069D02*
X03573Y02074D01*
X03577Y02076*
X03582*
X03586Y02074*
X03588Y02069*
Y0205*
X03601Y02076D02*
Y0205D01*
Y02069D02*
X03606Y02074D01*
X0361Y02076*
X03616*
X0362Y02074*
X03621Y02069*
Y0205*
Y02069D02*
X03627Y02074D01*
X03631Y02076*
X03637*
X0364Y02074*
X03642Y02069*
Y0205*
X03655Y02097D02*
X03659Y02093D01*
X03663Y02088*
X03666Y0208*
X03668Y0207*
Y02063*
X03666Y02053*
X03663Y02046*
X03659Y0204*
X03655Y02036*
X03659Y02093D02*
X03663Y02086D01*
X03664Y0208*
X03666Y0207*
Y02063*
X03664Y02053*
X03663Y02048*
X03659Y0204*
X03867Y02069D02*
X03884D01*
X0389Y0207*
X03892Y02072*
X03894Y02076*
Y02082*
X03892Y02086*
X0389Y02088*
X03884Y02089*
X03867*
Y0205*
X03916Y02089D02*
Y0205D01*
X03903Y02089D02*
X03929D01*
X03934D02*
Y0205D01*
X03961Y02089D02*
Y0205D01*
X03934Y0207D02*
X03961D01*
X04122Y02089D02*
Y0205D01*
Y02089D02*
X0414D01*
X04145Y02088*
X04147Y02086*
X04149Y02082*
Y02078*
X04147Y02074*
X04145Y02072*
X0414Y0207*
X04122*
X04136D02*
X04149Y0205D01*
X04168Y02076D02*
X04164Y02074D01*
X0416Y0207*
X04158Y02065*
Y02061*
X0416Y02055*
X04164Y02051*
X04168Y0205*
X04173*
X04177Y02051*
X04181Y02055*
X04183Y02061*
Y02065*
X04181Y0207*
X04177Y02074*
X04173Y02076*
X04168*
X04191D02*
Y02057D01*
X04193Y02051*
X04197Y0205*
X04203*
X04207Y02051*
X04212Y02057*
Y02076D02*
Y0205D01*
X04223Y02076D02*
Y0205D01*
Y02069D02*
X04229Y02074D01*
X04232Y02076*
X04238*
X04242Y02074*
X04244Y02069*
Y0205*
X04277Y02089D02*
Y0205D01*
Y0207D02*
X04273Y02074D01*
X0427Y02076*
X04264*
X0426Y02074*
X04256Y0207*
X04254Y02065*
Y02061*
X04256Y02055*
X0426Y02051*
X04264Y0205*
X0427*
X04273Y02051*
X04277Y02055*
X02546Y01974D02*
X02554Y01982D01*
X02562*
X02554Y0199*
X02562Y01998*
X02554*
X02546Y02006*
X02538Y01998*
X0253*
X02538Y0199*
X0253Y01982*
X02538*
X02546Y01974*
X02829Y02009D02*
X0285D01*
X02839Y01994*
X02844*
X02848Y01992*
X0285Y0199*
X02852Y01985*
Y01981*
X0285Y01975*
X02846Y01971*
X0284Y0197*
X02835*
X02829Y01971*
X02827Y01973*
X02825Y01977*
X03205Y02002D02*
X03208Y02004D01*
X03214Y02009*
Y0197*
X03236Y02D02*
Y02002D01*
X03238Y02006*
X0324Y02008*
X03243Y02009*
X03251*
X03255Y02008*
X03257Y02006*
X03259Y02002*
Y01998*
X03257Y01994*
X03253Y01989*
X03234Y0197*
X03261*
X03292Y02009D02*
X03273D01*
X03271Y01992*
X03273Y01994*
X03279Y01996*
X03285*
X0329Y01994*
X03294Y0199*
X03296Y01985*
Y01981*
X03294Y01975*
X0329Y01971*
X03285Y0197*
X03279*
X03273Y01971*
X03271Y01973*
X0327Y01977*
X03307Y01973D02*
X03305Y01971D01*
X03307Y0197*
X03309Y01971*
X03307Y01973*
X03342Y01996D02*
X03341Y0199D01*
X03337Y01987*
X03331Y01985*
X03329*
X03323Y01987*
X0332Y0199*
X03318Y01996*
Y01998*
X0332Y02004*
X03323Y02008*
X03329Y02009*
X03331*
X03337Y02008*
X03341Y02004*
X03342Y01996*
Y01987*
X03341Y01977*
X03337Y01971*
X03331Y0197*
X03327*
X03322Y01971*
X0332Y01975*
X03363Y02009D02*
X03357Y02008D01*
X03355Y02004*
Y02*
X03357Y01996*
X03361Y01994*
X03369Y01992*
X03374Y0199*
X03378Y01987*
X0338Y01983*
Y01977*
X03378Y01973*
X03376Y01971*
X0337Y0197*
X03363*
X03357Y01971*
X03355Y01973*
X03353Y01977*
Y01983*
X03355Y01987*
X03359Y0199*
X03365Y01992*
X03372Y01994*
X03376Y01996*
X03378Y02*
Y02004*
X03376Y02008*
X0337Y02009*
X03363*
X03408D02*
X03389Y01983D01*
X03417*
X03408Y02009D02*
Y0197D01*
X03425Y01996D02*
Y0197D01*
Y01989D02*
X0343Y01994D01*
X03434Y01996*
X0344*
X03444Y01994*
X03445Y01989*
Y0197*
Y01989D02*
X03451Y01994D01*
X03455Y01996*
X03461*
X03465Y01994*
X03466Y01989*
Y0197*
X03483Y02009D02*
X03485Y02008D01*
X03487Y02009*
X03485Y02011*
X03483Y02009*
X03485Y01996D02*
Y0197D01*
X03494Y02009D02*
Y0197D01*
X03547Y02017D02*
X03543Y02013D01*
X03539Y02008*
X03535Y02*
X03533Y0199*
Y01983*
X03535Y01973*
X03539Y01966*
X03543Y0196*
X03547Y01956*
X03543Y02013D02*
X03539Y02006D01*
X03537Y02*
X03535Y0199*
Y01983*
X03537Y01973*
X03539Y01968*
X03543Y0196*
X03558Y02009D02*
X03579D01*
X03568Y01994*
X03573*
X03577Y01992*
X03579Y0199*
X03581Y01985*
Y01981*
X03579Y01975*
X03575Y01971*
X0357Y0197*
X03564*
X03558Y01971*
X03556Y01973*
X03554Y01977*
X03592Y01973D02*
X0359Y01971D01*
X03592Y0197*
X03594Y01971*
X03592Y01973*
X03605Y02D02*
Y02002D01*
X03606Y02006*
X03608Y02008*
X03612Y02009*
X0362*
X03624Y02008*
X03625Y02006*
X03627Y02002*
Y01998*
X03625Y01994*
X03622Y01989*
X03603Y0197*
X03629*
X03638Y01996D02*
Y0197D01*
Y01989D02*
X03644Y01994D01*
X03648Y01996*
X03653*
X03657Y01994*
X03659Y01989*
Y0197*
Y01989D02*
X03665Y01994D01*
X03669Y01996*
X03674*
X03678Y01994*
X0368Y01989*
Y0197*
X03693Y01996D02*
Y0197D01*
Y01989D02*
X03698Y01994D01*
X03702Y01996*
X03708*
X03712Y01994*
X03714Y01989*
Y0197*
Y01989D02*
X03719Y01994D01*
X03723Y01996*
X03729*
X03733Y01994*
X03735Y01989*
Y0197*
X03747Y02017D02*
X03751Y02013D01*
X03755Y02008*
X03759Y02*
X0376Y0199*
Y01983*
X03759Y01973*
X03755Y01966*
X03751Y0196*
X03747Y01956*
X03751Y02013D02*
X03755Y02006D01*
X03757Y02*
X03759Y0199*
Y01983*
X03757Y01973*
X03755Y01968*
X03751Y0196*
X03867Y02009D02*
Y0197D01*
Y02009D02*
X03894Y0197D01*
Y02009D02*
Y0197D01*
X03905Y01989D02*
X03922D01*
X03928Y0199*
X0393Y01992*
X03931Y01996*
Y02002*
X0393Y02006*
X03928Y02008*
X03922Y02009*
X03905*
Y0197*
X03954Y02009D02*
Y0197D01*
X0394Y02009D02*
X03967D01*
X03972D02*
Y0197D01*
X03998Y02009D02*
Y0197D01*
X03972Y0199D02*
X03998D01*
X04122Y02009D02*
Y0197D01*
Y02009D02*
X0414D01*
X04145Y02008*
X04147Y02006*
X04149Y02002*
Y01998*
X04147Y01994*
X04145Y01992*
X0414Y0199*
X04122*
X04136D02*
X04149Y0197D01*
X04168Y01996D02*
X04164Y01994D01*
X0416Y0199*
X04158Y01985*
Y01981*
X0416Y01975*
X04164Y01971*
X04168Y0197*
X04173*
X04177Y01971*
X04181Y01975*
X04183Y01981*
Y01985*
X04181Y0199*
X04177Y01994*
X04173Y01996*
X04168*
X04191D02*
Y01977D01*
X04193Y01971*
X04197Y0197*
X04203*
X04207Y01971*
X04212Y01977*
Y01996D02*
Y0197D01*
X04223Y01996D02*
Y0197D01*
Y01989D02*
X04229Y01994D01*
X04232Y01996*
X04238*
X04242Y01994*
X04244Y01989*
Y0197*
X04277Y02009D02*
Y0197D01*
Y0199D02*
X04273Y01994D01*
X0427Y01996*
X04264*
X0426Y01994*
X04256Y0199*
X04254Y01985*
Y01981*
X04256Y01975*
X0426Y01971*
X04264Y0197*
X0427*
X04273Y01971*
X04277Y01975*
X02848Y01929D02*
X02829D01*
X02827Y01912*
X02829Y01914*
X02835Y01916*
X0284*
X02846Y01914*
X0285Y0191*
X02852Y01905*
Y01901*
X0285Y01895*
X02846Y01891*
X0284Y0189*
X02835*
X02829Y01891*
X02827Y01893*
X02825Y01897*
X02884Y01924D02*
X02882Y01928D01*
X02876Y01929*
X02872*
X02867Y01928*
X02863Y01922*
X02861Y01912*
Y01903*
X02863Y01895*
X02867Y01891*
X02872Y0189*
X02874*
X0288Y01891*
X02884Y01895*
X02886Y01901*
Y01903*
X02884Y01909*
X0288Y01912*
X02874Y01914*
X02872*
X02867Y01912*
X02863Y01909*
X02861Y01903*
X02919Y01916D02*
X02917Y0191D01*
X02913Y01907*
X02908Y01905*
X02906*
X029Y01907*
X02896Y0191*
X02894Y01916*
Y01918*
X02896Y01924*
X029Y01928*
X02906Y01929*
X02908*
X02913Y01928*
X02917Y01924*
X02919Y01916*
Y01907*
X02917Y01897*
X02913Y01891*
X02908Y0189*
X02904*
X02898Y01891*
X02896Y01895*
X02998Y01929D02*
Y0189D01*
X02985Y01929D02*
X03012D01*
X03026Y01916D02*
X03022Y01914D01*
X03018Y0191*
X03017Y01905*
Y01901*
X03018Y01895*
X03022Y01891*
X03026Y0189*
X03032*
X03036Y01891*
X03039Y01895*
X03041Y01901*
Y01905*
X03039Y0191*
X03036Y01914*
X03032Y01916*
X03026*
X03056Y01929D02*
Y01897D01*
X03058Y01891*
X03061Y0189*
X03065*
X0305Y01916D02*
X03063D01*
X03094D02*
Y0189D01*
Y0191D02*
X0309Y01914D01*
X03086Y01916*
X03081*
X03077Y01914*
X03073Y0191*
X03071Y01905*
Y01901*
X03073Y01895*
X03077Y01891*
X03081Y0189*
X03086*
X0309Y01891*
X03094Y01895*
X03105Y01929D02*
Y0189D01*
G54D41*
X02561Y02507D02*
X02557Y02511D01*
X0255Y02513*
X02541*
X02534Y02511*
X0253Y02507*
Y02502*
X02532Y02497*
X02534Y02495*
X02539Y02493*
X02552Y02488*
X02557Y02486*
X02559Y02484*
X02561Y02479*
Y02472*
X02557Y02468*
X0255Y02466*
X02541*
X02534Y02468*
X0253Y02472*
X02575Y02497D02*
X02588Y02466D01*
X02602Y02497D02*
X02588Y02466D01*
X02584Y02456*
X02579Y02452*
X02575Y0245*
X02572*
X0261Y02497D02*
Y02466D01*
Y02488D02*
X02617Y02495D01*
X02621Y02497*
X02628*
X02633Y02495*
X02635Y02488*
Y02466*
Y02488D02*
X02642Y02495D01*
X02647Y02497*
X02653*
X02658Y02495*
X0266Y02488*
Y02466*
X02675Y02513D02*
Y02466D01*
Y02491D02*
X0268Y02495D01*
X02684Y02497*
X02691*
X02696Y02495*
X027Y02491*
X02703Y02484*
Y02479*
X027Y02472*
X02696Y02468*
X02691Y02466*
X02684*
X0268Y02468*
X02675Y02472*
X02724Y02497D02*
X0272Y02495D01*
X02715Y02491*
X02713Y02484*
Y02479*
X02715Y02472*
X0272Y02468*
X02724Y02466*
X02731*
X02736Y02468*
X0274Y02472*
X02743Y02479*
Y02484*
X0274Y02491*
X02736Y02495*
X02731Y02497*
X02724*
X02753Y02513D02*
Y02466D01*
X02825Y02513D02*
Y02466D01*
X02857Y02513D02*
Y02466D01*
X02825Y02491D02*
X02857D01*
X02875Y02513D02*
X02877Y02511D01*
X0288Y02513*
X02877Y02516*
X02875Y02513*
X02877Y02497D02*
Y02466D01*
X02895Y02513D02*
Y02475D01*
X02897Y02468*
X02902Y02466*
X02906*
X02888Y02497D02*
X02904D01*
X02985Y02502D02*
X02983Y02507D01*
X02978Y02511*
X02974Y02513*
X02965*
X0296Y02511*
X02955Y02507*
X02953Y02502*
X02951Y02495*
Y02484*
X02953Y02477*
X02955Y02472*
X0296Y02468*
X02965Y02466*
X02974*
X02978Y02468*
X02983Y02472*
X02985Y02477*
X0301Y02497D02*
X03006Y02495D01*
X03001Y02491*
X02999Y02484*
Y02479*
X03001Y02472*
X03006Y02468*
X0301Y02466*
X03017*
X03022Y02468*
X03026Y02472*
X03028Y02479*
Y02484*
X03026Y02491*
X03022Y02495*
X03017Y02497*
X0301*
X03039D02*
Y02475D01*
X03041Y02468*
X03046Y02466*
X03053*
X03057Y02468*
X03064Y02475*
Y02497D02*
Y02466D01*
X03077Y02497D02*
Y02466D01*
Y02488D02*
X03083Y02495D01*
X03088Y02497*
X03095*
X03099Y02495*
X03102Y02488*
Y02466*
X03121Y02513D02*
Y02475D01*
X03123Y02468*
X03128Y02466*
X03133*
X03114Y02497D02*
X0313D01*
X03205Y02513D02*
Y02466D01*
Y02513D02*
X03234D01*
X03205Y02491D02*
X03223D01*
X03244Y02513D02*
X03247Y02511D01*
X03249Y02513*
X03247Y02516*
X03244Y02513*
X03247Y02497D02*
Y02466D01*
X03257Y02497D02*
Y02466D01*
Y02488D02*
X03264Y02495D01*
X03269Y02497*
X03276*
X0328Y02495*
X03283Y02488*
Y02466*
X033Y02513D02*
X03302Y02511D01*
X03304Y02513*
X03302Y02516*
X033Y02513*
X03302Y02497D02*
Y02466D01*
X03338Y02491D02*
X03336Y02495D01*
X03329Y02497*
X03322*
X03315Y02495*
X03313Y02491*
X03315Y02486*
X0332Y02484*
X03331Y02482*
X03336Y02479*
X03338Y02475*
Y02472*
X03336Y02468*
X03329Y02466*
X03322*
X03315Y02468*
X03313Y02472*
X03348Y02513D02*
Y02466D01*
Y02488D02*
X03355Y02495D01*
X03359Y02497*
X03366*
X03371Y02495*
X03373Y02488*
Y02466*
X03386Y02484D02*
X03413D01*
Y02488*
X03411Y02493*
X03408Y02495*
X03404Y02497*
X03397*
X03392Y02495*
X03388Y02491*
X03386Y02484*
Y02479*
X03388Y02472*
X03392Y02468*
X03397Y02466*
X03404*
X03408Y02468*
X03413Y02472*
X03451Y02513D02*
Y02466D01*
Y02491D02*
X03446Y02495D01*
X03442Y02497*
X03435*
X0343Y02495*
X03426Y02491*
X03423Y02484*
Y02479*
X03426Y02472*
X0343Y02468*
X03435Y02466*
X03442*
X03446Y02468*
X03451Y02472*
X03501Y02513D02*
Y02466D01*
X03533Y02513D02*
Y02466D01*
X03501Y02491D02*
X03533D01*
X03558Y02497D02*
X03553Y02495D01*
X03549Y02491*
X03546Y02484*
Y02479*
X03549Y02472*
X03553Y02468*
X03558Y02466*
X03565*
X03569Y02468*
X03574Y02472*
X03576Y02479*
Y02484*
X03574Y02491*
X03569Y02495*
X03565Y02497*
X03558*
X03587Y02513D02*
Y02466D01*
X03597Y02484D02*
X03624D01*
Y02488*
X03622Y02493*
X0362Y02495*
X03615Y02497*
X03608*
X03604Y02495*
X03599Y02491*
X03597Y02484*
Y02479*
X03599Y02472*
X03604Y02468*
X03608Y02466*
X03615*
X0362Y02468*
X03624Y02472*
X03704Y02507D02*
X037Y02511D01*
X03693Y02513*
X03684*
X03677Y02511*
X03672Y02507*
Y02502*
X03674Y02497*
X03677Y02495*
X03681Y02493*
X03695Y02488*
X037Y02486*
X03702Y02484*
X03704Y02479*
Y02472*
X037Y02468*
X03693Y02466*
X03684*
X03677Y02468*
X03672Y02472*
X03719Y02513D02*
X03722Y02511D01*
X03724Y02513*
X03722Y02516*
X03719Y02513*
X03722Y02497D02*
Y02466D01*
X03758Y02497D02*
X03732Y02466D01*
Y02497D02*
X03758D01*
X03732Y02466D02*
X03758D01*
X03768Y02484D02*
X03795D01*
Y02488*
X03793Y02493*
X03791Y02495*
X03786Y02497*
X03779*
X03775Y02495*
X0377Y02491*
X03768Y02484*
Y02479*
X0377Y02472*
X03775Y02468*
X03779Y02466*
X03786*
X03791Y02468*
X03795Y02472*
X03867Y02488D02*
X03888D01*
X03895Y02491*
X03897Y02493*
X03899Y02497*
Y02504*
X03897Y02509*
X03895Y02511*
X03888Y02513*
X03867*
Y02466*
X0391Y02513D02*
Y02466D01*
X03947Y02497D02*
Y02466D01*
Y02491D02*
X03943Y02495D01*
X03938Y02497*
X03931*
X03927Y02495*
X03922Y02491*
X0392Y02484*
Y02479*
X03922Y02472*
X03927Y02468*
X03931Y02466*
X03938*
X03943Y02468*
X03947Y02472*
X03967Y02513D02*
Y02475D01*
X03969Y02468*
X03974Y02466*
X03978*
X0396Y02497D02*
X03976D01*
X03985Y02484D02*
X04013D01*
Y02488*
X0401Y02493*
X04008Y02495*
X04004Y02497*
X03997*
X03992Y02495*
X03988Y02491*
X03985Y02484*
Y02479*
X03988Y02472*
X03992Y02468*
X03997Y02466*
X04004*
X04008Y02468*
X04013Y02472*
X0405Y02513D02*
Y02466D01*
Y02491D02*
X04046Y02495D01*
X04041Y02497*
X04034*
X0403Y02495*
X04025Y02491*
X04023Y02484*
Y02479*
X04025Y02472*
X0403Y02468*
X04034Y02466*
X04041*
X04046Y02468*
X0405Y02472*
X04122Y02513D02*
Y02466D01*
X04154Y02513D02*
Y02466D01*
X04122Y02491D02*
X04154D01*
X04179Y02497D02*
X04174Y02495D01*
X0417Y02491*
X04168Y02484*
Y02479*
X0417Y02472*
X04174Y02468*
X04179Y02466*
X04186*
X0419Y02468*
X04195Y02472*
X04197Y02479*
Y02484*
X04195Y02491*
X0419Y02495*
X04186Y02497*
X04179*
X04208Y02513D02*
Y02466D01*
X04218Y02484D02*
X04245D01*
Y02488*
X04243Y02493*
X04241Y02495*
X04236Y02497*
X04229*
X04225Y02495*
X0422Y02491*
X04218Y02484*
Y02479*
X0422Y02472*
X04225Y02468*
X04229Y02466*
X04236*
X04241Y02468*
X04245Y02472*
X04309Y02513D02*
Y02466D01*
X04293Y02513D02*
X04325D01*
X04333Y02497D02*
X04347Y02466D01*
X04361Y02497D02*
X04347Y02466D01*
X04342Y02456*
X04338Y02452*
X04333Y0245*
X04331*
X04369Y02497D02*
Y0245D01*
Y02491D02*
X04373Y02495D01*
X04378Y02497*
X04385*
X04389Y02495*
X04394Y02491*
X04396Y02484*
Y02479*
X04394Y02472*
X04389Y02468*
X04385Y02466*
X04378*
X04373Y02468*
X04369Y02472*
X04406Y02484D02*
X04434D01*
Y02488*
X04432Y02493*
X04429Y02495*
X04425Y02497*
X04418*
X04413Y02495*
X04409Y02491*
X04406Y02484*
Y02479*
X04409Y02472*
X04413Y02468*
X04418Y02466*
X04425*
X04429Y02468*
X04434Y02472*
X02474Y02538D02*
X04506D01*
X02474Y0243D02*
X04506D01*
X02474Y02538D02*
Y0187D01*
X04506Y02538D02*
Y0187D01*
X02797Y02538D02*
Y0187D01*
X03177Y02538D02*
Y0187D01*
X03839Y02538D02*
Y0187D01*
X04094Y02538D02*
Y0187D01*
X02474Y0195D02*
X04506D01*
X02474Y0187D02*
X04506D01*
G54D44*
X-0008Y03239D02*
Y0318D01*
Y03239D02*
X-00057Y0318D01*
X-00034Y03239D02*
X-00057Y0318D01*
X-00034Y03239D02*
Y0318D01*
X-00017Y03239D02*
Y0318D01*
Y03239D02*
X00008D01*
X00017Y03237*
X00019Y03234*
X00022Y03228*
Y03222*
X00019Y03217*
X00017Y03214*
X00008Y03211*
X-00017D02*
X00008D01*
X00017Y03208*
X00019Y03205*
X00022Y032*
Y03191*
X00019Y03185*
X00017Y03182*
X00008Y0318*
X-00017*
X00036Y03228D02*
X00041Y03231D01*
X0005Y03239*
Y0318*
X0008Y03228D02*
X00085Y03231D01*
X00094Y03239*
Y0318*
X00129Y03239D02*
X00161D01*
X00144Y03217*
X00152*
X00158Y03214*
X00161Y03211*
X00164Y03202*
Y03197*
X00161Y03188*
X00155Y03182*
X00147Y0318*
X00138*
X00129Y03182*
X00127Y03185*
X00124Y03191*
X00211Y03231D02*
X00209Y03237D01*
X002Y03239*
X00194*
X00186Y03237*
X0018Y03228*
X00177Y03214*
Y032*
X0018Y03188*
X00186Y03182*
X00194Y0318*
X00197*
X00206Y03182*
X00211Y03188*
X00214Y03197*
Y032*
X00211Y03208*
X00206Y03214*
X00197Y03217*
X00194*
X00186Y03214*
X0018Y03208*
X00177Y032*
X0027Y03225D02*
X00267Y03231D01*
X00262Y03237*
X00256Y03239*
X00245*
X00239Y03237*
X00233Y03231*
X0023Y03225*
X00227Y03217*
Y03202*
X0023Y03194*
X00233Y03188*
X00239Y03182*
X00245Y0318*
X00256*
X00262Y03182*
X00267Y03188*
X0027Y03194*
X-00634Y-00198D02*
X00091D01*
X-00634Y03049D02*
X-00361D01*
X-00624Y-00198D02*
Y01258D01*
Y0156D02*
Y03049D01*
Y-00198D02*
X-00604Y-00138D01*
X-00644D02*
X-00624Y-00198D01*
X-00644Y02989D02*
X-00624Y03049D01*
X-00604Y02989*
X02327Y02983D02*
Y03158D01*
X-00427Y02983D02*
Y03158D01*
X01084Y03148D02*
X02327D01*
X-00427D02*
X00783D01*
X02267Y03168D02*
X02327Y03148D01*
X02267Y03128D02*
X02327Y03148D01*
X-00427D02*
X-00367Y03128D01*
X-00427Y03148D02*
X-00367Y03168D01*
G54D58*
X-00638Y01274D02*
X-00648Y01284D01*
Y01304*
X-00638Y01314*
X-00628*
X-00618Y01304*
X-00608Y01314*
X-00598*
X-00588Y01304*
Y01284*
X-00598Y01274*
X-00608*
X-00618Y01284*
X-00628Y01274*
X-00638*
X-00618Y01284D02*
Y01304D01*
X-00588Y01374D02*
Y01334D01*
X-00628Y01374*
X-00638*
X-00648Y01364*
Y01344*
X-00638Y01334*
X-00588Y01394D02*
X-00598D01*
Y01404*
X-00588*
Y01394*
X-00648Y01484D02*
Y01444D01*
X-00618*
X-00628Y01464*
Y01474*
X-00618Y01484*
X-00598*
X-00588Y01474*
Y01454*
X-00598Y01444*
X-00638Y01504D02*
X-00648Y01514D01*
Y01534*
X-00638Y01544*
X-00598*
X-00588Y01534*
Y01514*
X-00598Y01504*
X-00638*
X00799Y03172D02*
X00839D01*
Y03162*
X00799Y03122*
Y03112*
X00859Y03162D02*
X00869Y03172D01*
X00889*
X00899Y03162*
Y03122*
X00889Y03112*
X00869*
X00859Y03122*
Y03162*
X00919Y03112D02*
Y03122D01*
X00929*
Y03112*
X00919*
X00968Y03162D02*
X00978Y03172D01*
X00998*
X01008Y03162*
Y03122*
X00998Y03112*
X00978*
X00968Y03122*
Y03162*
X01028D02*
X01038Y03172D01*
X01058*
X01068Y03162*
Y03122*
X01058Y03112*
X01038*
X01028Y03122*
Y03162*
G54D104*
X01358Y02875D02*
D01*
X01358Y02876*
X01358Y02877*
X01357Y02879*
X01357Y0288*
X01357Y02881*
X01356Y02883*
X01356Y02884*
X01355Y02885*
X01354Y02886*
X01353Y02887*
X01352Y02888*
X01351Y02889*
X0135Y0289*
X01349Y02891*
X01348Y02892*
X01347Y02892*
X01345Y02893*
X01344Y02894*
X01343Y02894*
X01341Y02894*
X0134Y02894*
X01339Y02894*
X01337*
X01336Y02894*
X01334Y02894*
X01333Y02894*
X01332Y02894*
X0133Y02893*
X01329Y02892*
X01328Y02892*
X01327Y02891*
X01326Y0289*
X01325Y02889*
X01324Y02888*
X01323Y02887*
X01322Y02886*
X01321Y02885*
X0132Y02884*
X0132Y02883*
X01319Y02881*
X01319Y0288*
X01318Y02879*
X01318Y02877*
X01318Y02876*
X01318Y02875*
X01318Y02873*
X01318Y02872*
X01318Y0287*
X01319Y02869*
X01319Y02868*
X0132Y02866*
X0132Y02865*
X01321Y02864*
X01322Y02863*
X01323Y02862*
X01324Y02861*
X01325Y0286*
X01326Y02859*
X01327Y02858*
X01328Y02857*
X01329Y02857*
X0133Y02856*
X01332Y02855*
X01333Y02855*
X01334Y02855*
X01336Y02855*
X01337Y02855*
X01339*
X0134Y02855*
X01341Y02855*
X01343Y02855*
X01344Y02855*
X01345Y02856*
X01347Y02857*
X01348Y02857*
X01349Y02858*
X0135Y02859*
X01351Y0286*
X01352Y02861*
X01353Y02862*
X01354Y02863*
X01355Y02864*
X01356Y02865*
X01356Y02866*
X01357Y02868*
X01357Y02869*
X01357Y0287*
X01358Y02872*
X01358Y02873*
X01358Y02875*
X01531D02*
D01*
X01531Y02876*
X01531Y02877*
X0153Y02879*
X0153Y0288*
X0153Y02881*
X01529Y02883*
X01529Y02884*
X01528Y02885*
X01527Y02886*
X01526Y02887*
X01525Y02888*
X01524Y02889*
X01523Y0289*
X01522Y02891*
X01521Y02892*
X0152Y02892*
X01518Y02893*
X01517Y02894*
X01516Y02894*
X01514Y02894*
X01513Y02894*
X01512Y02894*
X0151*
X01509Y02894*
X01507Y02894*
X01506Y02894*
X01505Y02894*
X01503Y02893*
X01502Y02892*
X01501Y02892*
X015Y02891*
X01499Y0289*
X01498Y02889*
X01497Y02888*
X01496Y02887*
X01495Y02886*
X01494Y02885*
X01493Y02884*
X01493Y02883*
X01492Y02881*
X01492Y0288*
X01491Y02879*
X01491Y02877*
X01491Y02876*
X01491Y02875*
X01491Y02873*
X01491Y02872*
X01491Y0287*
X01492Y02869*
X01492Y02868*
X01493Y02866*
X01493Y02865*
X01494Y02864*
X01495Y02863*
X01496Y02862*
X01497Y02861*
X01498Y0286*
X01499Y02859*
X015Y02858*
X01501Y02857*
X01502Y02857*
X01503Y02856*
X01505Y02855*
X01506Y02855*
X01507Y02855*
X01509Y02855*
X0151Y02855*
X01512*
X01513Y02855*
X01514Y02855*
X01516Y02855*
X01517Y02855*
X01518Y02856*
X0152Y02857*
X01521Y02857*
X01522Y02858*
X01523Y02859*
X01524Y0286*
X01525Y02861*
X01526Y02862*
X01527Y02863*
X01528Y02864*
X01529Y02865*
X01529Y02866*
X0153Y02868*
X0153Y02869*
X0153Y0287*
X01531Y02872*
X01531Y02873*
X01531Y02875*
X0087Y00627D02*
D01*
X00869Y00629*
X00869Y0063*
X00869Y00632*
X00869Y00633*
X00868Y00634*
X00868Y00636*
X00867Y00637*
X00866Y00638*
X00866Y00639*
X00865Y0064*
X00864Y00641*
X00863Y00642*
X00862Y00643*
X00861Y00644*
X0086Y00645*
X00858Y00645*
X00857Y00646*
X00856Y00646*
X00854Y00647*
X00853Y00647*
X00852Y00647*
X0085Y00647*
X00849*
X00847Y00647*
X00846Y00647*
X00845Y00647*
X00843Y00646*
X00842Y00646*
X00841Y00645*
X0084Y00645*
X00838Y00644*
X00837Y00643*
X00836Y00642*
X00835Y00641*
X00834Y0064*
X00833Y00639*
X00833Y00638*
X00832Y00637*
X00831Y00636*
X00831Y00634*
X0083Y00633*
X0083Y00632*
X0083Y0063*
X0083Y00629*
X0083Y00627*
X0083Y00626*
X0083Y00625*
X0083Y00623*
X0083Y00622*
X00831Y00621*
X00831Y00619*
X00832Y00618*
X00833Y00617*
X00833Y00616*
X00834Y00615*
X00835Y00614*
X00836Y00613*
X00837Y00612*
X00838Y00611*
X0084Y0061*
X00841Y00609*
X00842Y00609*
X00843Y00608*
X00845Y00608*
X00846Y00608*
X00847Y00608*
X00849Y00607*
X0085*
X00852Y00608*
X00853Y00608*
X00854Y00608*
X00856Y00608*
X00857Y00609*
X00858Y00609*
X0086Y0061*
X00861Y00611*
X00862Y00612*
X00863Y00613*
X00864Y00614*
X00865Y00615*
X00866Y00616*
X00866Y00617*
X00867Y00618*
X00868Y00619*
X00868Y00621*
X00869Y00622*
X00869Y00623*
X00869Y00625*
X00869Y00626*
X0087Y00627*
Y00872D02*
D01*
X00869Y00873*
X00869Y00874*
X00869Y00876*
X00869Y00877*
X00868Y00878*
X00868Y0088*
X00867Y00881*
X00866Y00882*
X00866Y00883*
X00865Y00884*
X00864Y00885*
X00863Y00886*
X00862Y00887*
X00861Y00888*
X0086Y00889*
X00858Y0089*
X00857Y0089*
X00856Y00891*
X00854Y00891*
X00853Y00891*
X00852Y00891*
X0085Y00892*
X00849*
X00847Y00891*
X00846Y00891*
X00845Y00891*
X00843Y00891*
X00842Y0089*
X00841Y0089*
X0084Y00889*
X00838Y00888*
X00837Y00887*
X00836Y00886*
X00835Y00885*
X00834Y00884*
X00833Y00883*
X00833Y00882*
X00832Y00881*
X00831Y0088*
X00831Y00878*
X0083Y00877*
X0083Y00876*
X0083Y00874*
X0083Y00873*
X0083Y00872*
X0083Y0087*
X0083Y00869*
X0083Y00867*
X0083Y00866*
X00831Y00865*
X00831Y00863*
X00832Y00862*
X00833Y00861*
X00833Y0086*
X00834Y00859*
X00835Y00858*
X00836Y00857*
X00837Y00856*
X00838Y00855*
X0084Y00854*
X00841Y00854*
X00842Y00853*
X00843Y00853*
X00845Y00852*
X00846Y00852*
X00847Y00852*
X00849Y00852*
X0085*
X00852Y00852*
X00853Y00852*
X00854Y00852*
X00856Y00853*
X00857Y00853*
X00858Y00854*
X0086Y00854*
X00861Y00855*
X00862Y00856*
X00863Y00857*
X00864Y00858*
X00865Y00859*
X00866Y0086*
X00866Y00861*
X00867Y00862*
X00868Y00863*
X00868Y00865*
X00869Y00866*
X00869Y00867*
X00869Y00869*
X00869Y0087*
X0087Y00872*
G54D105*
X0366Y00622D02*
D01*
X03659Y00622*
X03659Y00623*
X03659Y00624*
X03659Y00625*
X03659Y00626*
X03658Y00627*
X03658Y00628*
X03658Y00628*
X03657Y00629*
X03656Y0063*
X03656Y00631*
X03655Y00631*
X03655Y00632*
X03654Y00632*
X03653Y00633*
X03652Y00633*
X03651Y00634*
X03651Y00634*
X0365Y00634*
X03649Y00634*
X03648Y00634*
X03647Y00634*
X03647Y00635*
X02383D02*
D01*
X02382Y00634*
X02381Y00634*
X0238Y00634*
X02379Y00634*
X02378Y00634*
X02377Y00633*
X02376Y00633*
X02376Y00633*
X02375Y00632*
X02374Y00631*
X02373Y00631*
X02373Y0063*
X02372Y0063*
X02372Y00629*
X02371Y00628*
X02371Y00627*
X0237Y00626*
X0237Y00626*
X0237Y00625*
X0237Y00624*
X0237Y00623*
X0237Y00622*
X0237Y00622*
Y00318D02*
D01*
X0237Y00317*
X0237Y00316*
X0237Y00315*
X0237Y00314*
X0237Y00313*
X02371Y00312*
X02371Y00311*
X02371Y00311*
X02372Y0031*
X02373Y00309*
X02373Y00308*
X02374Y00308*
X02374Y00307*
X02375Y00307*
X02376Y00306*
X02377Y00306*
X02378Y00305*
X02378Y00305*
X02379Y00305*
X0238Y00305*
X02381Y00305*
X02382Y00305*
X02383Y00305*
X03647D02*
D01*
X03647Y00305*
X03648Y00305*
X03649Y00305*
X0365Y00305*
X03651Y00305*
X03652Y00306*
X03653Y00306*
X03653Y00306*
X03654Y00307*
X03655Y00308*
X03656Y00308*
X03656Y00309*
X03657Y00309*
X03657Y0031*
X03658Y00311*
X03658Y00312*
X03659Y00313*
X03659Y00313*
X03659Y00314*
X03659Y00315*
X03659Y00316*
X03659Y00317*
X0366Y00318*
X0243Y00526D02*
X036D01*
X0243Y00564D02*
X036D01*
X0366Y00318D02*
Y00622D01*
X0237Y00318D02*
Y00622D01*
X02383Y00305D02*
X03647D01*
X02383Y00635D02*
X03647D01*
X02804Y00421D02*
X02809D01*
X02807*
Y00434*
X02804Y00432*
X02815Y00421D02*
Y00424D01*
X02817*
Y00421*
X02815*
X02833D02*
Y00434D01*
X02826Y00428*
X02835*
X02839Y00421D02*
Y0043D01*
X02841*
X02843Y00428*
Y00421*
Y00428*
X02846Y0043*
X02848Y00428*
Y00421*
X02852D02*
X02856D01*
X02854*
Y0043*
X02852*
X02863Y00421D02*
X02867D01*
X02865*
Y00434*
X02863*
X02685Y00421D02*
X0268Y00426D01*
Y0043*
X02685Y00434*
X02691Y00421D02*
Y00424D01*
X02693*
Y00421*
X02691*
X02711Y00432D02*
X02709Y00434D01*
X02704*
X02702Y00432*
Y00424*
X02704Y00421*
X02709*
X02711Y00424*
Y00428*
X02706*
X02715Y00434D02*
Y00421D01*
X02722*
X02724Y00424*
Y00426*
X02722Y00428*
X02715*
X02722*
X02724Y0043*
Y00432*
X02722Y00434*
X02715*
X02728D02*
Y00421D01*
X02737*
X02741D02*
X02745Y00426D01*
Y0043*
X02741Y00434*
X0243D02*
Y00421D01*
X02436*
X02438Y00424*
Y00426*
X02436Y00428*
X0243*
X02436*
X02438Y0043*
Y00432*
X02436Y00434*
X0243*
X02445Y00421D02*
X02449D01*
X02451Y00424*
Y00428*
X02449Y0043*
X02445*
X02443Y00428*
Y00424*
X02445Y00421*
X02458Y00432D02*
Y0043D01*
X02455*
X0246*
X02458*
Y00424*
X0246Y00421*
X02468Y00432D02*
Y0043D01*
X02466*
X02471*
X02468*
Y00424*
X02471Y00421*
X02479D02*
X02484D01*
X02486Y00424*
Y00428*
X02484Y0043*
X02479*
X02477Y00428*
Y00424*
X02479Y00421*
X0249D02*
Y0043D01*
X02492*
X02494Y00428*
Y00421*
Y00428*
X02497Y0043*
X02499Y00428*
Y00421*
X02516Y00434D02*
Y00421D01*
X02525*
X02531Y0043D02*
X02536D01*
X02538Y00428*
Y00421*
X02531*
X02529Y00424*
X02531Y00426*
X02538*
X02542Y0043D02*
Y00424D01*
X02544Y00421*
X02551*
Y00419*
X02549Y00417*
X02546*
X02551Y00421D02*
Y0043D01*
X02562Y00421D02*
X02557D01*
X02555Y00424*
Y00428*
X02557Y0043*
X02562*
X02564Y00428*
Y00426*
X02555*
X02568Y0043D02*
Y00421D01*
Y00426*
X0257Y00428*
X02572Y0043*
X02575*
X03428Y00453D02*
X03425Y00455D01*
X03421*
X03419Y00453*
Y00444*
X03421Y00442*
X03425*
X03428Y00444*
X03434Y00442D02*
X03438D01*
X03441Y00444*
Y00449*
X03438Y00451*
X03434*
X03432Y00449*
Y00444*
X03434Y00442*
X03445Y00451D02*
Y00442D01*
Y00446*
X03447Y00449*
X03449Y00451*
X03451*
X03464Y00442D02*
X0346D01*
X03458Y00444*
Y00449*
X0346Y00451*
X03464*
X03467Y00449*
Y00446*
X03458*
X0328Y00442D02*
Y00455D01*
X03274Y00449*
X03283*
X03287Y00442D02*
Y00444D01*
X03289*
Y00442*
X03287*
X03298Y00453D02*
X033Y00455D01*
X03304*
X03306Y00453*
Y00451*
X03304Y00449*
X03306Y00446*
Y00444*
X03304Y00442*
X033*
X03298Y00444*
Y00446*
X033Y00449*
X03298Y00451*
Y00453*
X033Y00449D02*
X03304D01*
X03311Y00453D02*
X03313Y00455D01*
X03317*
X03319Y00453*
Y00444*
X03317Y00442*
X03313*
X03311Y00444*
Y00453*
X03097Y00455D02*
X03088D01*
Y00449*
X03092*
X03088*
Y00442*
X03101D02*
Y00455D01*
X03108*
X0311Y00453*
Y00449*
X03108Y00446*
X03101*
X03105D02*
X0311Y00442D01*
X03114Y00449D02*
X03123D01*
X03134Y00442D02*
Y00455D01*
X03127Y00449*
X03136*
X02952Y00455D02*
X02943D01*
Y00449*
X02947Y00451*
X0295*
X02952Y00449*
Y00444*
X0295Y00442*
X02945*
X02943Y00444*
X02956D02*
X02958Y00442D01*
X02963*
X02965Y00444*
Y00453*
X02963Y00455*
X02958*
X02956Y00453*
Y00451*
X02958Y00449*
X02965*
X02969Y00442D02*
Y00444D01*
X02971*
Y00442*
X02969*
X0298Y00453D02*
X02982Y00455D01*
X02986*
X02989Y00453*
Y00444*
X02986Y00442*
X02982*
X0298Y00444*
Y00453*
X03002Y00455D02*
X02993D01*
Y00449*
X02997Y00451*
X02999*
X03002Y00449*
Y00444*
X02999Y00442*
X02995*
X02993Y00444*
X03015Y00455D02*
X03006D01*
Y00449*
X0301Y00451*
X03012*
X03015Y00449*
Y00444*
X03012Y00442*
X03008*
X03006Y00444*
X03019Y00442D02*
Y00451D01*
X03021*
X03023Y00449*
Y00442*
Y00449*
X03025Y00451*
X03028Y00449*
Y00442*
X03032D02*
X03036D01*
X03034*
Y00451*
X03032*
X03043Y00442D02*
X03047D01*
X03045*
Y00455*
X03043*
X02804Y00463D02*
X02809D01*
X02807*
Y00476*
X02804Y00473*
X02815Y00463D02*
Y00465D01*
X02817*
Y00463*
X02815*
X02833D02*
Y00476D01*
X02826Y00469*
X02835*
X02839Y00463D02*
Y00471D01*
X02841*
X02843Y00469*
Y00463*
Y00469*
X02846Y00471*
X02848Y00469*
Y00463*
X02852D02*
X02856D01*
X02854*
Y00471*
X02852*
X02863Y00463D02*
X02867D01*
X02865*
Y00476*
X02863*
X02685Y00463D02*
X0268Y00467D01*
Y00471*
X02685Y00476*
X02691Y00463D02*
Y00465D01*
X02693*
Y00463*
X02691*
X02711Y00473D02*
X02709Y00476D01*
X02704*
X02702Y00473*
Y00465*
X02704Y00463*
X02709*
X02711Y00465*
Y00469*
X02706*
X02715Y00476D02*
X02724D01*
X02719*
Y00463*
X02728Y00476D02*
Y00463D01*
X02737*
X02741D02*
X02745Y00467D01*
Y00471*
X02741Y00476*
X0243D02*
X02438D01*
X02434*
Y00463*
X02445D02*
X02449D01*
X02451Y00465*
Y00469*
X02449Y00471*
X02445*
X02443Y00469*
Y00465*
X02445Y00463*
X02455Y00458D02*
Y00471D01*
X02462*
X02464Y00469*
Y00465*
X02462Y00463*
X02455*
X02481Y00476D02*
Y00463D01*
X0249*
X02497Y00471D02*
X02501D01*
X02503Y00469*
Y00463*
X02497*
X02494Y00465*
X02497Y00467*
X02503*
X02507Y00471D02*
Y00465D01*
X0251Y00463*
X02516*
Y0046*
X02514Y00458*
X02512*
X02516Y00463D02*
Y00471D01*
X02527Y00463D02*
X02523D01*
X0252Y00465*
Y00469*
X02523Y00471*
X02527*
X02529Y00469*
Y00467*
X0252*
X02533Y00471D02*
Y00463D01*
Y00467*
X02536Y00469*
X02538Y00471*
X0254*
X03274Y00391D02*
X03276Y00393D01*
X0328*
X03283Y00391*
Y00389*
X0328Y00387*
X03278*
X0328*
X03283Y00384*
Y00382*
X0328Y0038*
X03276*
X03274Y00382*
X03287Y0038D02*
Y00382D01*
X03289*
Y0038*
X03287*
X03306Y00393D02*
X03298D01*
Y00387*
X03302Y00389*
X03304*
X03306Y00387*
Y00382*
X03304Y0038*
X033*
X03298Y00382*
X03311Y00391D02*
X03313Y00393D01*
X03317*
X03319Y00391*
Y00382*
X03317Y0038*
X03313*
X03311Y00382*
Y00391*
X03097D02*
X03095Y00393D01*
X0309*
X03088Y00391*
Y00389*
X0309Y00387*
X03095*
X03097Y00384*
Y00382*
X03095Y0038*
X0309*
X03088Y00382*
X03103Y0038D02*
X03108D01*
X0311Y00382*
Y00387*
X03108Y00389*
X03103*
X03101Y00387*
Y00382*
X03103Y0038*
X03114D02*
X03118D01*
X03116*
Y00393*
X03114*
X03134D02*
Y0038D01*
X03127*
X03125Y00382*
Y00387*
X03127Y00389*
X03134*
X03144Y0038D02*
X0314D01*
X03138Y00382*
Y00387*
X0314Y00389*
X03144*
X03147Y00387*
Y00384*
X03138*
X03151Y00389D02*
Y0038D01*
Y00384*
X03153Y00387*
X03155Y00389*
X03157*
X03177Y0038D02*
Y00393D01*
X03183*
X03186Y00391*
Y00387*
X03183Y00384*
X03177*
X03181D02*
X03186Y0038D01*
X03196D02*
X03192D01*
X0319Y00382*
Y00387*
X03192Y00389*
X03196*
X03198Y00387*
Y00384*
X0319*
X03203Y0038D02*
X03209D01*
X03211Y00382*
X03209Y00384*
X03205*
X03203Y00387*
X03205Y00389*
X03211*
X03216Y0038D02*
X0322D01*
X03218*
Y00389*
X03216*
X03227Y0038D02*
X03233D01*
X03235Y00382*
X03233Y00384*
X03229*
X03227Y00387*
X03229Y00389*
X03235*
X03242Y00391D02*
Y00389D01*
X0324*
X03244*
X03242*
Y00382*
X03244Y0038*
X02943Y00391D02*
X02945Y00393D01*
X0295*
X02952Y00391*
Y00382*
X0295Y0038*
X02945*
X02943Y00382*
Y00391*
X02956Y0038D02*
Y00382D01*
X02958*
Y0038*
X02956*
X02973D02*
Y00393D01*
X02967Y00387*
X02976*
X0298Y0038D02*
Y00389D01*
X02982*
X02984Y00387*
Y0038*
Y00387*
X02986Y00389*
X02989Y00387*
Y0038*
X02993D02*
X02997D01*
X02995*
Y00389*
X02993*
X03004Y0038D02*
X03008D01*
X03006*
Y00393*
X03004*
X02685Y0038D02*
X0268Y00384D01*
Y00389*
X02685Y00393*
X02691Y0038D02*
Y00382D01*
X02693*
Y0038*
X02691*
X02711Y00391D02*
X02709Y00393D01*
X02704*
X02702Y00391*
Y00382*
X02704Y0038*
X02709*
X02711Y00382*
Y00387*
X02706*
X02715Y00393D02*
Y0038D01*
X02722*
X02724Y00382*
Y00384*
X02722Y00387*
X02715*
X02722*
X02724Y00389*
Y00391*
X02722Y00393*
X02715*
X02737Y00391D02*
X02735Y00393D01*
X0273*
X02728Y00391*
Y00389*
X0273Y00387*
X02735*
X02737Y00384*
Y00382*
X02735Y0038*
X0273*
X02728Y00382*
X02741Y0038D02*
X02745Y00384D01*
Y00389*
X02741Y00393*
X0243D02*
Y0038D01*
X02436*
X02438Y00382*
Y00384*
X02436Y00387*
X0243*
X02436*
X02438Y00389*
Y00391*
X02436Y00393*
X0243*
X02445Y0038D02*
X02449D01*
X02451Y00382*
Y00387*
X02449Y00389*
X02445*
X02443Y00387*
Y00382*
X02445Y0038*
X02458Y00391D02*
Y00389D01*
X02455*
X0246*
X02458*
Y00382*
X0246Y0038*
X02468Y00391D02*
Y00389D01*
X02466*
X02471*
X02468*
Y00382*
X02471Y0038*
X02479D02*
X02484D01*
X02486Y00382*
Y00387*
X02484Y00389*
X02479*
X02477Y00387*
Y00382*
X02479Y0038*
X0249D02*
Y00389D01*
X02492*
X02494Y00387*
Y0038*
Y00387*
X02497Y00389*
X02499Y00387*
Y0038*
X02525Y00391D02*
X02523Y00393D01*
X02518*
X02516Y00391*
Y00389*
X02518Y00387*
X02523*
X02525Y00384*
Y00382*
X02523Y0038*
X02518*
X02516Y00382*
X02531Y0038D02*
X02536D01*
X02538Y00382*
Y00387*
X02536Y00389*
X02531*
X02529Y00387*
Y00382*
X02531Y0038*
X02542D02*
X02546D01*
X02544*
Y00393*
X02542*
X02562D02*
Y0038D01*
X02555*
X02553Y00382*
Y00387*
X02555Y00389*
X02562*
X02572Y0038D02*
X02568D01*
X02566Y00382*
Y00387*
X02568Y00389*
X02572*
X02575Y00387*
Y00384*
X02566*
X02579Y00389D02*
Y0038D01*
Y00384*
X02581Y00387*
X02583Y00389*
X02585*
X02605Y0038D02*
Y00393D01*
X02609Y00389*
X02614Y00393*
Y0038*
X0262Y00389D02*
X02624D01*
X02627Y00387*
Y0038*
X0262*
X02618Y00382*
X0262Y00384*
X02627*
X02631Y0038D02*
X02637D01*
X0264Y00382*
X02637Y00384*
X02633*
X02631Y00387*
X02633Y00389*
X0264*
X02644Y0038D02*
Y00393D01*
Y00384D02*
X0265Y00389D01*
X02644Y00384D02*
X0265Y0038D01*
X03274Y00515D02*
X03276Y00517D01*
X0328*
X03283Y00515*
Y00513*
X0328Y0051*
X03278*
X0328*
X03283Y00508*
Y00506*
X0328Y00504*
X03276*
X03274Y00506*
X03287Y00504D02*
Y00506D01*
X03289*
Y00504*
X03287*
X03306Y00517D02*
X03298D01*
Y0051*
X03302Y00513*
X03304*
X03306Y0051*
Y00506*
X03304Y00504*
X033*
X03298Y00506*
X03311Y00515D02*
X03313Y00517D01*
X03317*
X03319Y00515*
Y00506*
X03317Y00504*
X03313*
X03311Y00506*
Y00515*
X03097D02*
X03095Y00517D01*
X0309*
X03088Y00515*
Y00513*
X0309Y0051*
X03095*
X03097Y00508*
Y00506*
X03095Y00504*
X0309*
X03088Y00506*
X03103Y00504D02*
X03108D01*
X0311Y00506*
Y0051*
X03108Y00513*
X03103*
X03101Y0051*
Y00506*
X03103Y00504*
X03114D02*
X03118D01*
X03116*
Y00517*
X03114*
X03134D02*
Y00504D01*
X03127*
X03125Y00506*
Y0051*
X03127Y00513*
X03134*
X03144Y00504D02*
X0314D01*
X03138Y00506*
Y0051*
X0314Y00513*
X03144*
X03147Y0051*
Y00508*
X03138*
X03151Y00513D02*
Y00504D01*
Y00508*
X03153Y0051*
X03155Y00513*
X03157*
X03177Y00504D02*
Y00517D01*
X03183*
X03186Y00515*
Y0051*
X03183Y00508*
X03177*
X03181D02*
X03186Y00504D01*
X03196D02*
X03192D01*
X0319Y00506*
Y0051*
X03192Y00513*
X03196*
X03198Y0051*
Y00508*
X0319*
X03203Y00504D02*
X03209D01*
X03211Y00506*
X03209Y00508*
X03205*
X03203Y0051*
X03205Y00513*
X03211*
X03216Y00504D02*
X0322D01*
X03218*
Y00513*
X03216*
X03227Y00504D02*
X03233D01*
X03235Y00506*
X03233Y00508*
X03229*
X03227Y0051*
X03229Y00513*
X03235*
X03242Y00515D02*
Y00513D01*
X0324*
X03244*
X03242*
Y00506*
X03244Y00504*
X02943Y00515D02*
X02945Y00517D01*
X0295*
X02952Y00515*
Y00506*
X0295Y00504*
X02945*
X02943Y00506*
Y00515*
X02956Y00504D02*
Y00506D01*
X02958*
Y00504*
X02956*
X02973D02*
Y00517D01*
X02967Y0051*
X02976*
X0298Y00504D02*
Y00513D01*
X02982*
X02984Y0051*
Y00504*
Y0051*
X02986Y00513*
X02989Y0051*
Y00504*
X02993D02*
X02997D01*
X02995*
Y00513*
X02993*
X03004Y00504D02*
X03008D01*
X03006*
Y00517*
X03004*
X02685Y00504D02*
X0268Y00508D01*
Y00513*
X02685Y00517*
X02691Y00504D02*
Y00506D01*
X02693*
Y00504*
X02691*
X02711Y00515D02*
X02709Y00517D01*
X02704*
X02702Y00515*
Y00506*
X02704Y00504*
X02709*
X02711Y00506*
Y0051*
X02706*
X02715Y00517D02*
X02724D01*
X02719*
Y00504*
X02737Y00515D02*
X02735Y00517D01*
X0273*
X02728Y00515*
Y00513*
X0273Y0051*
X02735*
X02737Y00508*
Y00506*
X02735Y00504*
X0273*
X02728Y00506*
X02741Y00504D02*
X02745Y00508D01*
Y00513*
X02741Y00517*
X0243D02*
X02438D01*
X02434*
Y00504*
X02445D02*
X02449D01*
X02451Y00506*
Y0051*
X02449Y00513*
X02445*
X02443Y0051*
Y00506*
X02445Y00504*
X02455Y005D02*
Y00513D01*
X02462*
X02464Y0051*
Y00506*
X02462Y00504*
X02455*
X0249Y00515D02*
X02488Y00517D01*
X02484*
X02481Y00515*
Y00513*
X02484Y0051*
X02488*
X0249Y00508*
Y00506*
X02488Y00504*
X02484*
X02481Y00506*
X02497Y00504D02*
X02501D01*
X02503Y00506*
Y0051*
X02501Y00513*
X02497*
X02494Y0051*
Y00506*
X02497Y00504*
X02507D02*
X02512D01*
X0251*
Y00517*
X02507*
X02527D02*
Y00504D01*
X0252*
X02518Y00506*
Y0051*
X0252Y00513*
X02527*
X02538Y00504D02*
X02533D01*
X02531Y00506*
Y0051*
X02533Y00513*
X02538*
X0254Y0051*
Y00508*
X02531*
X02544Y00513D02*
Y00504D01*
Y00508*
X02546Y0051*
X02549Y00513*
X02551*
X0257Y00504D02*
Y00517D01*
X02575Y00513*
X02579Y00517*
Y00504*
X02585Y00513D02*
X0259D01*
X02592Y0051*
Y00504*
X02585*
X02583Y00506*
X02585Y00508*
X02592*
X02596Y00504D02*
X02603D01*
X02605Y00506*
X02603Y00508*
X02598*
X02596Y0051*
X02598Y00513*
X02605*
X02609Y00504D02*
Y00517D01*
Y00508D02*
X02616Y00513D01*
X02609Y00508D02*
X02616Y00504D01*
X03419Y00541D02*
X03425D01*
X03422*
Y00532*
X03428Y00538D02*
Y00533D01*
X03429Y00532*
X03434*
Y0053*
X03432Y00529*
X03431*
X03434Y00532D02*
Y00538D01*
X03437Y00529D02*
Y00538D01*
X03441*
X03443Y00536*
Y00533*
X03441Y00532*
X03437*
X0345D02*
X03447D01*
X03446Y00533*
Y00536*
X03447Y00538*
X0345*
X03452Y00536*
Y00535*
X03446*
X0328Y00539D02*
X03278Y00541D01*
X03275*
X03274Y00539*
Y00533*
X03275Y00532*
X03278*
X0328Y00533*
X03284Y00532D02*
X03287D01*
X03289Y00533*
Y00536*
X03287Y00538*
X03284*
X03283Y00536*
Y00533*
X03284Y00532*
X03292D02*
Y00538D01*
X03296*
X03298Y00536*
Y00532*
X03301D02*
X03305D01*
X03307Y00533*
X03305Y00535*
X03302*
X03301Y00536*
X03302Y00538*
X03307*
X03311Y00539D02*
Y00538D01*
X0331*
X03313*
X03311*
Y00533*
X03313Y00532*
X03319Y00538D02*
X03322D01*
X03323Y00536*
Y00532*
X03319*
X03317Y00533*
X03319Y00535*
X03323*
X03326Y00532D02*
Y00538D01*
X03331*
X03332Y00536*
Y00532*
X03337Y00539D02*
Y00538D01*
X03335*
X03338*
X03337*
Y00533*
X03338Y00532*
X03088D02*
Y00541D01*
X03091Y00538*
X03094Y00541*
Y00532*
X03099Y00538D02*
X03102D01*
X03103Y00536*
Y00532*
X03099*
X03097Y00533*
X03099Y00535*
X03103*
X03108Y00539D02*
Y00538D01*
X03106*
X03109*
X03108*
Y00533*
X03109Y00532*
X03118D02*
X03115D01*
X03114Y00533*
Y00536*
X03115Y00538*
X03118*
X0312Y00536*
Y00535*
X03114*
X03123Y00538D02*
Y00532D01*
Y00535*
X03124Y00536*
X03126Y00538*
X03127*
X03132Y00532D02*
X03135D01*
X03133*
Y00538*
X03132*
X03141D02*
X03144D01*
X03145Y00536*
Y00532*
X03141*
X03139Y00533*
X03141Y00535*
X03145*
X03148Y00532D02*
X03151D01*
X0315*
Y00541*
X03148*
X02943D02*
Y00532D01*
Y00536*
X02949*
Y00541*
Y00532*
X02957D02*
X02954D01*
X02952Y00533*
Y00536*
X02954Y00538*
X02957*
X02958Y00536*
Y00535*
X02952*
X02961Y00532D02*
X02964D01*
X02963*
Y00538*
X02961*
X02972Y00529D02*
X02973D01*
X02975Y0053*
Y00538*
X0297*
X02969Y00536*
Y00533*
X0297Y00532*
X02975*
X02978Y00541D02*
Y00532D01*
Y00536*
X02979Y00538*
X02982*
X02984Y00536*
Y00532*
X02988Y00539D02*
Y00538D01*
X02987*
X0299*
X02988*
Y00533*
X0299Y00532*
X02804Y00541D02*
X0281D01*
X02807*
Y00532*
X02813Y00541D02*
Y00532D01*
Y00536*
X02815Y00538*
X02818*
X02819Y00536*
Y00532*
X02822D02*
X02825D01*
X02824*
Y00538*
X02822*
X02836D02*
X02831D01*
X0283Y00536*
Y00533*
X02831Y00532*
X02836*
X02839D02*
Y00541D01*
Y00535D02*
X02843Y00538D01*
X02839Y00535D02*
X02843Y00532D01*
X02848D02*
Y00538D01*
X02852*
X02854Y00536*
Y00532*
X02861D02*
X02858D01*
X02857Y00533*
Y00536*
X02858Y00538*
X02861*
X02863Y00536*
Y00535*
X02857*
X02866Y00532D02*
X0287D01*
X02872Y00533*
X0287Y00535*
X02867*
X02866Y00536*
X02867Y00538*
X02872*
X02875Y00532D02*
X02879D01*
X02881Y00533*
X02879Y00535*
X02876*
X02875Y00536*
X02876Y00538*
X02881*
X0268Y00541D02*
Y00532D01*
X02685*
X02686Y00533*
Y00539*
X02685Y00541*
X0268*
X02691Y00532D02*
X02694D01*
X02695Y00533*
Y00536*
X02694Y00538*
X02691*
X02689Y00536*
Y00533*
X02691Y00532*
X02704Y00538D02*
X027D01*
X02698Y00536*
Y00533*
X027Y00532*
X02704*
X02707Y00538D02*
Y00533D01*
X02709Y00532*
X02713*
Y00538*
X02716Y00532D02*
Y00538D01*
X02718*
X02719Y00536*
Y00532*
Y00536*
X02721Y00538*
X02722Y00536*
Y00532*
X0273D02*
X02727D01*
X02725Y00533*
Y00536*
X02727Y00538*
X0273*
X02731Y00536*
Y00535*
X02725*
X02734Y00532D02*
Y00538D01*
X02739*
X0274Y00536*
Y00532*
X02745Y00539D02*
Y00538D01*
X02743*
X02746*
X02745*
Y00533*
X02746Y00532*
X0243D02*
Y00541D01*
X02436Y00532*
Y00541*
X0244Y00538D02*
X02443D01*
X02444Y00536*
Y00532*
X0244*
X02439Y00533*
X0244Y00535*
X02444*
X02447Y00532D02*
Y00538D01*
X02449*
X0245Y00536*
Y00532*
Y00536*
X02452Y00538*
X02453Y00536*
Y00532*
X02461D02*
X02458D01*
X02456Y00533*
Y00536*
X02458Y00538*
X02461*
X02462Y00536*
Y00535*
X02456*
X03419Y00559D02*
Y0055D01*
X03423*
X03425Y00551*
Y00557*
X03423Y00559*
X03419*
X03428Y0055D02*
X03431D01*
X03429*
Y00556*
X03428*
X0344Y0055D02*
X03437D01*
X03435Y00551*
Y00554*
X03437Y00556*
X0344*
X03441Y00554*
Y00553*
X03435*
X03444Y0055D02*
X03447D01*
X03446*
Y00559*
X03444*
X03456Y0055D02*
X03453D01*
X03452Y00551*
Y00554*
X03453Y00556*
X03456*
X03458Y00554*
Y00553*
X03452*
X03467Y00556D02*
X03462D01*
X03461Y00554*
Y00551*
X03462Y0055*
X03467*
X03471Y00557D02*
Y00556D01*
X0347*
X03473*
X03471*
Y00551*
X03473Y0055*
X03477Y00556D02*
Y0055D01*
Y00553*
X03479Y00554*
X0348Y00556*
X03482*
X03486Y0055D02*
X03489D01*
X03488*
Y00556*
X03486*
X035D02*
X03495D01*
X03494Y00554*
Y00551*
X03495Y0055*
X035*
X03274Y00559D02*
Y0055D01*
X03278*
X0328Y00551*
Y00557*
X03278Y00559*
X03274*
X03283Y0055D02*
X03286D01*
X03284*
Y00556*
X03283*
X03295Y0055D02*
X03292D01*
X0329Y00551*
Y00554*
X03292Y00556*
X03295*
X03296Y00554*
Y00553*
X0329*
X03299Y0055D02*
X03302D01*
X03301*
Y00559*
X03299*
X03311Y0055D02*
X03308D01*
X03307Y00551*
Y00554*
X03308Y00556*
X03311*
X03313Y00554*
Y00553*
X03307*
X03322Y00556D02*
X03317D01*
X03316Y00554*
Y00551*
X03317Y0055*
X03322*
X03326Y00557D02*
Y00556D01*
X03325*
X03328*
X03326*
Y00551*
X03328Y0055*
X03332Y00556D02*
Y0055D01*
Y00553*
X03334Y00554*
X03335Y00556*
X03337*
X03341Y0055D02*
X03344D01*
X03343*
Y00556*
X03341*
X03355D02*
X0335D01*
X03349Y00554*
Y00551*
X0335Y0055*
X03355*
X03088Y00559D02*
Y0055D01*
X03093*
X03094Y00551*
Y00557*
X03093Y00559*
X03088*
X03097Y0055D02*
X031D01*
X03099*
Y00556*
X03097*
X03109Y0055D02*
X03106D01*
X03105Y00551*
Y00554*
X03106Y00556*
X03109*
X03111Y00554*
Y00553*
X03105*
X03114Y0055D02*
X03117D01*
X03115*
Y00559*
X03114*
X03126Y0055D02*
X03123D01*
X03121Y00551*
Y00554*
X03123Y00556*
X03126*
X03127Y00554*
Y00553*
X03121*
X03136Y00556D02*
X03132D01*
X0313Y00554*
Y00551*
X03132Y0055*
X03136*
X03141Y00557D02*
Y00556D01*
X03139*
X03142*
X03141*
Y00551*
X03142Y0055*
X03147Y00556D02*
Y0055D01*
Y00553*
X03148Y00554*
X0315Y00556*
X03151*
X03156Y0055D02*
X03159D01*
X03157*
Y00556*
X03156*
X03169D02*
X03165D01*
X03163Y00554*
Y00551*
X03165Y0055*
X03169*
X02943Y00559D02*
Y0055D01*
X02948*
X02949Y00551*
Y00557*
X02948Y00559*
X02943*
X02952Y0055D02*
X02955D01*
X02954*
Y00556*
X02952*
X02964Y0055D02*
X02961D01*
X0296Y00551*
Y00554*
X02961Y00556*
X02964*
X02966Y00554*
Y00553*
X0296*
X02969Y0055D02*
X02972D01*
X0297*
Y00559*
X02969*
X02981Y0055D02*
X02978D01*
X02976Y00551*
Y00554*
X02978Y00556*
X02981*
X02982Y00554*
Y00553*
X02976*
X02991Y00556D02*
X02987D01*
X02985Y00554*
Y00551*
X02987Y0055*
X02991*
X02996Y00557D02*
Y00556D01*
X02994*
X02997*
X02996*
Y00551*
X02997Y0055*
X03002Y00556D02*
Y0055D01*
Y00553*
X03003Y00554*
X03005Y00556*
X03006*
X03011Y0055D02*
X03014D01*
X03012*
Y00556*
X03011*
X03024D02*
X0302D01*
X03018Y00554*
Y00551*
X0302Y0055*
X03024*
X0281Y00557D02*
X02809Y00559D01*
X02806*
X02804Y00557*
Y00551*
X02806Y0055*
X02809*
X0281Y00551*
X02815Y0055D02*
X02818D01*
X02819Y00551*
Y00554*
X02818Y00556*
X02815*
X02813Y00554*
Y00551*
X02815Y0055*
X02822Y00547D02*
Y00556D01*
X02827*
X02828Y00554*
Y00551*
X02827Y0055*
X02822*
X02831Y00547D02*
Y00556D01*
X02836*
X02837Y00554*
Y00551*
X02836Y0055*
X02831*
X02845D02*
X02842D01*
X0284Y00551*
Y00554*
X02842Y00556*
X02845*
X02846Y00554*
Y00553*
X0284*
X02849Y00556D02*
Y0055D01*
Y00553*
X02851Y00554*
X02852Y00556*
X02854*
X02686Y00557D02*
X02685Y00559D01*
X02682*
X0268Y00557*
Y00551*
X02682Y0055*
X02685*
X02686Y00551*
Y00554*
X02683*
X02694Y0055D02*
X02691D01*
X02689Y00551*
Y00554*
X02691Y00556*
X02694*
X02695Y00554*
Y00553*
X02689*
X02698Y00556D02*
Y0055D01*
Y00553*
X027Y00554*
X02701Y00556*
X02703*
X02707Y00559D02*
Y0055D01*
X02712*
X02713Y00551*
Y00553*
Y00554*
X02712Y00556*
X02707*
X02721Y0055D02*
X02718D01*
X02716Y00551*
Y00554*
X02718Y00556*
X02721*
X02722Y00554*
Y00553*
X02716*
X02725Y00556D02*
Y0055D01*
Y00553*
X02727Y00554*
X02728Y00556*
X0273*
X0243Y00559D02*
Y0055D01*
X02436*
X0244Y00556D02*
X02443D01*
X02444Y00554*
Y0055*
X0244*
X02439Y00551*
X0244Y00553*
X02444*
X02447Y00556D02*
Y00551D01*
X02449Y0055*
X02453*
Y00548*
X02452Y00547*
X0245*
X02453Y0055D02*
Y00556D01*
X02461Y0055D02*
X02458D01*
X02456Y00551*
Y00554*
X02458Y00556*
X02461*
X02462Y00554*
Y00553*
X02456*
X02465Y00556D02*
Y0055D01*
Y00553*
X02467Y00554*
X02468Y00556*
X0247*
G54D106*
X0243Y00046D02*
X02445D01*
X0245Y00048*
X02451Y0005*
X02453Y00053*
Y00058*
X02451Y00061*
X0245Y00063*
X02445Y00064*
X0243*
Y0003*
X02461Y00064D02*
Y0003D01*
X02488Y00053D02*
Y0003D01*
Y00048D02*
X02485Y00051D01*
X02481Y00053*
X02476*
X02473Y00051*
X0247Y00048*
X02468Y00043*
Y0004*
X0247Y00035*
X02473Y00031*
X02476Y0003*
X02481*
X02485Y00031*
X02488Y00035*
X02502Y00064D02*
Y00036D01*
X02504Y00031*
X02507Y0003*
X02511*
X02497Y00053D02*
X02509D01*
X02519Y00064D02*
X02521Y00063D01*
X02522Y00064*
X02521Y00066*
X02519Y00064*
X02521Y00053D02*
Y0003D01*
X02528Y00053D02*
Y0003D01*
Y00046D02*
X02533Y00051D01*
X02537Y00053*
X02542*
X02545Y00051*
X02547Y00046*
Y0003*
X02576Y00053D02*
Y00026D01*
X02574Y00021*
X02573Y0002*
X02569Y00018*
X02564*
X02561Y0002*
X02576Y00048D02*
X02573Y00051D01*
X02569Y00053*
X02564*
X02561Y00051*
X02558Y00048*
X02556Y00043*
Y0004*
X02558Y00035*
X02561Y00031*
X02564Y0003*
X02569*
X02573Y00031*
X02576Y00035*
X02618Y00064D02*
Y00036D01*
X02619Y00031*
X02623Y0003*
X02626*
X02613Y00053D02*
X02624D01*
X02633D02*
X02643Y0003D01*
X02653Y00053D02*
X02643Y0003D01*
X02639Y00023*
X02636Y0002*
X02633Y00018*
X02631*
X02659Y00053D02*
Y00018D01*
Y00048D02*
X02662Y00051D01*
X02665Y00053*
X0267*
X02674Y00051*
X02677Y00048*
X02679Y00043*
Y0004*
X02677Y00035*
X02674Y00031*
X0267Y0003*
X02665*
X02662Y00031*
X02659Y00035*
X02686Y00043D02*
X02706D01*
Y00046*
X02704Y0005*
X02703Y00051*
X02699Y00053*
X02694*
X02691Y00051*
X02688Y00048*
X02686Y00043*
Y0004*
X02688Y00035*
X02691Y00031*
X02694Y0003*
X02699*
X02703Y00031*
X02706Y00035*
X02743Y00053D02*
X02741Y00051D01*
X02743Y0005*
X02744Y00051*
X02743Y00053*
Y00033D02*
X02741Y00031D01*
X02743Y0003*
X02744Y00031*
X02743Y00033*
X0278Y00064D02*
Y0003D01*
X02787Y00043D02*
X02807D01*
Y00046*
X02805Y0005*
X02804Y00051*
X028Y00053*
X02795*
X02792Y00051*
X02789Y00048*
X02787Y00043*
Y0004*
X02789Y00035*
X02792Y00031*
X02795Y0003*
X028*
X02804Y00031*
X02807Y00035*
X02834Y00053D02*
Y0003D01*
Y00048D02*
X02831Y00051D01*
X02828Y00053*
X02823*
X02819Y00051*
X02816Y00048*
X02814Y00043*
Y0004*
X02816Y00035*
X02819Y00031*
X02823Y0003*
X02828*
X02831Y00031*
X02834Y00035*
X02864Y00064D02*
Y0003D01*
Y00048D02*
X0286Y00051D01*
X02857Y00053*
X02852*
X02849Y00051*
X02845Y00048*
X02844Y00043*
Y0004*
X02845Y00035*
X02849Y00031*
X02852Y0003*
X02857*
X0286Y00031*
X02864Y00035*
X02926Y00056D02*
X02924Y00059D01*
X02921Y00063*
X02917Y00064*
X02911*
X02907Y00063*
X02904Y00059*
X02902Y00056*
X02901Y00051*
Y00043*
X02902Y00038*
X02904Y00035*
X02907Y00031*
X02911Y0003*
X02917*
X02921Y00031*
X02924Y00035*
X02926Y00038*
Y00043*
X02917D02*
X02926D01*
X02942Y00053D02*
X02939Y00051D01*
X02935Y00048*
X02934Y00043*
Y0004*
X02935Y00035*
X02939Y00031*
X02942Y0003*
X02947*
X0295Y00031*
X02954Y00035*
X02955Y0004*
Y00043*
X02954Y00048*
X0295Y00051*
X02947Y00053*
X02942*
X02963Y00064D02*
Y0003D01*
X0299Y00064D02*
Y0003D01*
Y00048D02*
X02987Y00051D01*
X02984Y00053*
X02979*
X02975Y00051*
X02972Y00048*
X0297Y00043*
Y0004*
X02972Y00035*
X02975Y00031*
X02979Y0003*
X02984*
X02987Y00031*
X0299Y00035*
X02453Y00119D02*
X0245Y00123D01*
X02445Y00124*
X02438*
X02433Y00123*
X0243Y00119*
Y00116*
X02431Y00113*
X02433Y00111*
X02436Y0011*
X02446Y00106*
X0245Y00105*
X02451Y00103*
X02453Y001*
Y00095*
X0245Y00091*
X02445Y0009*
X02438*
X02433Y00091*
X0243Y00095*
X02469Y00113D02*
X02466Y00111D01*
X02462Y00108*
X02461Y00103*
Y001*
X02462Y00095*
X02466Y00091*
X02469Y0009*
X02474*
X02477Y00091*
X02481Y00095*
X02482Y001*
Y00103*
X02481Y00108*
X02477Y00111*
X02474Y00113*
X02469*
X0249Y00124D02*
Y0009D01*
X02517Y00124D02*
Y0009D01*
Y00108D02*
X02514Y00111D01*
X02511Y00113*
X02506*
X02502Y00111*
X02499Y00108*
X02497Y00103*
Y001*
X02499Y00095*
X02502Y00091*
X02506Y0009*
X02511*
X02514Y00091*
X02517Y00095*
X02527Y00103D02*
X02547D01*
Y00106*
X02545Y0011*
X02543Y00111*
X0254Y00113*
X02535*
X02532Y00111*
X02528Y00108*
X02527Y00103*
Y001*
X02528Y00095*
X02532Y00091*
X02535Y0009*
X0254*
X02543Y00091*
X02547Y00095*
X02554Y00113D02*
Y0009D01*
Y00103D02*
X02556Y00108D01*
X02559Y00111*
X02562Y00113*
X02567*
X02598D02*
Y0009D01*
Y00103D02*
X026Y00108D01*
X02603Y00111*
X02606Y00113*
X02611*
X02615Y00103D02*
X02635D01*
Y00106*
X02633Y0011*
X02631Y00111*
X02628Y00113*
X02623*
X0262Y00111*
X02616Y00108*
X02615Y00103*
Y001*
X02616Y00095*
X0262Y00091*
X02623Y0009*
X02628*
X02631Y00091*
X02635Y00095*
X0266Y00108D02*
X02659Y00111D01*
X02654Y00113*
X02649*
X02644Y00111*
X02642Y00108*
X02644Y00105*
X02647Y00103*
X02655Y00101*
X02659Y001*
X0266Y00096*
Y00095*
X02659Y00091*
X02654Y0009*
X02649*
X02644Y00091*
X02642Y00095*
X02671Y00124D02*
X02673Y00123D01*
X02674Y00124*
X02673Y00126*
X02671Y00124*
X02673Y00113D02*
Y0009D01*
X02699Y00108D02*
X02697Y00111D01*
X02692Y00113*
X02687*
X02682Y00111*
X02681Y00108*
X02682Y00105*
X02686Y00103*
X02694Y00101*
X02697Y001*
X02699Y00096*
Y00095*
X02697Y00091*
X02692Y0009*
X02687*
X02682Y00091*
X02681Y00095*
X02711Y00124D02*
Y00096D01*
X02713Y00091*
X02716Y0009*
X0272*
X02706Y00113D02*
X02718D01*
X02772Y00108D02*
X02769Y00111D01*
X02765Y00113*
X0276*
X02757Y00111*
X02754Y00108*
X02752Y00103*
Y001*
X02754Y00095*
X02757Y00091*
X0276Y0009*
X02765*
X02769Y00091*
X02772Y00095*
X02788Y00113D02*
X02785Y00111D01*
X02781Y00108*
X0278Y00103*
Y001*
X02781Y00095*
X02785Y00091*
X02788Y0009*
X02793*
X02796Y00091*
X028Y00095*
X02801Y001*
Y00103*
X028Y00108*
X02796Y00111*
X02793Y00113*
X02788*
X02809Y00124D02*
Y0009D01*
X02825Y00113D02*
X02821Y00111D01*
X02818Y00108*
X02816Y00103*
Y001*
X02818Y00095*
X02821Y00091*
X02825Y0009*
X0283*
X02833Y00091*
X02836Y00095*
X02838Y001*
Y00103*
X02836Y00108*
X02833Y00111*
X0283Y00113*
X02825*
X02846D02*
Y0009D01*
Y00103D02*
X02847Y00108D01*
X02851Y00111*
X02854Y00113*
X02859*
X02891D02*
X0289Y00111D01*
X02891Y0011*
X02893Y00111*
X02891Y00113*
Y00093D02*
X0289Y00091D01*
X02891Y0009*
X02893Y00091*
X02891Y00093*
X02928Y00124D02*
X02936Y0009D01*
X02945Y00124D02*
X02936Y0009D01*
X02945Y00124D02*
X02953Y0009D01*
X02961Y00124D02*
X02953Y0009D01*
X02968Y00124D02*
Y0009D01*
Y00106D02*
X02973Y00111D01*
X02977Y00113*
X02982*
X02985Y00111*
X02987Y00106*
Y0009*
X02999Y00124D02*
X03001Y00123D01*
X03003Y00124*
X03001Y00126*
X02999Y00124*
X03001Y00113D02*
Y0009D01*
X03014Y00124D02*
Y00096D01*
X03015Y00091*
X03019Y0009*
X03022*
X03009Y00113D02*
X0302D01*
X03027Y00103D02*
X03047D01*
Y00106*
X03045Y0011*
X03044Y00111*
X0304Y00113*
X03035*
X03032Y00111*
X03029Y00108*
X03027Y00103*
Y001*
X03029Y00095*
X03032Y00091*
X03035Y0009*
X0304*
X03044Y00091*
X03047Y00095*
X02453Y00179D02*
X0245Y00183D01*
X02445Y00184*
X02438*
X02433Y00183*
X0243Y00179*
Y00176*
X02431Y00173*
X02433Y00171*
X02436Y0017*
X02446Y00166*
X0245Y00165*
X02451Y00163*
X02453Y0016*
Y00155*
X0245Y00151*
X02445Y0015*
X02438*
X02433Y00151*
X0243Y00155*
X02464Y00184D02*
X02466Y00183D01*
X02467Y00184*
X02466Y00186*
X02464Y00184*
X02466Y00173D02*
Y0015D01*
X02473Y00184D02*
Y0015D01*
X02481Y00184D02*
Y0015D01*
X02497Y00173D02*
X02481Y00156D01*
X02487Y00163D02*
X02499Y0015D01*
X02523Y00168D02*
X02521Y00171D01*
X02516Y00173*
X02511*
X02506Y00171*
X02505Y00168*
X02506Y00165*
X0251Y00163*
X02518Y00161*
X02521Y0016*
X02523Y00156*
Y00155*
X02521Y00151*
X02516Y0015*
X02511*
X02506Y00151*
X02505Y00155*
X0255Y00168D02*
X02547Y00171D01*
X02544Y00173*
X02539*
X02535Y00171*
X02532Y00168*
X0253Y00163*
Y0016*
X02532Y00155*
X02535Y00151*
X02539Y0015*
X02544*
X02547Y00151*
X0255Y00155*
X02558Y00173D02*
Y0015D01*
Y00163D02*
X02559Y00168D01*
X02563Y00171*
X02566Y00173*
X02571*
X02574Y00163D02*
X02594D01*
Y00166*
X02593Y0017*
X02591Y00171*
X02588Y00173*
X02583*
X02579Y00171*
X02576Y00168*
X02574Y00163*
Y0016*
X02576Y00155*
X02579Y00151*
X02583Y0015*
X02588*
X02591Y00151*
X02594Y00155*
X02602Y00163D02*
X02622D01*
Y00166*
X0262Y0017*
X02618Y00171*
X02615Y00173*
X0261*
X02607Y00171*
X02603Y00168*
X02602Y00163*
Y0016*
X02603Y00155*
X02607Y00151*
X0261Y0015*
X02615*
X02618Y00151*
X02622Y00155*
X02629Y00173D02*
Y0015D01*
Y00166D02*
X02634Y00171D01*
X02638Y00173*
X02643*
X02646Y00171*
X02648Y00166*
Y0015*
X02704Y00168D02*
X02701Y00171D01*
X02698Y00173*
X02693*
X02689Y00171*
X02686Y00168*
X02684Y00163*
Y0016*
X02686Y00155*
X02689Y00151*
X02693Y0015*
X02698*
X02701Y00151*
X02704Y00155*
X0272Y00173D02*
X02717Y00171D01*
X02713Y00168*
X02712Y00163*
Y0016*
X02713Y00155*
X02717Y00151*
X0272Y0015*
X02725*
X02728Y00151*
X02732Y00155*
X02733Y0016*
Y00163*
X02732Y00168*
X02728Y00171*
X02725Y00173*
X0272*
X02741Y00184D02*
Y0015D01*
X02757Y00173D02*
X02753Y00171D01*
X0275Y00168*
X02748Y00163*
Y0016*
X0275Y00155*
X02753Y00151*
X02757Y0015*
X02762*
X02765Y00151*
X02768Y00155*
X0277Y0016*
Y00163*
X02768Y00168*
X02765Y00171*
X02762Y00173*
X02757*
X02778D02*
Y0015D01*
Y00163D02*
X02779Y00168D01*
X02783Y00171*
X02786Y00173*
X02791*
X02823D02*
X02822Y00171D01*
X02823Y0017*
X02825Y00171*
X02823Y00173*
Y00153D02*
X02822Y00151D01*
X02823Y0015*
X02825Y00151*
X02823Y00153*
X0286Y00184D02*
Y0015D01*
Y00184D02*
X02875D01*
X0288Y00183*
X02882Y00181*
X02884Y00178*
Y00175*
X02882Y00171*
X0288Y0017*
X02875Y00168*
X0286D02*
X02875D01*
X0288Y00166*
X02882Y00165*
X02884Y00161*
Y00156*
X02882Y00153*
X0288Y00151*
X02875Y0015*
X0286*
X02891Y00184D02*
Y0015D01*
X02899Y00173D02*
Y00156D01*
X029Y00151*
X02904Y0015*
X02909*
X02912Y00151*
X02917Y00156*
Y00173D02*
Y0015D01*
X02926Y00163D02*
X02946D01*
Y00166*
X02945Y0017*
X02943Y00171*
X0294Y00173*
X02935*
X02931Y00171*
X02928Y00168*
X02926Y00163*
Y0016*
X02928Y00155*
X02931Y00151*
X02935Y0015*
X0294*
X02943Y00151*
X02946Y00155*
X02985Y00184D02*
X02986Y00183D01*
X02988Y00184*
X02986Y00186*
X02985Y00184*
X02986Y00173D02*
Y0015D01*
X02994Y00173D02*
Y0015D01*
Y00166D02*
X02999Y00171D01*
X03002Y00173*
X03007*
X03011Y00171*
X03012Y00166*
Y0015*
X03022Y00184D02*
Y0015D01*
X03038Y00173D02*
X03022Y00156D01*
X03028Y00163D02*
X0304Y0015D01*
X03073Y00166D02*
X03088D01*
X03093Y00168*
X03095Y0017*
X03096Y00173*
Y00178*
X03095Y00181*
X03093Y00183*
X03088Y00184*
X03073*
Y0015*
X03131D02*
X03117Y00184D01*
X03104Y0015*
X03109Y00161D02*
X03126D01*
X03139Y00184D02*
Y0015D01*
Y00184D02*
X03162Y0015D01*
Y00184D02*
Y0015D01*
X03184Y00184D02*
Y0015D01*
X03172Y00184D02*
X03195D01*
X03209D02*
X03206Y00183D01*
X03203Y00179*
X03201Y00176*
X03199Y00171*
Y00163*
X03201Y00158*
X03203Y00155*
X03206Y00151*
X03209Y0015*
X03216*
X03219Y00151*
X03223Y00155*
X03224Y00158*
X03226Y00163*
Y00171*
X03224Y00176*
X03223Y00179*
X03219Y00183*
X03216Y00184*
X03209*
X03234D02*
Y0015D01*
Y00184D02*
X03257Y0015D01*
Y00184D02*
Y0015D01*
X03289Y00184D02*
X03267D01*
Y0015*
X03289*
X03267Y00168D02*
X0328D01*
X03324Y00176D02*
Y00178D01*
X03325Y00181*
X03327Y00183*
X0333Y00184*
X03337*
X0334Y00183*
X03342Y00181*
X03344Y00178*
Y00175*
X03342Y00171*
X03339Y00166*
X03322Y0015*
X03345*
X03375Y00173D02*
X03373Y00168D01*
X0337Y00165*
X03365Y00163*
X03363*
X03358Y00165*
X03355Y00168*
X03353Y00173*
Y00175*
X03355Y00179*
X03358Y00183*
X03363Y00184*
X03365*
X0337Y00183*
X03373Y00179*
X03375Y00173*
Y00165*
X03373Y00156*
X0337Y00151*
X03365Y0015*
X03362*
X03357Y00151*
X03355Y00155*
X03404Y00184D02*
X03388D01*
X03386Y0017*
X03388Y00171*
X03393Y00173*
X03398*
X03403Y00171*
X03406Y00168*
X03408Y00163*
Y0016*
X03406Y00155*
X03403Y00151*
X03398Y0015*
X03393*
X03388Y00151*
X03386Y00153*
X03384Y00156*
X03436Y00184D02*
X03419D01*
X03417Y0017*
X03419Y00171*
X03424Y00173*
X03429*
X03434Y00171*
X03437Y00168*
X03439Y00163*
Y0016*
X03437Y00155*
X03434Y00151*
X03429Y0015*
X03424*
X03419Y00151*
X03417Y00153*
X03416Y00156*
X0243Y00606D02*
Y00579D01*
X02447*
X02461Y00597D02*
X0247D01*
X02474Y00592*
Y00579*
X02461*
X02456Y00583*
X02461Y00588*
X02474*
X02483Y00597D02*
Y00583D01*
X02488Y00579*
X02501*
Y00574*
X02497Y0057*
X02492*
X02501Y00579D02*
Y00597D01*
X02524Y00579D02*
X02515D01*
X0251Y00583*
Y00592*
X02515Y00597*
X02524*
X02528Y00592*
Y00588*
X0251*
X02537Y00597D02*
Y00579D01*
Y00588*
X02542Y00592*
X02546Y00597*
X02551*
X02609Y00601D02*
X02605Y00606D01*
X02596*
X02591Y00601*
Y00597*
X02596Y00592*
X02605*
X02609Y00588*
Y00583*
X02605Y00579*
X02596*
X02591Y00583*
X02623Y00601D02*
Y00597D01*
X02618*
X02627*
X02623*
Y00583*
X02627Y00579*
X02645Y00597D02*
X02654D01*
X02659Y00592*
Y00579*
X02645*
X02641Y00583*
X02645Y00588*
X02659*
X02686Y00597D02*
X02672D01*
X02668Y00592*
Y00583*
X02672Y00579*
X02686*
X02695D02*
Y00606D01*
Y00588D02*
X02708Y00597D01*
X02695Y00588D02*
X02708Y00579D01*
X02749Y00606D02*
Y00583D01*
X02753Y00579*
X02762*
X02767Y00583*
Y00606*
X02776Y0057D02*
Y00597D01*
X02789*
X02794Y00592*
Y00583*
X02789Y00579*
X02776*
X0283Y00606D02*
Y00579D01*
X02843*
X02848Y00583*
Y00601*
X02843Y00606*
X0283*
X0287Y00579D02*
X02861D01*
X02857Y00583*
Y00592*
X02861Y00597*
X0287*
X02875Y00592*
Y00588*
X02857*
X02888Y00601D02*
Y00597D01*
X02884*
X02893*
X02888*
Y00583*
X02893Y00579*
X02911Y00597D02*
X0292D01*
X02924Y00592*
Y00579*
X02911*
X02906Y00583*
X02911Y00588*
X02924*
X02933Y00579D02*
X02942D01*
X02938*
Y00597*
X02933*
X02956Y00579D02*
X02965D01*
X0296*
Y00606*
X02956*
X0301Y00579D02*
Y00601D01*
Y00592*
X03005*
X03014*
X0301*
Y00601*
X03014Y00606*
X03032Y00579D02*
X03041D01*
X03046Y00583*
Y00592*
X03041Y00597*
X03032*
X03028Y00592*
Y00583*
X03032Y00579*
X03055Y00597D02*
Y00579D01*
Y00588*
X03059Y00592*
X03064Y00597*
X03068*
X03082D02*
X03086D01*
Y00592*
X03082*
Y00597*
Y00583D02*
X03086D01*
Y00579*
X03082*
Y00583*
X03131Y00579D02*
Y00606D01*
X03149Y00579*
Y00606*
X03158Y00597D02*
Y00583D01*
X03163Y00579*
X03176*
Y00597*
X03203D02*
X0319D01*
X03185Y00592*
Y00583*
X0319Y00579*
X03203*
X03212D02*
X03221D01*
X03217*
Y00606*
X03212*
X03248Y00579D02*
X03239D01*
X03235Y00583*
Y00592*
X03239Y00597*
X03248*
X03253Y00592*
Y00588*
X03235*
X03266Y00579D02*
X03275D01*
X0328Y00583*
Y00592*
X03275Y00597*
X03266*
X03262Y00592*
Y00583*
X03266Y00579*
X03289Y00574D02*
X03307D01*
X03334Y00606D02*
X03325Y00601D01*
X03316Y00592*
Y00583*
X0332Y00579*
X03329*
X03334Y00583*
Y00588*
X03329Y00592*
X03316*
X03356Y00579D02*
Y00606D01*
X03343Y00592*
X03361*
X0337Y00579D02*
Y00583D01*
X03374*
Y00579*
X0337*
X03392D02*
Y00606D01*
X03406*
X0341Y00601*
Y00592*
X03406Y00588*
X03392*
X03437Y00597D02*
X03424D01*
X03419Y00592*
Y00583*
X03424Y00579*
X03437*
X03446Y00606D02*
Y00579D01*
X0346*
X03464Y00583*
Y00588*
Y00592*
X0346Y00597*
X03446*
X03473Y00606D02*
Y00579D01*
X03487*
X03491Y00583*
Y00601*
X03487Y00606*
X03473*
X03505Y00579D02*
X03514D01*
X03518Y00583*
Y00592*
X03514Y00597*
X03505*
X035Y00592*
Y00583*
X03505Y00579*
X03545Y00597D02*
X03532D01*
X03527Y00592*
Y00583*
X03532Y00579*
X03545*
G54D107*
X02562Y0215D02*
D01*
X02561Y02151*
X02561Y02152*
X02561Y02153*
X02561Y02154*
X02561Y02155*
X0256Y02156*
X0256Y02157*
X02559Y02158*
X02558Y02159*
X02558Y0216*
X02557Y02161*
X02556Y02161*
X02555Y02162*
X02554Y02163*
X02554Y02163*
X02553Y02164*
X02551Y02164*
X0255Y02165*
X02549Y02165*
X02548Y02165*
X02547Y02165*
X02546Y02165*
X02545*
X02544Y02165*
X02543Y02165*
X02542Y02165*
X02541Y02165*
X0254Y02164*
X02538Y02164*
X02538Y02163*
X02537Y02163*
X02536Y02162*
X02535Y02161*
X02534Y02161*
X02533Y0216*
X02533Y02159*
X02532Y02158*
X02531Y02157*
X02531Y02156*
X0253Y02155*
X0253Y02154*
X0253Y02153*
X0253Y02152*
X0253Y02151*
X0253Y0215*
X0253Y02148*
X0253Y02147*
X0253Y02146*
X0253Y02145*
X0253Y02144*
X02531Y02143*
X02531Y02142*
X02532Y02141*
X02533Y0214*
X02533Y02139*
X02534Y02138*
X02535Y02138*
X02536Y02137*
X02537Y02136*
X02538Y02136*
X02538Y02135*
X0254Y02135*
X02541Y02134*
X02542Y02134*
X02543Y02134*
X02544Y02134*
X02545Y02134*
X02546*
X02547Y02134*
X02548Y02134*
X02549Y02134*
X0255Y02134*
X02551Y02135*
X02553Y02135*
X02554Y02136*
X02554Y02136*
X02555Y02137*
X02556Y02138*
X02557Y02138*
X02558Y02139*
X02558Y0214*
X02559Y02141*
X0256Y02142*
X0256Y02143*
X02561Y02144*
X02561Y02145*
X02561Y02146*
X02561Y02147*
X02561Y02148*
X02562Y0215*
M02*