%FSTAX23Y23*%
%MOIN*%
%SFA1B1*%

%IPPOS*%
%ADD9500C,0.008000*%
%ADD9501C,0.013000*%
%ADD9502C,0.028000*%
%ADD9503C,0.040000*%
%ADD9504C,0.039370*%
%ADD9505C,0.125980*%
%LNmb1136-1*%
%LPD*%
G54D9500*
X-004Y0D03*
X-0011Y-0008D03*
X001Y-001D03*
X0019Y001D03*
X00225Y0004D03*
X0025Y00015D03*
X00335Y0001D03*
X00425D03*
X0042Y0015D03*
X0034D03*
X00535Y00155D03*
X0062Y0015D03*
X0063Y0004D03*
X0075Y0D03*
X008D03*
X0081Y0012D03*
X0075D03*
X0096Y0006D03*
X01125Y0015D03*
X012Y001D03*
X01325Y0015D03*
X014Y001D03*
X015Y0D03*
X013D03*
X0122Y-0016D03*
X0139D03*
X011Y-001D03*
X0088Y-0016D03*
X0064D03*
X0046D03*
X0027D03*
X0173Y-0007D03*
X0165Y0008D03*
X018D03*
X0184Y0013D03*
X0202Y-0008D03*
X023Y0D03*
Y002D03*
Y004D03*
Y006D03*
Y008D03*
Y01D03*
Y012D03*
Y014D03*
Y016D03*
X0179Y01315D03*
X01805Y0117D03*
X0178Y01145D03*
X0183Y0104D03*
X01965Y01085D03*
Y0112D03*
X0201Y0106D03*
Y0098D03*
X0199Y00755D03*
X01805Y00715D03*
X0182Y0054D03*
X0178Y00305D03*
X02Y0035D03*
X01715D03*
X0164D03*
X0166Y0041D03*
X01605Y0047D03*
X0158Y00485D03*
X01555Y0047D03*
X0151Y0046D03*
X0149Y00575D03*
Y0063D03*
X0142D03*
X0138Y00665D03*
X01355Y0068D03*
X01347Y00738D03*
X0131Y00825D03*
Y0095D03*
X0145Y0096D03*
X01525Y00925D03*
Y00899D03*
Y00825D03*
Y00795D03*
Y007D03*
X01575D03*
X0155Y0065D03*
X0165D03*
X01645Y00545D03*
X0169Y00575D03*
X0173Y006D03*
Y0047D03*
X0146Y0037D03*
X01375Y00325D03*
X0137Y0029D03*
Y0025D03*
X0138Y0018D03*
X0147Y002D03*
X01545Y00175D03*
X0162Y0018D03*
X0117Y0017D03*
X011Y00175D03*
Y0021D03*
Y003D03*
Y00375D03*
Y00425D03*
X0113Y00455D03*
X01165Y00485D03*
X0123Y0045D03*
X0137D03*
Y006D03*
X0122Y00645D03*
X0119Y00625D03*
X01155Y00785D03*
X01195Y009D03*
X01065Y00925D03*
X00995Y009D03*
Y0086D03*
X01Y00805D03*
X0097Y0078D03*
Y0075D03*
Y0072D03*
Y0069D03*
X0099Y0061D03*
X0089Y0066D03*
X00815Y00685D03*
X0074Y0063D03*
X0071Y0081D03*
Y0088D03*
X008D03*
Y0081D03*
X0085D03*
X00839Y00451D03*
X0085Y00425D03*
X008Y00421D03*
X00775Y00435D03*
X00725Y00415D03*
X00675D03*
X0059Y0032D03*
X0042Y0025D03*
X0034Y0027D03*
X0029Y0045D03*
X0036Y0051D03*
X004Y00525D03*
X0038Y006D03*
X003Y0063D03*
X0025Y006D03*
X0026Y0056D03*
X003Y0075D03*
X00275Y0095D03*
X0037D03*
X0045Y0096D03*
Y0109D03*
X00525Y011D03*
X0061D03*
X00625Y01065D03*
X00675Y01103D03*
X00722Y011D03*
X0082Y0118D03*
X0086Y0123D03*
X0091Y01275D03*
X00935Y0126D03*
X00775Y01255D03*
X008Y0146D03*
X0092Y0154D03*
X00975Y01585D03*
X01055Y01595D03*
X01035Y0154D03*
Y0166D03*
X0092Y01685D03*
X01195Y01635D03*
Y01575D03*
X01305Y0158D03*
X0133Y01635D03*
X01275Y01675D03*
X01365Y0152D03*
X0139D03*
Y0148D03*
X01365D03*
X0146Y01465D03*
X01465Y0153D03*
X015Y01555D03*
X0155D03*
X0156Y0138D03*
X01515Y0135D03*
X01545Y0129D03*
X01375Y013D03*
X0125Y0135D03*
Y0144D03*
X0164Y0143D03*
X0174Y0151D03*
X0169Y0165D03*
X0176Y01325D03*
X01705Y012D03*
X01625Y0118D03*
Y01025D03*
X0169Y0105D03*
X01765Y01025D03*
X01735Y0096D03*
X0173Y0085D03*
X01675Y009D03*
X0165Y00925D03*
X01625Y00805D03*
X016Y00825D03*
X01525Y0105D03*
X01225Y0106D03*
X01195Y0107D03*
X0117Y01095D03*
X0114Y01035D03*
X0099Y00335D03*
X0096Y0022D03*
X008Y0026D03*
X0055Y006D03*
X00542Y00652D03*
X0054Y0075D03*
X0029Y0106D03*
Y0119D03*
X00225Y01175D03*
X003Y0129D03*
X00405D03*
X0034Y01415D03*
X004Y01525D03*
Y016D03*
X00515Y01555D03*
X00275Y017D03*
X0014Y015D03*
X00175Y01325D03*
X002Y0115D03*
X00175Y0105D03*
Y0095D03*
X0012Y0081D03*
X0021Y0077D03*
X0015Y007D03*
X0007Y0058D03*
X-0009Y0053D03*
X-0013Y0061D03*
X-004Y006D03*
Y004D03*
Y002D03*
X00065Y0018D03*
X00125Y0025D03*
X0019Y00265D03*
Y0031D03*
X00175Y0045D03*
X00125Y00425D03*
X-004Y008D03*
Y01D03*
Y012D03*
Y014D03*
Y016D03*
Y018D03*
Y02D03*
X-002D03*
Y022D03*
X-00165Y02245D03*
X-0004Y0227D03*
X-00045Y02125D03*
X0018Y0213D03*
X00185Y022D03*
X0017Y02225D03*
X0021Y02185D03*
X0015Y023D03*
Y02375D03*
X0003Y0235D03*
X0Y0244D03*
X-002Y024D03*
X-004D03*
Y022D03*
Y026D03*
Y028D03*
X-003Y03D03*
X-001D03*
X001D03*
X0015Y02775D03*
X0019Y0266D03*
X0018Y0259D03*
X-002Y026D03*
X-001Y028D03*
X001Y02D03*
Y018D03*
X-001D03*
X00285Y01805D03*
X00355Y0181D03*
X00325Y019D03*
X0026Y0188D03*
X0031Y0201D03*
X003Y0214D03*
X00265Y02145D03*
X00235D03*
X00285Y02185D03*
X0034Y0213D03*
X00235Y0235D03*
X0022Y024D03*
Y02475D03*
X003Y02495D03*
X0033Y02485D03*
X0025Y02575D03*
X0022Y02625D03*
X003Y03D03*
X005D03*
X007D03*
X009D03*
X00925Y02845D03*
X008Y02802D03*
X0063D03*
X00605Y028D03*
X0059Y0244D03*
X0066Y0243D03*
X00735D03*
X00825Y0244D03*
X0084Y0237D03*
X0092Y0239D03*
X0091Y0249D03*
X009Y02546D03*
X0092Y0257D03*
X0081Y0261D03*
X0089Y02695D03*
X01Y02747D03*
X0107Y0269D03*
X0115Y02775D03*
Y0281D03*
Y02975D03*
X011Y03D03*
X0104Y0292D03*
X01325Y02825D03*
Y02775D03*
X0135Y027D03*
X0128Y0267D03*
X0126Y0263D03*
X01267Y02547D03*
X01335Y0255D03*
X01375Y024D03*
X01462Y02385D03*
X016Y0236D03*
Y0232D03*
X01522Y0225D03*
X01536Y02211D03*
X0145Y0221D03*
X015Y0212D03*
X0157Y0214D03*
X0156Y0201D03*
X017Y02D03*
Y019D03*
X01765Y0225D03*
X0174Y0234D03*
X0169Y0251D03*
X01665Y0257D03*
X01685Y026D03*
X01775Y02645D03*
X017Y02775D03*
X0154Y0276D03*
X01555Y025D03*
X0158Y02514D03*
X01235Y02375D03*
X01183Y02371D03*
X01065Y0238D03*
X01045Y0236D03*
X0102Y02375D03*
X0104Y0249D03*
X01025Y0216D03*
X01115D03*
X0125Y0221D03*
Y0226D03*
X0124Y0201D03*
X0139D03*
X0129Y01812D03*
X01185Y01765D03*
X0111D03*
X01085Y01745D03*
X01045Y0175D03*
X01013Y02D03*
X00922Y01965D03*
X0091Y0212D03*
X00885Y0218D03*
X00905Y0221D03*
X00932Y02232D03*
X0095Y0218D03*
X0066Y023D03*
X0062Y0226D03*
X0053Y0234D03*
X005Y02425D03*
X00605Y01987D03*
X01425Y0295D03*
X017Y02975D03*
X018Y03D03*
X02D03*
X022D03*
X023Y029D03*
Y027D03*
Y025D03*
Y023D03*
X022Y022D03*
X0218Y02115D03*
X021Y02D03*
Y019D03*
X023Y02D03*
Y018D03*
X019Y02D03*
X0186Y0236D03*
X0178Y0243D03*
X0183Y025D03*
X01925D03*
X021D03*
Y027D03*
X0185Y0265D03*
G54D9501*
X00295Y0098D03*
X00335D03*
X0037Y0101D03*
X0053Y00965D03*
X00575Y012D03*
X00625Y0129D03*
Y01425D03*
X00525D03*
Y01375D03*
X006Y0165D03*
X0041Y01685D03*
Y01715D03*
X00685Y00635D03*
X0099Y003D03*
X011Y0025D03*
X0122Y0218D03*
X0121Y0226D03*
X01265Y02295D03*
X01182Y02547D03*
X0111Y027D03*
X01595Y02635D03*
X016Y02494D03*
X01525Y02525D03*
X01612Y02277D03*
X01815Y02365D03*
X0195Y0245D03*
G54D9502*
X00675Y00175D03*
X00875D03*
X00575Y02299D03*
Y02499D03*
G54D9503*
X-003Y0D03*
X-002D03*
Y001D03*
X-003D03*
X0D03*
Y0D03*
X019D03*
Y001D03*
X021D03*
Y0D03*
X022D03*
Y001D03*
Y002D03*
X021D03*
Y003D03*
Y004D03*
Y005D03*
Y006D03*
Y007D03*
Y008D03*
Y009D03*
Y01D03*
Y011D03*
Y012D03*
Y013D03*
Y014D03*
Y015D03*
Y016D03*
Y017D03*
X022D03*
Y016D03*
Y015D03*
Y014D03*
Y013D03*
Y012D03*
Y011D03*
Y01D03*
Y009D03*
Y008D03*
Y007D03*
Y006D03*
Y005D03*
Y004D03*
Y003D03*
X019D03*
Y004D03*
Y005D03*
Y006D03*
Y007D03*
Y0086D03*
Y0096D03*
Y0106D03*
Y0116D03*
Y0126D03*
Y0136D03*
Y0146D03*
Y0156D03*
Y0166D03*
Y002D03*
X01475Y01675D03*
X01375D03*
X01275D03*
X00975Y01425D03*
X00875D03*
X0Y014D03*
Y013D03*
Y012D03*
Y011D03*
Y01D03*
Y009D03*
Y008D03*
Y007D03*
Y005D03*
Y004D03*
Y003D03*
Y002D03*
X-002D03*
Y003D03*
Y004D03*
Y005D03*
Y006D03*
Y007D03*
Y008D03*
Y009D03*
Y01D03*
Y011D03*
Y012D03*
Y013D03*
Y014D03*
Y015D03*
Y016D03*
Y017D03*
X-003D03*
Y016D03*
Y015D03*
Y014D03*
Y013D03*
Y012D03*
Y011D03*
Y01D03*
Y009D03*
Y008D03*
Y007D03*
Y006D03*
Y005D03*
Y004D03*
Y003D03*
Y002D03*
Y018D03*
X-002D03*
X-001Y022D03*
Y023D03*
Y024D03*
Y025D03*
Y026D03*
Y027D03*
X-003Y028D03*
Y029D03*
Y023D03*
Y022D03*
X0005Y02175D03*
Y02275D03*
X0045Y0265D03*
Y0275D03*
Y0285D03*
Y0295D03*
X00875D03*
X00975D03*
X022Y029D03*
Y028D03*
Y018D03*
X021D03*
X019Y0176D03*
G54D9504*
X0085Y00627D03*
Y00872D03*
X01338Y02875D03*
X01511D03*
G54D9505*
X013Y-001D03*
X0Y0195D03*
X019Y019D03*
M02*