%FSTAX23Y23*%
%MOIN*%
%SFA1B1*%

%IPPOS*%
%AMD94*
4,1,4,0.020900,-0.054300,0.054300,-0.020900,-0.020900,0.054300,-0.054300,0.020900,0.020900,-0.054300,0.0*
%
%AMD95*
4,1,4,-0.054300,-0.020900,-0.020900,-0.054300,0.054300,0.020900,0.020900,0.054300,-0.054300,-0.020900,0.0*
%
%ADD40C,0.005000*%
%ADD44C,0.010000*%
%ADD66R,0.051310X0.067060*%
%ADD67R,0.027690X0.025720*%
%ADD68R,0.055240X0.086740*%
%ADD69R,0.067060X0.118240*%
%ADD70R,0.086740X0.145790*%
%ADD71R,0.252100X0.055240*%
%ADD72R,0.028000X0.098550*%
%ADD73R,0.038000X0.038000*%
%ADD74R,0.024000X0.038000*%
%ADD75R,0.082800X0.059180*%
%ADD76R,0.068000X0.048000*%
%ADD77R,0.068000X0.058000*%
%ADD78R,0.031620X0.094610*%
%ADD79R,0.031620X0.094610*%
%ADD80R,0.088000X0.048000*%
%ADD81R,0.098000X0.128000*%
%ADD82R,0.048000X0.040000*%
%ADD83R,0.031620X0.025720*%
%ADD84R,0.038000X0.038000*%
%ADD85R,0.045400X0.043430*%
%ADD86R,0.045400X0.043430*%
%ADD87R,0.063120X0.072570*%
%ADD88R,0.025720X0.031620*%
%ADD89R,0.058000X0.068000*%
%ADD90R,0.015870X0.047370*%
%ADD91R,0.047370X0.015870*%
%ADD92R,0.074930X0.016660*%
%ADD93R,0.016660X0.074930*%
G04~CAMADD=94~9~0.0~0.0~473.7~1064.2~0.0~0.0~0~0.0~0.0~0.0~0.0~0~0.0~0.0~0.0~0.0~0~0.0~0.0~0.0~225.0~1086.0~1085.0*
%ADD94D94*%
G04~CAMADD=95~9~0.0~0.0~473.7~1064.2~0.0~0.0~0~0.0~0.0~0.0~0.0~0~0.0~0.0~0.0~0.0~0~0.0~0.0~0.0~135.0~1086.0~1085.0*
%ADD95D95*%
%ADD96O,0.078000X0.063000*%
%ADD97R,0.078000X0.063000*%
%ADD98C,0.068000*%
%ADD99R,0.068000X0.068000*%
%ADD100C,0.047370*%
%ADD101C,0.070000*%
%ADD102C,0.133980*%
%LNmb1136-1*%
%LPD*%
G36*
X01174Y01513D02*
X0115Y01489D01*
X01126Y01513*
Y01523*
X01174*
Y01513*
G37*
G36*
Y01473D02*
X01126D01*
Y01511*
X0115Y01487*
X01174Y01511*
Y01473*
G37*
G36*
X02149Y02288D02*
X02125Y02264D01*
X02101Y02288*
Y02298*
X02149*
Y02288*
G37*
G36*
Y02248D02*
X02101D01*
Y02286*
X02125Y02262*
X02149Y02286*
Y02248*
G37*
G54D40*
X0032Y02085D02*
D01*
X00318Y02084*
X00317Y02084*
X00315Y02084*
X00314Y02084*
X00313Y02083*
X00312Y02083*
X0031Y02082*
X00309Y02082*
X00308Y02081*
X00307Y0208*
X00306Y02079*
X00305Y02078*
X00304Y02077*
X00303Y02076*
X00303Y02075*
X00302Y02073*
X00301Y02072*
X00301Y02071*
X003Y0207*
X003Y02068*
X003Y02067*
X003Y02066*
Y02064*
X003Y02063*
X003Y02061*
X003Y0206*
X00301Y02059*
X00301Y02057*
X00302Y02056*
X00303Y02055*
X00303Y02054*
X00304Y02053*
X00305Y02052*
X00306Y02051*
X00307Y0205*
X00308Y02049*
X00309Y02048*
X0031Y02047*
X00312Y02047*
X00313Y02046*
X00314Y02046*
X00315Y02046*
X00317Y02045*
X00318Y02045*
X0032Y02045*
X0125Y02085D02*
D01*
X01248Y02084*
X01247Y02084*
X01245Y02084*
X01244Y02084*
X01243Y02083*
X01241Y02083*
X0124Y02082*
X01239Y02082*
X01238Y02081*
X01237Y0208*
X01236Y02079*
X01235Y02078*
X01234Y02077*
X01233Y02076*
X01232Y02075*
X01232Y02073*
X01231Y02072*
X01231Y02071*
X0123Y0207*
X0123Y02068*
X0123Y02067*
X0123Y02066*
Y02064*
X0123Y02063*
X0123Y02061*
X0123Y0206*
X01231Y02059*
X01231Y02057*
X01232Y02056*
X01232Y02055*
X01233Y02054*
X01234Y02053*
X01235Y02052*
X01236Y02051*
X01237Y0205*
X01238Y02049*
X01239Y02048*
X0124Y02047*
X01241Y02047*
X01243Y02046*
X01244Y02046*
X01245Y02046*
X01247Y02045*
X01248Y02045*
X0125Y02045*
X01538D02*
D01*
X01539Y02045*
X01541Y02045*
X01542Y02046*
X01544Y02046*
X01545Y02046*
X01546Y02047*
X01547Y02047*
X01549Y02048*
X0155Y02049*
X01551Y0205*
X01552Y02051*
X01553Y02052*
X01554Y02053*
X01554Y02054*
X01555Y02055*
X01556Y02056*
X01556Y02057*
X01557Y02059*
X01557Y0206*
X01557Y02061*
X01558Y02063*
X01558Y02064*
Y02066*
X01558Y02067*
X01557Y02068*
X01557Y0207*
X01557Y02071*
X01556Y02072*
X01556Y02073*
X01555Y02075*
X01554Y02076*
X01554Y02077*
X01553Y02078*
X01552Y02079*
X01551Y0208*
X0155Y02081*
X01549Y02082*
X01547Y02082*
X01546Y02083*
X01545Y02083*
X01544Y02084*
X01542Y02084*
X01541Y02084*
X01539Y02085*
X01538Y02085*
X01698D02*
D01*
X01696Y02084*
X01695Y02084*
X01693Y02084*
X01692Y02084*
X01691Y02083*
X0169Y02083*
X01688Y02082*
X01687Y02082*
X01686Y02081*
X01685Y0208*
X01684Y02079*
X01683Y02078*
X01682Y02077*
X01681Y02076*
X0168Y02075*
X0168Y02073*
X01679Y02072*
X01679Y02071*
X01678Y0207*
X01678Y02068*
X01678Y02067*
X01678Y02066*
Y02064*
X01678Y02063*
X01678Y02061*
X01678Y0206*
X01679Y02059*
X01679Y02057*
X0168Y02056*
X0168Y02055*
X01681Y02054*
X01682Y02053*
X01683Y02052*
X01684Y02051*
X01685Y0205*
X01686Y02049*
X01687Y02048*
X01688Y02047*
X0169Y02047*
X01691Y02046*
X01692Y02046*
X01693Y02046*
X01695Y02045*
X01696Y02045*
X01698Y02045*
X00182D02*
D01*
X00183Y02045*
X00185Y02045*
X00186Y02046*
X00187Y02046*
X00189Y02046*
X0019Y02047*
X00191Y02047*
X00192Y02048*
X00193Y02049*
X00194Y0205*
X00195Y02051*
X00196Y02052*
X00197Y02053*
X00198Y02054*
X00199Y02055*
X00199Y02056*
X002Y02057*
X00201Y02059*
X00201Y0206*
X00201Y02061*
X00201Y02063*
X00201Y02064*
Y02066*
X00201Y02067*
X00201Y02068*
X00201Y0207*
X00201Y02071*
X002Y02072*
X00199Y02073*
X00199Y02075*
X00198Y02076*
X00197Y02077*
X00196Y02078*
X00195Y02079*
X00194Y0208*
X00193Y02081*
X00192Y02082*
X00191Y02082*
X0019Y02083*
X00189Y02083*
X00187Y02084*
X00186Y02084*
X00185Y02084*
X00183Y02085*
X00182Y02085*
X01068Y02045D02*
D01*
X01069Y02045*
X0107Y02045*
X01072Y02046*
X01073Y02046*
X01074Y02046*
X01076Y02047*
X01077Y02047*
X01078Y02048*
X01079Y02049*
X0108Y0205*
X01081Y02051*
X01082Y02052*
X01083Y02053*
X01084Y02054*
X01085Y02055*
X01085Y02056*
X01086Y02057*
X01086Y02059*
X01087Y0206*
X01087Y02061*
X01087Y02063*
X01087Y02064*
Y02066*
X01087Y02067*
X01087Y02068*
X01087Y0207*
X01086Y02071*
X01086Y02072*
X01085Y02073*
X01085Y02075*
X01084Y02076*
X01083Y02077*
X01082Y02078*
X01081Y02079*
X0108Y0208*
X01079Y02081*
X01078Y02082*
X01077Y02082*
X01076Y02083*
X01074Y02083*
X01073Y02084*
X01072Y02084*
X0107Y02084*
X01069Y02085*
X01068Y02085*
X-00349Y03049D02*
D01*
X-00354Y03049*
X-0036Y03048*
X-00365Y03047*
X-0037Y03046*
X-00376Y03044*
X-00381Y03042*
X-00386Y0304*
X-0039Y03037*
X-00395Y03034*
X-00399Y03031*
X-00403Y03027*
X-00407Y03023*
X-00411Y03019*
X-00414Y03014*
X-00417Y0301*
X-00419Y03005*
X-00422Y03*
X-00424Y02995*
X-00425Y02989*
X-00426Y02984*
X-00427Y02979*
X-00427Y02973*
X-00427Y0297*
Y-0004D02*
D01*
X-00427Y-00046*
X-00427Y-00051*
X-00426Y-00057*
X-00424Y-00062*
X-00423Y-00067*
X-00421Y-00072*
X-00418Y-00077*
X-00415Y-00082*
X-00412Y-00087*
X-00409Y-00091*
X-00405Y-00095*
X-00401Y-00099*
X-00397Y-00102*
X-00393Y-00106*
X-00388Y-00109*
X-00383Y-00111*
X-00378Y-00113*
X-00373Y-00115*
X-00368Y-00117*
X-00362Y-00118*
X-00357Y-00119*
X-00351Y-00119*
X-00349Y-00119*
X02327Y0297D02*
D01*
X02327Y02976*
X02327Y02981*
X02326Y02987*
X02324Y02992*
X02323Y02997*
X02321Y03002*
X02318Y03007*
X02315Y03012*
X02312Y03017*
X02309Y03021*
X02305Y03025*
X02301Y03029*
X02297Y03032*
X02293Y03036*
X02288Y03039*
X02283Y03041*
X02278Y03043*
X02273Y03045*
X02268Y03047*
X02262Y03048*
X02257Y03049*
X02251Y03049*
X02249Y03049*
Y-00119D02*
D01*
X02254Y-00119*
X0226Y-00118*
X02265Y-00117*
X0227Y-00116*
X02276Y-00114*
X02281Y-00112*
X02286Y-0011*
X0229Y-00107*
X02295Y-00104*
X02299Y-00101*
X02303Y-00097*
X02307Y-00093*
X02311Y-00089*
X02314Y-00084*
X02317Y-0008*
X02319Y-00075*
X02322Y-0007*
X02324Y-00065*
X02325Y-00059*
X02326Y-00054*
X02327Y-00049*
X02327Y-00043*
X02327Y-0004*
X01402Y-00198D02*
X01481Y-00119D01*
X01402Y-00198D02*
D01*
X00103D02*
X01402D01*
X00024Y-00119D02*
X00103Y-00198D01*
X00019Y-00119D02*
X00024D01*
X0148D02*
X02249D01*
X0125Y02045D02*
X01538D01*
X0125Y02085D02*
X01538D01*
X-00349Y03049D02*
X02249D01*
X-00349Y-00119D02*
X00019D01*
X-00427Y02085D02*
X00182D01*
X-00427Y02045D02*
X00182D01*
X0032D02*
X01068D01*
X0032Y02085D02*
X01068D01*
X01698Y02045D02*
X02327D01*
X01698Y02085D02*
X02327D01*
X-00427Y-0004D02*
Y02045D01*
Y02085D02*
Y0297D01*
X02327Y-0004D02*
Y02045D01*
Y02085D02*
Y0297D01*
G54D44*
X-0008Y03239D02*
Y0318D01*
Y03239D02*
X-00057Y0318D01*
X-00034Y03239D02*
X-00057Y0318D01*
X-00034Y03239D02*
Y0318D01*
X-00017Y03239D02*
Y0318D01*
Y03239D02*
X00008D01*
X00017Y03237*
X00019Y03234*
X00022Y03228*
Y03222*
X00019Y03217*
X00017Y03214*
X00008Y03211*
X-00017D02*
X00008D01*
X00017Y03208*
X00019Y03205*
X00022Y032*
Y03191*
X00019Y03185*
X00017Y03182*
X00008Y0318*
X-00017*
X00036Y03228D02*
X00041Y03231D01*
X0005Y03239*
Y0318*
X0008Y03228D02*
X00085Y03231D01*
X00094Y03239*
Y0318*
X00129Y03239D02*
X00161D01*
X00144Y03217*
X00152*
X00158Y03214*
X00161Y03211*
X00164Y03202*
Y03197*
X00161Y03188*
X00155Y03182*
X00147Y0318*
X00138*
X00129Y03182*
X00127Y03185*
X00124Y03191*
X00211Y03231D02*
X00209Y03237D01*
X002Y03239*
X00194*
X00186Y03237*
X0018Y03228*
X00177Y03214*
Y032*
X0018Y03188*
X00186Y03182*
X00194Y0318*
X00197*
X00206Y03182*
X00211Y03188*
X00214Y03197*
Y032*
X00211Y03208*
X00206Y03214*
X00197Y03217*
X00194*
X00186Y03214*
X0018Y03208*
X00177Y032*
X0027Y03225D02*
X00267Y03231D01*
X00262Y03237*
X00256Y03239*
X00245*
X00239Y03237*
X00233Y03231*
X0023Y03225*
X00227Y03217*
Y03202*
X0023Y03194*
X00233Y03188*
X00239Y03182*
X00245Y0318*
X00256*
X00262Y03182*
X00267Y03188*
X0027Y03194*
G54D66*
X01979Y02859D03*
Y0274D03*
X0192D03*
Y02859D03*
G54D67*
X01323Y01537D03*
Y015D03*
X01426Y01537D03*
Y01462D03*
Y015D03*
X01323Y01462D03*
G54D68*
X01375Y015D03*
G54D69*
X00338Y01525D03*
X00461D03*
G54D70*
X01615Y02961D03*
X01233D03*
X01615Y02764D03*
X01233D03*
G54D71*
X01425Y03006D03*
G54D72*
X01361Y02766D03*
X01393D03*
X01424D03*
X01456D03*
X01487D03*
G54D73*
X01272Y0055D03*
X01327D03*
X01297Y0135D03*
X01352D03*
X01272Y006D03*
X01327D03*
X00447Y01175D03*
X00502D03*
X01327Y0235D03*
X01272D03*
X00327Y023D03*
X00272D03*
X00327Y0235D03*
X00272D03*
X01327Y024D03*
X01272D03*
X00272Y0245D03*
X00327D03*
X00102Y024D03*
X00047D03*
X00102Y02475D03*
X00047D03*
X00102Y0255D03*
X00047D03*
X00102Y02625D03*
X00047D03*
X00327Y02525D03*
X00272D03*
X00102Y02775D03*
X00047D03*
X00977Y01925D03*
X00922D03*
X00977Y01775D03*
X00922D03*
X01422Y0135D03*
X01477D03*
X0044Y01299D03*
X00495D03*
X00987Y0038D03*
X00932D03*
X01303Y01D03*
X01248D03*
X00977Y02D03*
X00922D03*
X00797Y0005D03*
X00852D03*
X00752D03*
X00697D03*
X00552Y0001D03*
X00497D03*
X00922Y0185D03*
X00977D03*
X00552Y00325D03*
X00497D03*
X01627Y0255D03*
X01572D03*
X01627Y026D03*
X01572D03*
X01077Y022D03*
X01022D03*
X00327Y024D03*
X00272D03*
G54D74*
X01637Y02453D03*
X01562D03*
X016D03*
X01562Y02346D03*
X01637D03*
G54D75*
X00266Y00087D03*
Y00212D03*
X00483D03*
Y00087D03*
G54D76*
X01097Y01812D03*
Y01987D03*
X01452D03*
Y01812D03*
X00802Y01987D03*
Y01812D03*
X00447D03*
Y01987D03*
G54D77*
X00705Y01171D03*
Y01281D03*
X00975Y0165D03*
Y0154D03*
G54D78*
X0205Y02172D03*
X019Y02377D03*
X02Y02172D03*
X0195D03*
X02Y02377D03*
X0195D03*
X019Y02172D03*
G54D79*
X0205Y02377D03*
G54D80*
X006Y016D03*
Y01507D03*
Y01693D03*
G54D81*
X0085Y016D03*
G54D82*
X0115Y01466D03*
Y01533D03*
X02125Y02241D03*
Y02308D03*
G54D83*
X01555Y0265D03*
X01645D03*
X0003Y027D03*
X0012D03*
G54D84*
X01775Y02602D03*
Y02547D03*
X0155Y01472D03*
Y01527D03*
X01725Y02547D03*
Y02602D03*
X01825Y02547D03*
Y02602D03*
X00925Y02747D03*
Y02802D03*
X013Y02547D03*
Y02602D03*
X01425Y02547D03*
Y02602D03*
X01475Y02547D03*
Y02602D03*
X01375Y02547D03*
Y02602D03*
X01875Y02547D03*
Y02602D03*
X01925D03*
Y02547D03*
X01975Y02602D03*
Y02547D03*
X00675Y02747D03*
Y02802D03*
X00625Y00322D03*
Y00377D03*
X00775Y00322D03*
Y00377D03*
X018Y0228D03*
Y02225D03*
X00425Y00652D03*
Y00597D03*
X00825Y00322D03*
Y00377D03*
X00725D03*
Y00322D03*
X00675Y00377D03*
Y00322D03*
X00725Y02747D03*
Y02802D03*
X00975D03*
Y02747D03*
X01025D03*
Y02802D03*
X0125Y01472D03*
Y01527D03*
X015Y01472D03*
Y01527D03*
X012Y01472D03*
Y01527D03*
X00625Y01202D03*
Y01147D03*
X005Y00652D03*
Y00597D03*
X01575Y02277D03*
Y02222D03*
X015Y02347D03*
Y02402D03*
X0165Y02277D03*
Y02222D03*
X007Y02372D03*
Y02427D03*
X0085Y02747D03*
Y02802D03*
X01225Y02547D03*
Y02602D03*
X01425Y02347D03*
Y02402D03*
X0045Y02422D03*
Y02477D03*
Y02377D03*
Y02322D03*
X-002Y02302D03*
Y02247D03*
G54D85*
X01725Y02462D03*
X01824Y02425D03*
G54D86*
X01725Y02387D03*
G54D87*
X0032Y01675D03*
X0048D03*
G54D88*
X01725Y02205D03*
Y02295D03*
G54D89*
X0125Y00925D03*
X0136D03*
X0125Y00825D03*
X0136D03*
G54D90*
X00959Y02617D03*
X00979D03*
X01038D03*
X01018D03*
X00999D03*
X00959Y02282D03*
X00861Y02617D03*
X00979Y02282D03*
X01038D03*
X00861D03*
X0092Y02617D03*
X01058D03*
X00881Y02282D03*
X0092D03*
X009D03*
X00841D03*
X0094D03*
X00841Y02617D03*
X00881D03*
X00999Y02282D03*
X0094Y02617D03*
X009D03*
X01018Y02282D03*
X01058D03*
G54D91*
X00782Y02381D03*
Y0242D03*
X01117Y02538D03*
X00782Y02499D03*
Y02361D03*
X01117Y0244D03*
X00782Y02518D03*
Y02538D03*
X01117Y0242D03*
X00782Y02479D03*
Y02459D03*
X01117Y02518D03*
X00782Y0244D03*
X01117Y02361D03*
Y02381D03*
Y02341D03*
X00782D03*
X01117Y02479D03*
Y02499D03*
Y024D03*
Y02459D03*
X00782Y02558D03*
Y024D03*
X01117Y02558D03*
G54D92*
X00617Y00897D03*
Y00681D03*
X01082Y00858D03*
Y00838D03*
X00617Y00878D03*
Y00602D03*
Y00622D03*
Y00641D03*
Y00661D03*
Y007D03*
Y0072D03*
Y0074D03*
Y00759D03*
Y00779D03*
Y00799D03*
Y00819D03*
Y00838D03*
Y00858D03*
X01082Y00897D03*
Y00877D03*
Y00818D03*
Y00799D03*
Y00779D03*
Y00759D03*
Y0074D03*
Y0072D03*
Y007D03*
Y0068D03*
Y00661D03*
Y00641D03*
Y00621D03*
Y00602D03*
G54D93*
X00702Y00517D03*
X00722D03*
X0084D03*
X00899D03*
X00859D03*
X00702Y00982D03*
X00722D03*
X00741D03*
X00761D03*
X00781D03*
X008D03*
X0082D03*
X0084D03*
X00859D03*
X00879D03*
X00899D03*
X00919D03*
X00938D03*
X00958D03*
X00978D03*
X00997D03*
Y00517D03*
X00978D03*
X00958D03*
X00938D03*
X00919D03*
X00879D03*
X0082D03*
X008D03*
X00781D03*
X00761D03*
X00741D03*
G54D94*
X01086Y00986D03*
X00613Y00513D03*
G54D95*
X01086Y00513D03*
X00613Y00986D03*
G54D96*
X0045Y0265D03*
Y0275D03*
Y0285D03*
X-001Y025D03*
Y023D03*
Y026D03*
Y024D03*
Y022D03*
X0Y0D03*
Y002D03*
Y001D03*
Y004D03*
Y003D03*
Y012D03*
Y007D03*
Y008D03*
Y009D03*
Y01D03*
Y013D03*
Y011D03*
X019Y003D03*
Y001D03*
Y004D03*
Y005D03*
Y006D03*
Y007D03*
Y002D03*
Y0096D03*
Y0106D03*
Y0116D03*
Y0126D03*
Y0156D03*
Y0136D03*
Y0176D03*
Y0166D03*
Y0146D03*
X-002Y018D03*
Y006D03*
Y007D03*
Y008D03*
Y01D03*
Y011D03*
Y012D03*
Y013D03*
Y014D03*
Y015D03*
Y002D03*
Y0D03*
Y001D03*
Y016D03*
Y017D03*
Y005D03*
Y003D03*
Y004D03*
Y009D03*
X-003D03*
Y004D03*
Y003D03*
Y005D03*
Y017D03*
Y016D03*
Y001D03*
Y0D03*
Y002D03*
Y015D03*
Y014D03*
Y013D03*
Y012D03*
Y011D03*
Y01D03*
Y008D03*
Y007D03*
Y006D03*
X021D03*
Y007D03*
Y008D03*
Y01D03*
Y011D03*
Y012D03*
Y013D03*
Y014D03*
Y015D03*
Y002D03*
Y0D03*
Y001D03*
Y016D03*
Y017D03*
Y005D03*
Y003D03*
Y004D03*
Y009D03*
X022D03*
Y004D03*
Y003D03*
Y005D03*
Y017D03*
Y016D03*
Y001D03*
Y0D03*
Y002D03*
Y015D03*
Y014D03*
Y013D03*
Y012D03*
Y011D03*
Y01D03*
Y008D03*
Y007D03*
Y006D03*
Y018D03*
G54D97*
X0045Y0295D03*
X-001Y027D03*
X0Y005D03*
Y014D03*
X019Y0D03*
Y0086D03*
X-003Y018D03*
X021D03*
G54D98*
X01275Y01675D03*
X01375D03*
X-003Y029D03*
Y028D03*
Y023D03*
Y022D03*
X022Y028D03*
Y029D03*
X0005Y02275D03*
Y02175D03*
X00975Y0295D03*
X00875D03*
X00975Y01425D03*
X00875D03*
G54D99*
X01475Y01675D03*
G54D100*
X01338Y02875D03*
X01511D03*
X0085Y00627D03*
Y00872D03*
G54D101*
X00875Y00175D03*
X00675D03*
X00575Y02499D03*
Y02299D03*
G54D102*
X019Y019D03*
X013Y-001D03*
X0Y0195D03*
M02*